<?xml version="1.0" standalone="no"?>
<!DOCTYPE svg PUBLIC "-//W3C//DTD SVG 1.1//EN" "http://www.w3.org/Graphics/SVG/1.1/DTD/svg11.dtd" >
<svg>
<metadata>
Created by FontForge 20110222 at Thu Jul 31 12:09:47 2014
 By Orthosie Webhosting
I1995-1997 The Font Bureau, Inc. All Rights Reserved.
</metadata>
<defs>
<font id="Techno" horiz-adv-x="498" >
  <font-face 
    font-family="Techno"
    font-weight="500"
    font-stretch="normal"
    units-per-em="1000"
    panose-1="0 0 0 0 0 0 0 0 0 0"
    ascent="800"
    descent="-200"
    x-height="631"
    cap-height="824"
    bbox="-488 -380 1177 1082"
    underline-thickness="0"
    underline-position="0"
    stemh="92"
    stemv="158"
    unicode-range="U+0020-FB02"
  />
<missing-glyph horiz-adv-x="1000" 
 />
    <glyph glyph-name=".notdef" horiz-adv-x="1000" 
 />
    <glyph glyph-name="space" unicode=" " horiz-adv-x="231" 
 />
    <glyph glyph-name="exclam" unicode="!" horiz-adv-x="254" 
d="M209 824l-29 -574h-112l-26 574h167zM211 0h-170v172h170v-172z" />
    <glyph glyph-name="quotedbl" unicode="&#x22;" horiz-adv-x="371" 
d="M348 824l-21 -326h-101l-21 326h143zM165 824l-21 -326h-101l-21 326h143z" />
    <glyph glyph-name="numbersign" unicode="#" 
d="M457 163h-77v-163h-93v163h-73v-163h-92v163h-80v92h80v326h-80v92h80v151h92v-151h73v151h93v-152h77v-91h-77v-326h77v-92zM287 255v326h-73v-326h73z" />
    <glyph glyph-name="dollar" unicode="$" horiz-adv-x="518" 
d="M495 213c0 -58 -17 -105 -50 -139s-82 -55 -147 -62v-67h-90v66c-35 4 -71 18 -108 42s-67 53 -91 87l97 79c19 -27 40 -49 64 -65s49 -24 75 -24c27 0 48 6 63 18s23 28 23 48c0 21 -8 40 -24 59c-15 19 -47 47 -95 85c-22 18 -41 34 -57 48c-17 13 -29 24 -38 33
c-30 28 -51 56 -65 83s-20 57 -20 89c0 49 15 89 45 122s74 56 131 71v47h90v-44c55 -8 99 -29 132 -62c33 -32 53 -75 61 -127l-129 -34c-2 15 -5 29 -10 41c-4 12 -10 22 -17 31c-8 11 -18 20 -30 25c-11 6 -24 8 -39 8c-24 0 -42 -6 -56 -20c-14 -13 -21 -31 -21 -55
c0 -15 5 -29 13 -41c9 -13 24 -28 45 -45c2 -2 10 -8 25 -19s35 -28 62 -49c62 -47 104 -86 127 -118c22 -32 34 -69 34 -111z" />
    <glyph glyph-name="percent" unicode="%" horiz-adv-x="645" 
d="M291 577c0 -50 -11 -89 -33 -117s-53 -43 -93 -43c-39 0 -70 14 -92 41c-22 28 -33 67 -33 119v98c0 50 11 89 33 117s52 42 93 42c39 0 69 -13 91 -41c22 -27 34 -66 34 -118v-98zM601 688l-505 -601l-58 48l504 602zM605 146c0 -50 -11 -89 -33 -117s-52 -42 -93 -42
c-39 0 -69 13 -91 41c-22 27 -34 67 -34 118v98c0 50 11 89 33 118c22 28 53 42 93 42c39 0 70 -14 92 -41c22 -28 33 -67 33 -119v-98zM199 570v112c0 25 -3 42 -8 50c-4 9 -13 13 -25 13c-14 0 -23 -5 -28 -14c-4 -9 -6 -26 -6 -49v-112c0 -25 2 -42 7 -51
c5 -8 14 -12 26 -12c13 0 22 4 26 12c5 9 8 26 8 51zM513 141v111c0 26 -3 42 -8 51s-13 13 -26 13s-22 -5 -27 -14c-4 -10 -6 -26 -6 -50v-111c0 -26 2 -43 7 -51s14 -12 26 -12c13 0 21 4 26 12s8 25 8 51z" />
    <glyph glyph-name="ampersand" unicode="&#x26;" horiz-adv-x="582" 
d="M526 0h-212c-95 0 -166 24 -213 72s-70 123 -70 225c0 49 10 90 29 122c20 32 51 58 93 76c-33 10 -57 28 -74 54c-16 26 -24 59 -24 99c0 56 21 101 63 135c42 33 99 50 171 50c30 0 58 -2 84 -5c25 -3 50 -9 74 -17v-114c-21 9 -41 15 -62 19c-20 4 -44 6 -71 6
c-34 0 -62 -8 -84 -24c-21 -16 -32 -38 -32 -67c0 -26 12 -46 37 -62c24 -15 53 -23 87 -23h204v-546zM373 102v348h-57c-45 0 -75 -13 -91 -37c-15 -25 -23 -66 -23 -122c0 -65 9 -113 27 -144c19 -30 48 -45 87 -45h57z" />
    <glyph glyph-name="quoteright" unicode="&#x2019;" horiz-adv-x="252" 
d="M209 652l-103 -145h-72l49 145h-41v172h167v-172z" />
    <glyph glyph-name="parenleft" unicode="(" horiz-adv-x="313" 
d="M291 -167h-44c-66 0 -117 16 -152 49c-36 32 -53 83 -53 153v586c0 66 17 117 52 151c35 35 86 52 153 52h44v-84c-29 0 -53 -6 -70 -19s-26 -35 -26 -67v-652c0 -32 9 -54 26 -67s40 -19 70 -19v-83z" />
    <glyph glyph-name="parenright" unicode=")" horiz-adv-x="313" 
d="M271 35c0 -66 -18 -117 -53 -151s-86 -51 -152 -51h-43v84c30 0 53 6 69 19c17 12 25 34 25 66v652c0 32 -8 54 -25 67s-40 19 -69 19v84h43c67 0 118 -17 153 -51c34 -35 52 -85 52 -152v-586z" />
    <glyph glyph-name="asterisk" unicode="*" horiz-adv-x="459" 
d="M442 501l-51 -71l-116 79v-150h-88v154l-122 -83l-51 71l136 93l-134 92l50 72l121 -83v159h88v-155l115 79l50 -72l-134 -92z" />
    <glyph glyph-name="plus" unicode="+" horiz-adv-x="459" 
d="M436 317h-144v-159h-124v159h-148v123h148v163h124v-163h144v-123z" />
    <glyph glyph-name="comma" unicode="," horiz-adv-x="254" 
d="M209 0l-132 -145h-72l78 145h-41v172h167v-172z" />
    <glyph glyph-name="hyphen" unicode="-" horiz-adv-x="557" 
d="M491 315h-416v127h416v-127z" />
    <glyph glyph-name="period" unicode="." horiz-adv-x="254" 
d="M212 0h-170v172h170v-172z" />
    <glyph glyph-name="slash" unicode="/" horiz-adv-x="332" 
d="M298 824l-187 -907h-83l187 907h83z" />
    <glyph glyph-name="zero" unicode="0" 
d="M460 411c0 -47 -1 -90 -2 -129s-1 -72 -1 -100c0 -56 -20 -102 -58 -139s-88 -55 -150 -55c-60 0 -109 19 -149 57c-39 38 -58 85 -58 141c-1 38 -4 79 -5 122c-1 44 -2 77 -2 101c0 48 1 94 2 136s3 72 5 90c6 62 27 111 65 146c37 35 84 52 142 52
c55 0 103 -18 142 -55s61 -85 66 -143c0 -11 1 -37 2 -80c1 -42 1 -90 1 -144zM296 412c0 69 0 126 -1 171s-2 75 -4 92c-2 18 -6 32 -13 40c-7 9 -16 13 -29 13s-22 -5 -29 -15c-6 -9 -10 -23 -13 -41s-4 -51 -5 -99c-1 -49 -2 -103 -2 -163c0 -62 1 -115 2 -159
c1 -43 2 -77 5 -101c2 -23 7 -39 13 -46c7 -7 16 -11 29 -11s24 5 31 17c7 11 11 25 12 41c1 48 2 95 3 139c0 43 1 84 1 122z" />
    <glyph glyph-name="one" unicode="1" 
d="M364 0h-156v710l-132 -8v83l177 48h111v-833z" />
    <glyph glyph-name="two" unicode="2" 
d="M450 630c0 -78 -26 -158 -79 -242c-52 -83 -127 -181 -224 -295h184v83h105v-176h-403v109c95 137 161 242 196 314s53 142 53 210c0 30 -8 53 -24 69c-16 17 -40 25 -72 25c-20 0 -40 -3 -63 -9c-22 -6 -42 -14 -60 -23l-27 95c32 14 65 25 97 32s64 11 97 11
c69 0 123 -18 162 -53c38 -35 58 -85 58 -150z" />
    <glyph glyph-name="three" unicode="3" 
d="M455 265c0 -88 -23 -156 -68 -205c-45 -48 -111 -72 -197 -72c-32 0 -61 3 -86 9c-26 5 -52 16 -78 31l18 102c19 -15 41 -26 63 -34c23 -8 45 -12 66 -12c41 0 72 15 92 44c21 29 31 73 31 131c0 52 -9 91 -28 117c-18 26 -46 39 -82 39h-61v86h57c36 0 64 11 83 32
c19 22 29 52 29 91c0 35 -8 62 -25 81s-41 28 -73 28c-27 0 -50 -3 -71 -9c-20 -6 -41 -15 -62 -28l-22 91c25 13 56 24 94 33c37 9 71 13 102 13c67 0 120 -17 158 -52c37 -34 56 -83 56 -147c0 -37 -11 -71 -32 -103c-22 -32 -50 -54 -85 -65c36 -12 65 -36 87 -73
c23 -38 34 -80 34 -128z" />
    <glyph glyph-name="four" unicode="4" 
d="M490 165h-65v-165h-150v165h-259v147l248 517h161v-536h65v-128zM274 292v335l-157 -335h157z" />
    <glyph glyph-name="five" unicode="5" 
d="M459 283c0 -97 -22 -171 -66 -221c-45 -50 -108 -75 -191 -75c-35 0 -65 3 -92 8c-27 6 -54 16 -80 31l20 104c25 -15 47 -26 65 -32c19 -5 38 -8 59 -8c45 0 78 14 98 43s30 74 30 134c0 57 -13 101 -39 132c-26 30 -64 45 -114 45h-85v380h369v-125h-231v-157h35
c70 0 125 -23 164 -68s58 -109 58 -191z" />
    <glyph glyph-name="six" unicode="6" 
d="M465 286c0 -104 -16 -179 -50 -227c-33 -47 -88 -71 -165 -71c-67 0 -117 19 -152 58c-35 38 -54 98 -56 179c-2 28 -2 64 -3 107c-1 42 -1 70 -1 83c0 32 0 67 2 104s6 71 10 103c10 65 35 117 76 154c41 38 92 57 154 57c26 0 51 -3 75 -9s49 -15 74 -28l-18 -99
c-26 17 -46 27 -60 30c-13 4 -28 5 -45 5c-36 0 -63 -9 -82 -28s-28 -46 -28 -81c0 -18 -1 -35 -1 -50c-1 -15 -1 -32 -2 -51c18 10 35 17 49 21c15 3 31 5 50 5c60 0 104 -21 132 -64c27 -43 41 -109 41 -198zM302 273c0 78 -3 128 -10 149c-7 22 -21 33 -42 33
c-22 0 -35 -14 -41 -40s-8 -73 -8 -140c0 -89 3 -142 9 -158s20 -24 40 -24c18 0 31 11 39 33c9 22 13 71 13 147z" />
    <glyph glyph-name="seven" unicode="7" 
d="M438 766c0 -87 -9 -160 -28 -219c-20 -59 -49 -108 -88 -149c-22 -24 -39 -54 -51 -92c-11 -38 -17 -82 -17 -133c0 -26 2 -55 6 -85c4 -31 9 -60 14 -88h-160c-4 30 -7 58 -10 85c-2 27 -3 53 -3 77c0 62 7 116 22 162c14 46 37 88 69 127c47 57 78 101 93 133
c15 33 23 71 23 115h-265v125h395v-58z" />
    <glyph glyph-name="eight" unicode="8" 
d="M466 257c0 -91 -18 -158 -54 -203c-36 -44 -91 -66 -163 -66c-75 0 -129 21 -165 64c-35 43 -52 111 -52 205c0 48 8 90 26 125c17 36 43 62 76 80c-24 15 -42 37 -56 65c-13 29 -19 62 -19 99c0 67 16 119 49 154s81 53 142 53s108 -19 141 -56c34 -38 50 -88 50 -151
c0 -35 -6 -67 -20 -96c-14 -30 -33 -52 -57 -68c34 -17 60 -43 77 -77s25 -77 25 -128zM297 615c0 55 -4 88 -11 100s-19 18 -36 18s-29 -7 -36 -21s-11 -46 -11 -97c0 -44 3 -74 9 -90s18 -25 37 -25c18 0 31 9 38 27c6 18 10 48 10 88zM303 253c0 64 -3 108 -10 132
c-6 23 -21 35 -44 35s-37 -12 -44 -37c-6 -25 -10 -68 -10 -130c0 -67 4 -112 10 -135c7 -22 22 -33 44 -33c24 0 39 12 45 36c6 23 9 68 9 132z" />
    <glyph glyph-name="nine" unicode="9" 
d="M460 407c0 -35 -1 -73 -3 -115c-2 -41 -5 -72 -7 -92c-7 -68 -31 -120 -71 -156c-41 -37 -94 -55 -162 -55c-25 0 -50 3 -73 9c-24 5 -49 15 -75 28l18 99c26 -15 46 -25 60 -29s29 -6 45 -6c36 0 62 9 80 27c18 19 28 46 30 82c1 18 1 35 1 50s1 32 2 51
c-16 -8 -31 -15 -45 -19c-14 -5 -33 -7 -54 -7c-60 0 -104 21 -132 64s-42 109 -42 199c0 102 17 178 51 225s89 71 165 71c66 0 117 -20 152 -61s54 -99 56 -175c1 -29 2 -64 3 -107c1 -42 1 -70 1 -83zM297 547c0 97 -4 151 -12 163s-21 18 -38 18c-16 0 -29 -11 -38 -32
c-9 -22 -14 -71 -14 -147c0 -79 4 -129 11 -150c6 -21 20 -31 41 -31c22 0 36 11 42 32c5 22 8 71 8 147z" />
    <glyph glyph-name="colon" unicode=":" horiz-adv-x="231" 
d="M198 412h-167v172h167v-172zM198 0h-167v172h167v-172z" />
    <glyph glyph-name="semicolon" unicode=";" horiz-adv-x="231" 
d="M200 412h-167v172h167v-172zM200 0l-133 -145h-72l78 145h-40v172h167v-172z" />
    <glyph glyph-name="less" unicode="&#x3c;" horiz-adv-x="332" 
d="M291 114l-270 225v77l270 235v-151l-145 -122l145 -113v-151z" />
    <glyph glyph-name="equal" unicode="=" horiz-adv-x="459" 
d="M426 409h-393v120h393v-120zM426 228h-393v120h393v-120z" />
    <glyph glyph-name="greater" unicode="&#x3e;" horiz-adv-x="332" 
d="M37 114l269 225v77l-269 235v-151l145 -122l-145 -113v-151z" />
    <glyph glyph-name="question" unicode="?" horiz-adv-x="454" 
d="M422 624c0 -62 -14 -119 -42 -171c-29 -52 -77 -107 -144 -165v-68h-117v117c60 62 99 112 117 149s27 80 27 128c0 38 -8 67 -25 87s-41 29 -72 29c-24 0 -47 -2 -70 -7c-22 -6 -44 -13 -66 -24l-21 96c27 13 58 24 92 31s64 10 90 10c74 0 130 -18 171 -55
c40 -37 60 -90 60 -157zM276 0h-171v172h171v-172z" />
    <glyph glyph-name="at" unicode="@" horiz-adv-x="848" 
d="M818 327c0 -104 -17 -187 -50 -250c-34 -62 -81 -94 -142 -94c-36 0 -66 12 -88 34c-23 22 -34 53 -34 94c-7 -14 -18 -25 -33 -33c-16 -9 -33 -13 -54 -13c-24 0 -45 4 -63 12c-19 9 -35 22 -47 39c-17 21 -29 50 -37 86s-12 79 -12 130c0 41 4 77 12 108
c7 32 19 58 34 81c14 20 31 35 50 45c18 10 40 16 63 16c17 0 33 -3 49 -9c16 -7 29 -14 39 -23l26 28h56v-422c0 -39 3 -63 9 -71s15 -12 28 -12c28 0 49 20 64 61c15 40 23 103 23 190c0 131 -24 231 -73 302c-48 70 -116 105 -204 105c-89 0 -159 -36 -211 -109
c-52 -72 -77 -173 -77 -301c0 -111 25 -203 76 -278c50 -74 112 -112 185 -112c11 0 19 1 25 1c7 1 16 3 28 6v-101c-12 -3 -22 -4 -31 -5s-20 -1 -34 -1c-108 0 -196 45 -264 135c-67 90 -101 210 -101 359c0 158 36 283 109 373c72 90 171 135 296 135s220 -43 285 -130
c66 -86 98 -212 98 -376zM479 320c0 65 -4 109 -11 131c-7 23 -19 34 -38 34c-20 0 -33 -10 -38 -31c-6 -20 -9 -65 -9 -134c0 -65 4 -107 12 -127c8 -19 20 -28 36 -28c14 0 25 9 34 29c9 19 14 61 14 126z" />
    <glyph glyph-name="A" unicode="A" horiz-adv-x="576" 
d="M520 0h-166v443h-132v-443h-166v608c0 73 20 129 59 167c40 39 98 58 173 58c81 0 140 -18 177 -54s55 -93 55 -171v-608zM354 552v90c0 34 -5 59 -15 73s-26 21 -50 21c-26 0 -43 -7 -53 -21c-9 -14 -14 -38 -14 -73v-90h132z" />
    <glyph glyph-name="B" unicode="B" horiz-adv-x="543" 
d="M520 276c0 -95 -20 -164 -60 -209s-102 -67 -188 -67h-211v824h228c59 0 106 -14 140 -42s51 -67 51 -117c0 -48 -10 -85 -30 -112c-20 -26 -50 -43 -91 -50c51 -9 91 -34 119 -74s42 -91 42 -153zM334 645c0 30 -8 53 -23 68s-39 22 -71 22h-13v-191h14c30 0 54 9 69 27
c16 18 24 42 24 74zM355 285c0 58 -9 101 -26 127c-18 27 -46 40 -86 40h-16v-361h14c44 0 74 15 90 44c16 30 24 80 24 150z" />
    <glyph glyph-name="C" unicode="C" horiz-adv-x="488" 
d="M477 600h-171c0 41 -3 71 -8 89c-6 18 -19 27 -39 27c-21 0 -35 -20 -44 -59c-9 -40 -13 -120 -13 -240s5 -203 15 -248s29 -67 56 -67c15 0 26 3 33 10c8 7 13 27 17 59h150c-4 -19 -8 -35 -13 -50s-10 -28 -16 -39c-15 -32 -37 -56 -63 -72c-26 -15 -63 -23 -111 -23
c-54 0 -97 13 -130 39c-34 26 -59 66 -77 121c-11 33 -19 72 -24 117c-6 45 -8 97 -8 154c0 75 5 140 15 194s25 98 45 130c19 30 44 53 73 68c30 15 65 23 106 23c36 0 68 -5 94 -16c27 -11 49 -28 66 -49c16 -20 28 -44 35 -72c8 -28 12 -60 12 -96z" />
    <glyph glyph-name="D" unicode="D" horiz-adv-x="564" 
d="M527 416c0 -158 -20 -267 -60 -326c-41 -60 -111 -90 -213 -90h-193v824h165c120 0 200 -29 241 -88c40 -58 60 -165 60 -320zM356 408c0 124 -7 210 -22 256c-14 47 -40 70 -78 70h-29v-644h29c38 0 64 14 78 41c15 28 22 120 22 277z" />
    <glyph glyph-name="E" unicode="E" horiz-adv-x="483" 
d="M462 0h-190c-70 0 -122 17 -158 52c-35 35 -53 88 -53 159v401c0 84 15 141 46 169c31 29 88 43 171 43h163v-93h-119c-36 0 -61 -8 -75 -23c-13 -16 -20 -44 -20 -84v-71h197v-111h-197v-212c0 -49 8 -84 25 -105c17 -22 45 -32 86 -32h124v-93z" />
    <glyph glyph-name="F" unicode="F" horiz-adv-x="469" 
d="M466 731h-151c-34 0 -57 -7 -69 -21c-13 -14 -19 -38 -19 -74v-83h197v-111h-197v-442h-166v634c0 68 15 117 45 146c29 29 80 44 151 44h209v-93z" />
    <glyph glyph-name="G" unicode="G" horiz-adv-x="522" 
d="M490 171c-14 -65 -38 -112 -72 -141c-33 -29 -81 -43 -144 -43c-87 0 -150 32 -187 96s-56 173 -56 328c0 148 19 255 56 322c37 66 98 100 182 100c67 0 118 -20 152 -58c35 -39 53 -94 53 -167h-160c0 47 -3 77 -11 90c-7 12 -19 19 -35 19c-28 0 -46 -22 -54 -65
s-12 -124 -12 -241c0 -127 5 -211 16 -253c10 -41 29 -62 57 -62c21 0 37 9 48 28c11 18 16 42 16 72v148h-72v115h223v-288z" />
    <glyph glyph-name="H" unicode="H" horiz-adv-x="580" 
d="M520 0h-166v440h-127v-440h-166v824h166v-269h127v269h166v-824z" />
    <glyph glyph-name="I" unicode="I" horiz-adv-x="317" 
d="M242 0h-166v824h166v-824z" />
    <glyph glyph-name="J" unicode="J" horiz-adv-x="464" 
d="M402 174c0 -58 -18 -104 -54 -137c-36 -34 -87 -50 -152 -50c-59 0 -104 12 -135 35c-30 23 -50 62 -60 115l106 33c6 -26 14 -45 24 -55s24 -15 44 -15c21 0 37 6 47 19s15 32 15 57v648h165v-650z" />
    <glyph glyph-name="K" unicode="K" horiz-adv-x="576" 
d="M585 0h-90c-40 0 -75 12 -106 35c-30 23 -46 52 -46 86v165c0 37 -6 63 -18 77s-35 21 -68 21h-30v-384h-166v824h166v-349l42 -1c14 0 25 4 34 13c9 8 14 31 16 69l12 268h155l-12 -244c-2 -40 -11 -69 -28 -86c-16 -17 -40 -29 -73 -36c42 -6 74 -21 96 -44
c22 -24 33 -55 33 -94v-122c0 -49 6 -79 18 -90c12 -10 33 -15 65 -15v-93z" />
    <glyph glyph-name="L" unicode="L" horiz-adv-x="469" 
d="M466 0h-208c-64 0 -113 17 -146 52c-34 34 -51 83 -51 146v626h166v-620c0 -45 8 -75 24 -89c17 -15 40 -22 69 -22h146v-93z" />
    <glyph glyph-name="M" unicode="M" horiz-adv-x="815" 
d="M754 0h-165v682c0 15 -4 27 -12 36s-19 13 -34 13h-53v-731h-164v682c0 15 -4 27 -13 36c-8 9 -19 13 -34 13h-53v-731h-165v824h132l17 -36c10 10 29 19 55 26c27 7 52 10 77 10c29 0 54 -3 74 -11c21 -7 36 -17 47 -31c16 14 34 24 57 31c22 8 44 11 67 11
c52 0 92 -14 122 -42c30 -27 45 -67 45 -118v-664z" />
    <glyph glyph-name="N" unicode="N" horiz-adv-x="549" 
d="M504 0h-166v652c0 25 -7 43 -20 56c-13 12 -33 18 -61 18h-30v-726h-166v824h132l18 -36c15 12 33 22 55 27c22 6 45 9 71 9c52 0 93 -14 123 -44c29 -29 44 -70 44 -121v-659z" />
    <glyph glyph-name="O" unicode="O" horiz-adv-x="549" 
d="M519 411c0 -168 -21 -280 -61 -338c-41 -57 -102 -86 -183 -86s-142 29 -183 86c-41 58 -61 171 -61 338c0 169 20 281 61 338c41 56 102 84 183 84c82 0 143 -26 183 -77c41 -51 61 -166 61 -345zM347 411c0 99 -3 175 -10 228s-27 79 -62 79c-34 0 -55 -27 -62 -80
c-7 -54 -11 -129 -11 -227c0 -111 4 -190 12 -238c7 -48 28 -71 61 -71c36 0 56 26 63 79c6 54 9 130 9 230z" />
    <glyph glyph-name="P" unicode="P" horiz-adv-x="552" 
d="M520 602c0 -75 -17 -131 -52 -168s-88 -55 -159 -55h-82v-379h-166v824h260c70 0 121 -17 152 -52c31 -34 47 -91 47 -170zM354 602c0 44 -7 77 -22 98s-38 31 -69 31h-36v-259h36c31 0 54 10 69 29c15 20 22 53 22 101z" />
    <glyph glyph-name="Q" unicode="Q" horiz-adv-x="549" 
d="M519 411c0 -144 -15 -246 -43 -307c-29 -61 -80 -100 -152 -115c0 -23 6 -39 17 -49c11 -9 44 -14 99 -14v-93h-69c-52 0 -91 11 -117 32c-26 20 -39 50 -39 89v39c-59 12 -105 49 -137 108c-31 60 -47 163 -47 310c0 167 20 279 61 336c40 57 101 86 182 86
c83 0 144 -25 184 -76c41 -51 61 -166 61 -346zM347 409c0 103 -3 180 -10 232c-6 51 -27 77 -61 77c-33 0 -54 -27 -62 -81s-12 -130 -12 -228c0 -99 4 -175 12 -229s28 -81 62 -81c35 0 56 26 62 78c6 51 9 129 9 232z" />
    <glyph glyph-name="R" unicode="R" horiz-adv-x="581" 
d="M575 0h-38c-63 0 -109 14 -136 41s-40 72 -40 133v143c0 22 -6 37 -17 48s-27 16 -48 16h-69v-381h-166v824h253c69 0 120 -16 152 -47c32 -32 48 -81 48 -146c0 -50 -10 -90 -30 -120c-19 -30 -48 -52 -88 -63c40 -5 70 -19 92 -44s33 -55 33 -91v-171
c0 -19 4 -32 11 -39c7 -8 21 -11 43 -11v-92zM347 603c0 51 -6 85 -17 103s-30 27 -59 27h-44v-254h48c25 0 44 9 55 27c11 19 17 51 17 97z" />
    <glyph glyph-name="S" unicode="S" horiz-adv-x="466" 
d="M459 220c0 -77 -20 -135 -59 -174s-96 -59 -172 -59c-68 0 -121 18 -159 53c-39 35 -58 86 -58 152h155c0 -27 5 -48 16 -63s28 -22 50 -22s40 7 52 20c13 13 19 31 19 55s-5 46 -14 66c-10 19 -25 39 -44 60c-11 11 -35 33 -73 67c-39 35 -61 55 -68 61
c-30 29 -52 60 -66 91s-21 65 -21 101c0 62 20 112 59 149c40 37 91 56 154 56s113 -18 149 -54s55 -86 55 -149h-156c0 27 -5 48 -14 62c-10 14 -25 21 -45 21c-17 0 -30 -5 -39 -16s-13 -27 -13 -46c0 -15 4 -30 12 -45c9 -14 25 -32 49 -54c3 -3 25 -21 64 -55
c40 -34 69 -60 85 -78c30 -31 51 -62 63 -94c13 -31 19 -66 19 -105z" />
    <glyph glyph-name="T" unicode="T" horiz-adv-x="483" 
d="M479 731h-156v-731h-166v731h-155v93h477v-93z" />
    <glyph glyph-name="U" unicode="U" horiz-adv-x="566" 
d="M511 227c0 -81 -18 -142 -56 -181c-37 -39 -94 -59 -171 -59c-74 0 -130 20 -169 61s-59 100 -59 179v597h166v-593c0 -45 4 -77 13 -95c9 -19 25 -28 49 -28c23 0 39 9 48 26c9 18 13 50 13 97v593h166v-597z" />
    <glyph glyph-name="V" unicode="V" horiz-adv-x="554" 
d="M501 278c0 -29 -4 -56 -14 -82c-9 -26 -23 -49 -43 -71c-19 -22 -38 -44 -57 -64c-19 -21 -39 -41 -59 -61h-127l-153 195v629h165v-621l72 -93l50 62v652h166v-546z" />
    <glyph glyph-name="W" unicode="W" horiz-adv-x="804" 
d="M756 278c0 -29 -4 -56 -14 -81c-10 -26 -24 -50 -44 -72c-19 -23 -38 -44 -57 -65c-19 -20 -39 -40 -59 -60h-113l-70 90l-86 -90h-112l-153 195v629h161v-630l67 -87l41 41v676h166v-630l66 -87l41 41v676h166v-546z" />
    <glyph glyph-name="X" unicode="X" horiz-adv-x="558" 
d="M510 0h-161v259l-102 123l-49 -37v-345h-160v248c0 16 2 32 7 47s13 28 23 39c11 12 25 27 45 44s46 38 77 64l-129 155v227h159v-197l87 -103l29 24v276h165v-179c0 -29 -5 -52 -15 -68s-31 -37 -63 -64c-7 -5 -15 -12 -25 -20c-9 -8 -21 -18 -34 -29l146 -169v-295z
" />
    <glyph glyph-name="Y" unicode="Y" horiz-adv-x="544" 
d="M512 581c0 -32 -13 -67 -38 -103c-26 -36 -65 -76 -118 -119v-359h-166v322l-156 208v294h166v-268l88 -131l58 60v339h166v-243z" />
    <glyph glyph-name="Z" unicode="Z" horiz-adv-x="474" 
d="M465 779c0 -12 -3 -29 -9 -48c-7 -20 -16 -43 -28 -70l-241 -569h152v88h116v-180h-377c-23 0 -39 4 -49 13c-10 8 -15 21 -15 38c0 9 1 17 3 25s6 22 14 41l255 614h-131v-85h-109v178h366c17 0 30 -4 39 -12c10 -8 14 -19 14 -33z" />
    <glyph glyph-name="bracketleft" unicode="[" horiz-adv-x="313" 
d="M300 -167h-258v991h258v-93h-105v-805h105v-93z" />
    <glyph glyph-name="backslash" unicode="\" horiz-adv-x="332" 
d="M305 -86h-81l-188 910h81z" />
    <glyph glyph-name="bracketright" unicode="]" horiz-adv-x="313" 
d="M271 -167h-259v93h106v805h-106v93h259v-991z" />
    <glyph glyph-name="asciicircum" unicode="^" horiz-adv-x="508" 
d="M486 571h-132l-100 110l-100 -110h-132l232 262z" />
    <glyph glyph-name="underscore" unicode="_" horiz-adv-x="566" 
d="M566 -167h-566v127h566v-127z" />
    <glyph glyph-name="quoteleft" unicode="&#x2018;" horiz-adv-x="252" 
d="M218 824l-49 -145h40v-172h-167v172l104 145h72z" />
    <glyph glyph-name="a" unicode="a" horiz-adv-x="483" 
d="M442 0h-128l-15 26c-10 -10 -25 -18 -44 -24c-18 -5 -40 -8 -67 -8c-48 0 -87 21 -118 62c-30 42 -46 99 -46 172c0 80 15 140 44 177c30 38 76 57 138 57c19 0 36 -3 51 -9c14 -7 25 -15 33 -24v45c0 22 -7 39 -19 52s-30 20 -53 20c-25 0 -47 -3 -67 -8
c-19 -5 -39 -14 -61 -26v95c25 12 52 20 81 25s59 8 91 8c56 0 100 -16 132 -48c32 -31 48 -75 48 -132v-460zM290 102v233c-4 11 -9 19 -18 25c-8 6 -18 9 -31 9c-21 0 -37 -11 -46 -33c-10 -21 -15 -58 -15 -111c0 -61 4 -100 12 -118c8 -17 22 -26 42 -26c11 0 22 2 33 6
c10 5 18 10 23 15z" />
    <glyph glyph-name="b" unicode="b" horiz-adv-x="488" 
d="M458 331c0 -32 -1 -62 -2 -88s-3 -54 -6 -84c-5 -50 -22 -90 -51 -119c-29 -30 -69 -44 -120 -44c-24 0 -43 2 -57 6s-28 10 -41 19l-11 -21h-128v824h155v-215c11 9 26 16 46 22c19 6 40 9 63 9c41 0 73 -13 97 -37s39 -61 46 -109c2 -19 5 -43 6 -73c2 -29 3 -59 3 -90
zM296 329c0 21 0 44 -1 70c-1 25 -2 51 -4 78c-2 26 -7 43 -16 50c-8 7 -21 10 -38 10c-6 0 -12 0 -19 -2c-6 -1 -13 -2 -21 -5v-432c4 -4 11 -7 18 -9c8 -3 17 -4 28 -4c13 0 24 5 33 14c8 9 13 24 15 45c1 12 3 39 4 81c1 41 1 76 1 104z" />
    <glyph glyph-name="c" unicode="c" horiz-adv-x="425" 
d="M414 451h-138c0 38 -2 63 -8 74s-15 17 -29 17c-22 0 -36 -16 -42 -49c-6 -32 -9 -91 -9 -176c0 -97 4 -159 10 -185c7 -27 21 -40 43 -40c14 0 24 4 31 12c6 9 11 26 13 53h116c0 -55 -15 -97 -44 -123c-29 -27 -72 -40 -130 -40c-65 0 -115 27 -149 81
c-34 55 -51 135 -51 242s18 187 53 241c35 55 88 82 159 82c56 0 99 -16 129 -47c31 -31 46 -79 46 -142z" />
    <glyph glyph-name="d" unicode="d" horiz-adv-x="488" 
d="M447 0h-129l-13 25c-17 -13 -33 -21 -47 -25c-15 -3 -33 -5 -56 -5c-44 0 -80 15 -108 44c-29 29 -46 69 -52 120c-3 25 -5 53 -7 83s-3 60 -3 89c0 33 2 66 5 100c4 33 8 58 13 76c12 42 30 74 57 97c26 24 58 36 96 36c22 0 40 -2 53 -6c13 -3 25 -9 35 -18v208h156
v-824zM291 100v430c-7 3 -14 5 -20 7c-7 2 -13 3 -18 3c-17 0 -30 -5 -38 -14c-9 -9 -14 -25 -16 -47c-2 -25 -4 -54 -5 -85s-2 -53 -2 -65c0 -35 1 -71 2 -105c2 -35 3 -63 5 -82c2 -20 8 -34 15 -42s18 -12 33 -12c12 0 21 1 27 2c6 2 12 5 17 10z" />
    <glyph glyph-name="e" unicode="e" horiz-adv-x="444" 
d="M416 308h-228c0 -93 4 -152 11 -178c7 -25 22 -38 45 -38c15 0 27 5 34 15c8 9 12 26 12 50h111c0 -56 -14 -97 -43 -123c-28 -27 -72 -40 -131 -40c-65 0 -115 27 -149 81c-34 55 -51 135 -51 242s18 187 53 241c35 55 88 82 159 82c61 0 105 -22 134 -66
c29 -43 43 -108 43 -195v-71zM287 398c0 55 -3 93 -9 113c-6 21 -19 31 -40 31c-20 0 -34 -9 -40 -27s-9 -57 -9 -117h98z" />
    <glyph glyph-name="f" unicode="f" horiz-adv-x="317" 
d="M363 733c-17 6 -30 10 -41 12c-11 3 -21 4 -29 4c-23 0 -39 -8 -48 -25c-9 -16 -13 -45 -13 -84v-8h77v-80h-77v-552h-156v553h-71v79h71c0 76 14 130 42 162c28 33 76 49 145 49c14 0 30 -2 49 -5c18 -3 35 -7 51 -12v-93z" />
    <glyph glyph-name="g" unicode="g" 
d="M448 20c0 -62 -20 -109 -59 -143c-40 -34 -93 -51 -160 -51c-28 0 -57 3 -85 8c-29 5 -55 13 -79 24l19 86c16 -6 37 -12 62 -17c24 -5 47 -7 67 -7c32 0 55 8 69 26c15 17 23 42 23 75c0 4 0 8 -1 13c0 5 -1 11 -1 17c-7 -11 -20 -20 -39 -26c-20 -7 -43 -10 -69 -10
c-44 0 -78 12 -103 37c-25 26 -41 66 -50 122c-3 22 -6 46 -8 71c-1 26 -2 54 -2 85c0 32 2 66 5 100c4 34 8 59 13 77c12 42 30 74 57 97c26 24 58 36 96 36c18 0 34 -2 48 -6c14 -3 28 -9 42 -18v16h155v-612zM293 117v413c-5 3 -11 5 -19 7s-15 3 -21 3
c-17 0 -30 -5 -38 -13s-14 -24 -16 -48s-4 -50 -5 -77c-1 -28 -2 -53 -2 -74c0 -34 1 -66 2 -96c2 -30 3 -55 5 -75c2 -19 7 -33 15 -42c7 -8 18 -12 33 -12c10 0 19 1 26 3s13 6 20 11z" />
    <glyph glyph-name="h" unicode="h" 
d="M457 0h-157v482c0 19 -4 33 -13 41c-9 9 -22 13 -39 13c-8 0 -17 -1 -26 -2c-10 -2 -18 -4 -25 -6v-528h-155v824h155v-212c13 10 29 17 46 21c18 4 38 7 60 7c49 0 86 -13 113 -40c27 -26 41 -63 41 -112v-488z" />
    <glyph glyph-name="i" unicode="i" horiz-adv-x="254" 
d="M205 680h-156v144h156v-144zM205 0h-156v632h156v-632z" />
    <glyph glyph-name="j" unicode="j" horiz-adv-x="259" 
d="M218 680h-156v144h156v-144zM218 -18c0 -49 -16 -87 -47 -115c-32 -27 -77 -41 -135 -41c-26 0 -49 2 -70 5s-38 8 -51 14l16 83c9 -3 20 -5 33 -6s27 -2 43 -2c20 0 35 5 43 17c8 11 12 30 12 59v636h156v-650z" />
    <glyph glyph-name="k" unicode="k" horiz-adv-x="493" 
d="M492 0h-77c-40 0 -71 11 -92 34s-31 58 -31 104v126c0 19 -6 33 -16 42c-10 10 -24 15 -40 15h-39v-321h-155v824h155v-419h34c10 0 18 2 23 6c6 4 10 12 13 23l51 198h130l-54 -191c-8 -30 -15 -49 -22 -56c-6 -7 -16 -12 -27 -15c32 0 56 -8 73 -26
c18 -17 26 -41 26 -72v-152c0 -14 4 -23 10 -28s19 -7 38 -7v-85z" />
    <glyph glyph-name="l" unicode="l" horiz-adv-x="278" 
d="M266 0h-98c-38 0 -67 11 -87 32s-30 53 -30 95v697h156v-690c0 -18 4 -30 12 -38c8 -7 24 -11 47 -11v-85z" />
    <glyph glyph-name="m" unicode="m" horiz-adv-x="747" 
d="M706 0h-156v482c0 15 -5 28 -14 39c-9 10 -21 15 -36 15c-11 0 -19 -1 -27 -2s-18 -4 -30 -8c3 -6 5 -14 6 -24c2 -10 3 -19 3 -28v-474h-157v482c0 19 -4 33 -13 41c-9 9 -22 13 -41 13c-9 0 -16 0 -23 -2c-7 -1 -14 -3 -21 -6v-528h-155v632h127l11 -28
c16 11 34 20 55 26s45 10 71 10c31 0 55 -5 72 -13c17 -9 32 -22 45 -41c13 15 31 28 55 39c23 10 45 15 67 15c50 0 89 -12 118 -38c29 -25 43 -62 43 -111v-491z" />
    <glyph glyph-name="n" unicode="n" 
d="M457 0h-157v482c0 18 -5 32 -14 41c-10 9 -23 13 -40 13c-8 0 -16 -1 -26 -2c-9 -2 -17 -4 -23 -6v-528h-155v632h127l10 -28c22 13 42 22 61 28c19 5 41 8 66 8c47 0 84 -13 111 -40c26 -26 40 -63 40 -112v-488z" />
    <glyph glyph-name="o" unicode="o" horiz-adv-x="469" 
d="M443 317c0 -112 -17 -194 -52 -246c-34 -51 -86 -77 -157 -77c-68 0 -120 27 -155 81c-34 55 -52 135 -52 242c0 111 17 192 51 244c34 53 86 79 156 79c75 0 128 -27 161 -79c32 -53 48 -134 48 -244zM280 317c0 101 -2 164 -7 189c-5 24 -18 36 -39 36
c-20 0 -33 -12 -38 -38c-5 -25 -8 -88 -8 -189c0 -98 3 -160 9 -185c5 -25 18 -38 37 -38s31 14 37 40c6 27 9 89 9 185z" />
    <glyph glyph-name="p" unicode="p" horiz-adv-x="488" 
d="M458 331c0 -32 -1 -62 -2 -88s-3 -54 -6 -84c-5 -48 -21 -87 -50 -116s-66 -43 -112 -43c-24 0 -43 1 -59 4c-15 3 -26 6 -32 11v-182h-155v798h128l9 -29c18 14 37 24 58 30c21 5 44 8 69 8c41 0 74 -13 98 -38c24 -26 39 -62 46 -108c2 -18 4 -41 6 -71
c1 -30 2 -60 2 -92zM296 329c0 34 0 63 -1 87s-3 45 -5 63c-3 19 -9 33 -17 42c-8 10 -20 15 -36 15c-3 0 -3 0 0 1s-10 -2 -40 -8v-430c6 -4 12 -7 19 -9c7 -1 16 -2 28 -2c13 0 24 5 33 15c9 9 13 23 14 41c0 12 2 39 3 81c2 41 2 76 2 104z" />
    <glyph glyph-name="q" unicode="q" horiz-adv-x="488" 
d="M447 -167h-156v186c-15 -12 -28 -18 -39 -20c-12 -2 -27 -3 -46 -3c-47 0 -84 13 -112 41c-29 28 -46 68 -52 122c-3 25 -6 53 -8 83c-1 30 -2 60 -2 89c0 33 1 66 5 100c3 33 8 58 13 76c11 42 30 74 56 97c26 24 58 36 96 36c23 0 42 -3 56 -8c15 -5 28 -14 39 -27
l25 27h125v-799zM291 100v425c-6 5 -12 8 -19 11c-6 2 -13 4 -20 4c-17 0 -30 -5 -39 -14s-14 -24 -14 -47c-1 -22 -2 -44 -4 -63c-2 -20 -3 -49 -3 -87c0 -35 1 -71 2 -105c1 -35 2 -63 5 -82c2 -20 7 -34 15 -42c7 -8 18 -12 32 -12c10 0 19 1 26 3c8 2 14 5 19 9z" />
    <glyph glyph-name="r" unicode="r" horiz-adv-x="352" 
d="M346 495c-13 5 -25 8 -37 11s-25 4 -39 4c-15 0 -29 -1 -43 -3s-24 -5 -30 -10v-497h-155v632h127l10 -29c14 13 31 22 50 28s40 9 63 9c10 0 19 -1 28 -4c9 -2 18 -5 26 -9v-132z" />
    <glyph glyph-name="s" unicode="s" horiz-adv-x="396" 
d="M381 164c0 -53 -16 -95 -48 -125c-31 -29 -75 -44 -130 -44c-60 0 -105 14 -135 41c-30 28 -45 70 -45 126h126c0 -23 4 -40 12 -50c9 -11 21 -16 37 -16s28 4 35 12c8 9 12 21 12 37c0 15 -8 31 -25 49c-16 17 -43 42 -80 75c-48 41 -78 76 -91 106
c-12 31 -19 68 -19 113c0 46 16 83 48 110c32 28 75 42 127 42c56 0 99 -15 128 -43c30 -28 45 -68 45 -120h-124c0 18 -4 34 -13 45c-8 12 -20 18 -35 18c-13 0 -23 -4 -31 -11c-9 -8 -13 -19 -13 -33c0 -18 5 -34 15 -50c9 -17 39 -46 88 -90c44 -38 74 -71 91 -98
c16 -28 25 -59 25 -94z" />
    <glyph glyph-name="t" unicode="t" horiz-adv-x="332" 
d="M318 552h-96v-394c0 -29 5 -48 17 -58s34 -15 66 -15v-85h-89c-50 0 -88 12 -113 37c-26 25 -39 63 -39 115v401h-60v79h60v192h158v-192h96v-80z" />
    <glyph glyph-name="u" unicode="u" 
d="M457 0h-128l-12 29c-11 -11 -29 -20 -52 -27c-23 -6 -47 -10 -71 -10c-53 0 -91 14 -116 41c-24 27 -36 70 -36 127v472h156v-480c0 -19 4 -34 13 -43s21 -13 38 -13c9 0 18 0 28 2c9 1 17 4 24 7v527h156v-632z" />
    <glyph glyph-name="v" unicode="v" horiz-adv-x="488" 
d="M453 276c0 -25 -3 -45 -8 -61s-14 -31 -26 -46l-136 -169h-75l-170 200v432h155v-442l70 -85l33 47v480h157v-356z" />
    <glyph glyph-name="w" unicode="w" horiz-adv-x="757" 
d="M714 276c0 -25 -2 -45 -7 -61c-6 -16 -14 -31 -26 -46l-137 -169h-75l-93 111l-89 -111h-76l-169 200v432h156v-442l69 -85l34 47l-1 480h156v-442l69 -85l33 47v480h156v-356z" />
    <glyph glyph-name="x" unicode="x" horiz-adv-x="479" 
d="M447 0h-156v223l-68 68l-37 -35v-256h-154v183c0 10 3 20 10 32s16 23 28 34l100 94l-127 127v161h155v-136l65 -65l23 21v180h151v-94c0 -14 -3 -27 -9 -41s-15 -27 -27 -38l-86 -81l132 -131v-246z" />
    <glyph glyph-name="y" unicode="y" horiz-adv-x="493" 
d="M450 20c0 -63 -20 -112 -59 -145c-39 -32 -96 -49 -170 -49c-28 0 -57 3 -85 8c-29 5 -55 13 -78 24l16 73c24 -7 47 -12 68 -15c20 -3 40 -5 61 -5c33 0 58 9 74 27s24 45 24 82c0 4 -1 10 -2 18s-1 13 -1 16l-18 -23h-103l-142 169v432h155v-442l70 -85l33 47v480h157
v-612z" />
    <glyph glyph-name="z" unicode="z" horiz-adv-x="396" 
d="M379 588c0 -14 -2 -26 -5 -36s-8 -22 -15 -36l-196 -415v-9h123v78h91v-170h-323c-13 0 -25 4 -35 11c-11 8 -16 19 -16 32c0 15 2 27 5 37s8 22 14 36l197 415v9h-109v-78h-90v170h308c13 0 25 -4 35 -12c11 -7 16 -18 16 -32z" />
    <glyph glyph-name="braceleft" unicode="{" horiz-adv-x="371" 
d="M354 -167h-44c-68 0 -119 17 -154 51c-34 34 -52 84 -52 151v249c0 22 -6 38 -20 48c-14 9 -39 14 -74 14v85c35 0 59 4 73 13s21 26 21 49v128c0 66 18 117 53 151c35 35 86 52 153 52h44v-84c-32 0 -56 -7 -72 -21c-16 -13 -24 -35 -24 -65v-147c0 -35 -7 -62 -21 -81
c-15 -19 -37 -31 -67 -38c30 -7 52 -20 67 -40c14 -19 21 -45 21 -78v-268c0 -30 8 -52 24 -65c16 -14 40 -21 72 -21v-83z" />
    <glyph glyph-name="bar" unicode="|" horiz-adv-x="249" 
d="M197 -167h-139v991h139v-991z" />
    <glyph glyph-name="braceright" unicode="}" horiz-adv-x="371" 
d="M361 346c-36 0 -60 -5 -74 -14c-14 -10 -20 -26 -20 -48v-249c0 -68 -18 -119 -53 -152s-86 -50 -152 -50h-44v83c32 0 57 7 72 20c15 14 23 36 23 66v268c0 33 7 59 22 78c14 20 36 33 66 40c-32 7 -54 20 -68 40c-13 20 -20 47 -20 79v147c0 29 -8 50 -22 65
c-15 14 -40 21 -73 21v84h44c67 0 118 -17 152 -52c35 -34 53 -84 53 -151v-128c0 -24 7 -40 22 -49s39 -13 72 -13v-85z" />
    <glyph glyph-name="asciitilde" unicode="~" horiz-adv-x="488" 
d="M468 479c0 -51 -12 -94 -37 -129c-25 -34 -56 -51 -95 -51c-24 0 -43 4 -58 12c-15 9 -31 18 -47 29c-12 8 -24 15 -36 22c-13 7 -28 11 -46 11c-16 0 -28 -5 -35 -16c-7 -10 -11 -27 -11 -51h-92c0 53 13 95 40 127c26 32 60 48 102 48c17 0 34 -3 52 -8
c17 -5 34 -14 50 -27c17 -14 31 -23 43 -29c11 -7 21 -10 31 -10c16 0 28 6 36 19c8 12 11 30 11 53h92z" />
    <glyph glyph-name="exclamdown" unicode="&#xa1;" horiz-adv-x="252" 
d="M211 468h-170v172h170v-172zM209 -185h-167l26 575h112z" />
    <glyph glyph-name="cent" unicode="&#xa2;" horiz-adv-x="419" 
d="M414 518l-128 -26c-4 34 -9 60 -16 78c-8 17 -19 26 -36 26c-20 0 -33 -8 -38 -24s-8 -83 -8 -200c0 -98 3 -160 9 -186s18 -40 37 -40c14 0 25 6 33 16s16 31 23 62l111 -25c-7 -39 -21 -71 -43 -96s-51 -42 -85 -50v-100h-83v99c-54 10 -95 38 -122 83
c-27 46 -41 125 -41 237c0 94 14 167 41 220s68 85 122 97v93h83v-91c41 -5 73 -22 96 -50s38 -69 45 -123z" />
    <glyph glyph-name="sterling" unicode="&#xa3;" horiz-adv-x="475" 
d="M462 0h-448l1 92h77v386h-66v95h66v64c0 64 16 111 49 142c33 30 82 45 148 45h158v-93h-110c-25 0 -44 -6 -58 -20c-13 -14 -20 -34 -20 -60v-82h104v-91h-104v-395h98v83h105v-166z" />
    <glyph glyph-name="fraction" unicode="&#x2044;" horiz-adv-x="281" 
d="M322 824l-272 -824h-92l273 824h91z" />
    <glyph glyph-name="yen" unicode="&#xa5;" horiz-adv-x="547" 
d="M534 77h-178v-77h-166v77h-178v83h178v63h-178v83h178v45l-156 208v265h166v-239l88 -131l58 60v310h166v-214c0 -32 -13 -66 -38 -103c-26 -36 -65 -76 -118 -119v-82h178v-83h-178v-63h178v-83z" />
    <glyph glyph-name="florin" unicode="&#x192;" horiz-adv-x="350" 
d="M384 733c-20 7 -35 11 -44 13s-18 3 -26 3c-23 0 -39 -8 -48 -25c-9 -16 -13 -45 -13 -84v-8h95v-80h-95v-513c0 -70 -16 -123 -47 -158s-78 -53 -140 -53c-17 0 -35 2 -55 4c-19 3 -34 7 -45 13v93c15 -6 29 -10 41 -12c12 -3 21 -4 29 -4c23 0 39 8 48 25
c9 16 13 45 13 84v522h-53v79h53c0 70 16 123 47 158c32 35 78 53 140 53c15 0 31 -2 49 -5s35 -7 51 -12v-93z" />
    <glyph glyph-name="section" unicode="&#xa7;" horiz-adv-x="407" 
d="M400 687l-118 -24c-4 22 -11 38 -21 48c-9 11 -22 17 -36 17c-15 0 -26 -4 -35 -11c-9 -8 -13 -19 -13 -33c0 -17 6 -36 20 -55c13 -19 47 -49 101 -90c34 -25 59 -53 75 -82c17 -30 25 -63 25 -98c0 -37 -8 -68 -26 -94c-18 -25 -42 -44 -73 -56c30 -27 52 -53 66 -79
c13 -26 20 -55 20 -89c0 -52 -18 -93 -52 -123c-35 -30 -82 -45 -142 -45c-52 0 -93 11 -125 34c-31 22 -52 54 -63 95l124 27c5 -20 13 -34 24 -43c11 -8 24 -13 40 -13c19 0 34 5 43 14c10 9 15 24 15 44c0 19 -5 35 -16 46c-11 12 -44 40 -98 84c-47 38 -78 72 -93 100
c-15 29 -22 65 -22 110c0 29 10 56 30 80s46 42 79 53c-29 27 -50 54 -61 81c-11 26 -17 59 -17 97c0 40 17 74 51 102c33 27 75 41 125 41c48 0 87 -11 115 -33c29 -22 48 -57 58 -105zM275 354c0 18 -6 32 -18 45c-13 12 -27 18 -45 18c-17 0 -32 -6 -44 -18
c-12 -13 -18 -27 -18 -45c0 -17 6 -31 18 -43s27 -19 44 -19s32 7 44 19c13 12 19 26 19 43z" />
    <glyph glyph-name="currency" unicode="&#xa4;" horiz-adv-x="527" 
d="M527 189l-63 -63l-122 122c-12 -7 -24 -12 -37 -16c-13 -3 -27 -4 -41 -4s-28 1 -40 5c-13 3 -26 8 -38 15l-123 -122l-63 63l122 123c-7 12 -12 24 -15 37c-4 13 -5 26 -5 41c0 14 1 27 5 40c3 13 8 25 15 38l-122 122l63 63l122 -121c12 6 24 11 38 15c13 3 27 5 41 5
s28 -2 41 -5c13 -4 25 -9 37 -16l122 122l63 -63l-122 -122c7 -12 12 -25 15 -38c4 -12 6 -26 6 -40s-2 -28 -6 -41c-3 -13 -8 -26 -15 -37zM342 390c0 21 -8 40 -23 55s-34 23 -55 23c-22 0 -40 -8 -56 -23c-15 -15 -22 -34 -22 -55c0 -22 7 -40 22 -56
c16 -15 34 -22 56 -22c21 0 40 7 55 22c15 16 23 34 23 56z" />
    <glyph glyph-name="quotesingle" unicode="'" horiz-adv-x="195" 
d="M174 824l-21 -326h-111l-21 326h153z" />
    <glyph glyph-name="quotedblleft" unicode="&#x201c;" horiz-adv-x="504" 
d="M470 824l-49 -145h40v-172h-167v172l104 145h72zM218 824l-49 -145h40v-172h-167v172l104 145h72z" />
    <glyph glyph-name="guillemotleft" unicode="&#xab;" horiz-adv-x="478" 
d="M267 552l-121 -212l119 -208h-135l-121 210l123 210h135zM467 552l-121 -212l119 -208h-135l-121 210l123 210h135z" />
    <glyph glyph-name="guilsinglleft" unicode="&#x2039;" horiz-adv-x="287" 
d="M267 552l-121 -212l119 -208h-135l-121 210l123 210h135z" />
    <glyph glyph-name="guilsinglright" unicode="&#x203a;" horiz-adv-x="287" 
d="M278 342l-121 -210h-135l119 208l-121 212h135z" />
    <glyph glyph-name="fi" unicode="&#xfb01;" horiz-adv-x="539" 
d="M490 0h-156v552h-102v-552h-156v553h-71v79h71c0 76 14 130 42 162c28 33 76 49 145 49c12 0 26 -2 41 -4c16 -3 36 -7 59 -13v-93c-21 7 -36 12 -45 14c-8 1 -17 2 -25 2c-23 0 -39 -8 -48 -25c-9 -16 -13 -45 -13 -84v-8h258v-632z" />
    <glyph glyph-name="fl" unicode="&#xfb02;" horiz-adv-x="552" 
d="M549 0h-97c-39 0 -68 11 -88 32s-30 53 -30 95v623c-6 1 -13 3 -20 4c-6 1 -13 1 -21 1c-23 0 -39 -8 -48 -25c-9 -16 -13 -44 -13 -84v-14h73v-80h-73v-552h-156v553h-71v79h71c0 75 14 128 42 158c29 31 77 46 145 46c16 0 33 -1 51 -3c18 -1 34 -5 49 -9h127v-690
c0 -18 4 -30 12 -38c8 -7 24 -11 47 -11v-85z" />
    <glyph glyph-name="endash" unicode="&#x2013;" horiz-adv-x="500" 
d="M500 320h-500v118h500v-118z" />
    <glyph glyph-name="dagger" unicode="&#x2020;" horiz-adv-x="415" 
d="M394 482h-137l34 -81l-44 -568h-79l-44 568l34 81h-137v90h135l-17 252h137l-17 -252h135v-90z" />
    <glyph glyph-name="daggerdbl" unicode="&#x2021;" horiz-adv-x="415" 
d="M394 123h-132l15 -252h-138l19 252h-136v87h141l-34 135l34 139h-141v88h136l-19 252h138l-15 -252h132v-88h-142l35 -139l-35 -135h142v-87z" />
    <glyph glyph-name="periodcentered" unicode="&#xb7;" horiz-adv-x="252" 
d="M211 302h-171v172h171v-172z" />
    <glyph glyph-name="paragraph" unicode="&#xb6;" horiz-adv-x="571" 
d="M500 -167h-86v903h-39v-903h-86v378c-10 -9 -23 -16 -38 -21c-15 -4 -35 -7 -60 -7c-43 0 -78 14 -105 41c-27 28 -43 67 -48 118c-3 25 -6 53 -7 83c-2 30 -3 60 -3 89c0 33 2 67 5 100s8 58 13 76c11 42 30 75 56 98s58 35 96 35c22 0 42 -3 58 -9c16 -5 29 -14 39 -25
l36 36l169 -1v-991zM289 293v415c-6 5 -13 9 -20 11s-14 4 -20 4c-18 0 -31 -5 -39 -14c-9 -8 -14 -24 -17 -46c-3 -29 -5 -53 -5 -73v-78c0 -35 1 -70 2 -105s3 -62 5 -82s7 -34 15 -42c7 -8 18 -12 32 -12c9 0 17 2 25 5c7 3 14 9 22 17z" />
    <glyph glyph-name="bullet" unicode="&#x2022;" horiz-adv-x="566" 
d="M75 375c0 57 20 106 61 147c42 41 91 61 147 61c57 0 106 -20 147 -61s61 -90 61 -147c0 -56 -20 -105 -61 -146c-40 -42 -89 -62 -147 -62c-57 0 -107 20 -147 61c-41 41 -61 90 -61 147z" />
    <glyph glyph-name="quotesinglbase" unicode="&#x201a;" horiz-adv-x="252" 
d="M209 0l-132 -145h-72l78 145h-41v172h167v-172z" />
    <glyph glyph-name="quotedblbase" unicode="&#x201e;" horiz-adv-x="504" 
d="M461 0l-132 -145h-72l78 145h-41v172h167v-172zM209 0l-132 -145h-72l78 145h-41v172h167v-172z" />
    <glyph glyph-name="quotedblright" unicode="&#x201d;" horiz-adv-x="504" 
d="M461 652l-103 -145h-72l49 145h-41v172h167v-172zM209 652l-103 -145h-72l49 145h-41v172h167v-172z" />
    <glyph glyph-name="guillemotright" unicode="&#xbb;" horiz-adv-x="478" 
d="M269 342l-123 210h-136l121 -212l-119 -208h135zM469 342l-123 210h-136l122 -212l-120 -208h136z" />
    <glyph glyph-name="ellipsis" unicode="&#x2026;" horiz-adv-x="756" 
d="M212 0h-170v172h170v-172zM463 0h-171v172h171v-172zM715 0h-171v172h171v-172z" />
    <glyph glyph-name="perthousand" unicode="&#x2030;" horiz-adv-x="936" 
d="M292 577c0 -50 -10 -89 -32 -117s-53 -43 -93 -43c-39 0 -70 14 -92 41c-22 28 -33 67 -33 119v98c0 50 11 89 33 117s52 42 92 42s70 -13 92 -41c22 -27 33 -66 33 -118v-98zM603 688l-505 -601l-58 48l504 602zM607 146c0 -50 -11 -89 -33 -117s-53 -42 -93 -42
c-39 0 -69 13 -91 41c-22 27 -34 67 -34 118v98c0 50 11 89 33 118c22 28 53 42 93 42c39 0 70 -14 92 -41c22 -28 33 -67 33 -119v-98zM201 570v112c0 25 -3 42 -8 50c-5 9 -13 13 -26 13s-22 -5 -27 -14c-4 -9 -6 -26 -6 -49v-112c0 -25 2 -42 7 -51c5 -8 14 -12 26 -12
c13 0 21 4 26 12c5 9 8 26 8 51zM515 141v111c0 26 -3 42 -8 51s-13 13 -26 13s-22 -5 -27 -14c-4 -10 -6 -26 -6 -50v-111c0 -26 2 -43 7 -51s14 -12 26 -12c13 0 21 4 26 12s8 25 8 51zM898 146c0 -50 -10 -89 -32 -117s-53 -42 -93 -42c-39 0 -70 13 -92 41
c-22 27 -33 67 -33 118v98c0 50 11 89 33 118c21 28 52 42 92 42c39 0 70 -14 92 -41c22 -28 33 -67 33 -119v-98zM806 141v111c0 26 -2 42 -7 51s-14 13 -26 13c-14 0 -23 -5 -27 -14c-5 -10 -7 -26 -7 -50v-111c0 -26 3 -43 8 -51c4 -8 13 -12 25 -12c13 0 22 4 27 12
s7 25 7 51z" />
    <glyph glyph-name="questiondown" unicode="&#xbf;" horiz-adv-x="454" 
d="M349 468h-171v172h171v-172zM445 -155c-27 -14 -58 -24 -92 -31c-33 -7 -64 -11 -90 -11c-74 0 -130 19 -171 56c-40 37 -60 89 -60 157c0 23 2 45 6 67c4 23 11 44 19 65c8 18 17 36 28 55c11 18 24 36 39 54c12 16 26 31 42 46c16 16 33 32 52 49v67h117v-116
c-24 -26 -45 -50 -63 -72c-17 -21 -30 -41 -40 -60c-12 -22 -21 -45 -27 -69s-9 -50 -9 -76c0 -39 8 -68 23 -88c15 -19 39 -29 70 -29c23 0 47 3 69 8c23 5 45 13 66 23z" />
    <glyph glyph-name="grave" unicode="`" horiz-adv-x="500" 
d="M375 664h-125l-146 160h147z" />
    <glyph glyph-name="acute" unicode="&#xb4;" horiz-adv-x="500" 
d="M395 824l-146 -160h-125l124 160h147z" />
    <glyph glyph-name="circumflex" unicode="&#x2c6;" horiz-adv-x="500" 
d="M452 664h-115l-87 77l-87 -77h-115l146 160h112z" />
    <glyph glyph-name="tilde" unicode="&#x2dc;" horiz-adv-x="500" 
d="M443 756c-7 -27 -23 -50 -48 -69c-26 -19 -53 -28 -83 -28c-19 0 -35 2 -49 6c-13 4 -27 11 -40 21s-25 17 -36 21c-10 3 -22 5 -36 5c-7 0 -14 -1 -20 -3s-11 -5 -16 -9c-3 -2 -6 -5 -8 -9c-3 -4 -6 -8 -9 -13l-44 28c7 28 23 51 49 69c25 19 52 28 82 28
c19 0 35 -2 49 -6s27 -11 40 -21c13 -9 25 -16 36 -20c10 -4 23 -6 36 -6c8 0 15 1 21 3c6 1 12 4 16 8c4 3 7 6 10 10s5 8 6 13z" />
    <glyph glyph-name="macron" unicode="&#xaf;" horiz-adv-x="500" 
d="M411 674h-321v119h321v-119z" />
    <glyph glyph-name="breve" unicode="&#x2d8;" horiz-adv-x="500" 
d="M434 824c0 -22 -5 -43 -15 -62c-9 -19 -23 -37 -43 -53c-18 -15 -37 -27 -58 -34c-21 -8 -44 -12 -68 -12c-53 0 -97 15 -131 46c-34 30 -52 69 -52 115h90c1 -11 4 -20 9 -28c4 -7 11 -14 20 -19c7 -4 17 -7 28 -9s23 -3 36 -3c14 0 27 1 37 3c11 2 20 5 28 9
c9 5 16 12 20 19c5 8 8 17 9 28h90z" />
    <glyph glyph-name="dotaccent" unicode="&#x2d9;" horiz-adv-x="500" 
d="M328 664h-156v154h156v-154z" />
    <glyph glyph-name="dieresis" unicode="&#xa8;" horiz-adv-x="500" 
d="M447 664h-141v141h141v-141zM192 664h-142v141h142v-141z" />
    <glyph glyph-name="ring" unicode="&#x2da;" horiz-adv-x="500" 
d="M382 772c0 -33 -13 -61 -38 -84c-26 -24 -57 -36 -94 -36s-68 12 -94 35c-25 24 -38 52 -38 85c0 34 13 62 38 85c26 24 57 36 94 36s68 -12 94 -36c25 -23 38 -51 38 -85zM294 772c0 13 -4 23 -13 31c-8 8 -18 12 -31 12c-12 0 -23 -4 -31 -12c-9 -9 -13 -19 -13 -31
s4 -22 13 -30c8 -8 18 -13 31 -13c12 0 23 5 31 13c9 9 13 19 13 30z" />
    <glyph glyph-name="cedilla" unicode="&#xb8;" horiz-adv-x="500" 
d="M375 -104c0 -37 -12 -65 -36 -85c-24 -19 -60 -29 -108 -29c-8 0 -17 1 -26 2c-8 2 -17 4 -25 7v83c5 -3 12 -5 22 -7c10 -3 19 -4 26 -4c12 0 21 3 28 9s10 14 10 26s-4 21 -11 26c-8 5 -17 7 -28 7h-37v93h80v-30c20 -3 37 -7 52 -13c14 -6 25 -14 32 -23
c7 -7 12 -16 16 -27c3 -10 5 -22 5 -35z" />
    <glyph glyph-name="hungarumlaut" unicode="&#x2dd;" horiz-adv-x="500" 
d="M508 824l-136 -160h-111l104 160h143zM310 824l-137 -160h-110l104 160h143z" />
    <glyph glyph-name="ogonek" unicode="&#x2db;" horiz-adv-x="500" 
d="M315 -209c-7 -3 -16 -5 -26 -6c-10 -2 -18 -3 -26 -3c-46 0 -82 11 -106 34c-25 22 -37 52 -37 90c0 16 4 33 12 48c8 16 19 32 35 46c12 12 24 21 36 29s24 14 36 19l65 -48c-25 -11 -44 -24 -58 -40c-13 -16 -20 -30 -20 -44c0 -17 3 -29 11 -38c7 -8 17 -12 30 -12
c9 0 18 1 26 2s16 3 22 6v-83z" />
    <glyph glyph-name="caron" unicode="&#x2c7;" horiz-adv-x="500" 
d="M452 824l-146 -160h-112l-146 160h115l87 -77l87 77h115z" />
    <glyph glyph-name="emdash" unicode="&#x2014;" horiz-adv-x="747" 
d="M664 320h-581v118h581v-118z" />
    <glyph glyph-name="AE" unicode="&#xc6;" horiz-adv-x="807" 
d="M784 0h-214c-70 0 -123 17 -158 52c-36 35 -54 88 -54 159v232h-136v-443h-166v608c0 72 20 127 60 166c41 39 99 59 175 59c30 0 58 -3 82 -9s46 -15 64 -27c18 11 38 18 58 22c21 3 48 5 81 5h187v-93h-143c-34 0 -58 -8 -73 -24s-23 -43 -23 -80l1 -74h197v-111h-197
l-1 -212c0 -49 9 -84 25 -105c17 -22 46 -32 87 -32h148v-93zM359 642c0 34 -5 59 -16 73c-10 14 -27 21 -51 21c-26 0 -44 -7 -54 -21c-11 -14 -16 -38 -16 -73v-90h136z" />
    <glyph glyph-name="ordfeminine" unicode="&#xaa;" horiz-adv-x="366" 
d="M345 441h-106l-10 23c-11 -8 -23 -15 -36 -19c-14 -5 -31 -7 -51 -7c-44 0 -76 12 -98 35c-22 24 -33 60 -33 108s11 84 33 108s58 36 107 36c14 0 27 -3 41 -7s23 -10 28 -18v11c0 14 -4 25 -13 32c-9 8 -23 11 -41 11c-20 0 -38 -1 -53 -4c-16 -3 -32 -8 -50 -16v72
c20 6 41 11 66 15c24 3 48 4 72 4c45 0 80 -9 106 -28c25 -19 38 -45 38 -79v-277zM223 579c0 21 -4 38 -11 49c-8 12 -19 18 -33 18c-15 0 -25 -6 -33 -19c-7 -12 -10 -28 -10 -48c0 -19 4 -35 11 -48c8 -12 18 -19 32 -19c13 0 24 7 32 20s12 29 12 47z" />
    <glyph glyph-name="Lslash" unicode="&#x141;" horiz-adv-x="469" 
d="M466 0h-208c-64 0 -113 17 -146 52c-34 34 -51 83 -51 146v626h166v-620c0 -45 8 -75 24 -89c17 -15 40 -22 69 -22h146v-93zM383 483l-379 -242v98l379 242v-98z" />
    <glyph glyph-name="Oslash" unicode="&#xd8;" horiz-adv-x="549" 
d="M519 411c0 -168 -21 -280 -61 -338c-41 -57 -102 -86 -183 -86s-142 29 -183 86c-41 58 -61 171 -61 338c0 169 20 281 61 338c41 56 102 84 183 84c82 0 143 -26 183 -77c41 -51 61 -166 61 -345zM347 411c0 99 -3 175 -10 228s-27 79 -62 79c-34 0 -55 -27 -62 -80
c-7 -54 -11 -129 -11 -227c0 -111 4 -190 12 -238c7 -48 28 -71 61 -71c36 0 56 26 63 79c6 54 9 130 9 230zM544 859l-463 -924l-80 37l459 921z" />
    <glyph glyph-name="OE" unicode="&#x152;" horiz-adv-x="830" 
d="M807 0h-214c-36 0 -67 5 -91 15c-25 10 -41 22 -49 37c-14 -19 -35 -34 -63 -45c-28 -10 -60 -15 -98 -15c-85 0 -151 28 -195 84s-66 168 -66 335c0 168 22 280 65 336c44 57 109 85 196 85c38 0 70 -5 96 -14s45 -22 59 -39c11 16 30 28 54 35s57 10 98 10h187v-93
h-143c-34 0 -58 -7 -73 -21s-23 -43 -23 -86v-71h198v-111h-198v-212c0 -49 9 -84 25 -105c17 -22 46 -32 87 -32h148v-93zM381 411c0 98 -4 173 -12 226c-8 54 -33 80 -76 80c-42 0 -68 -27 -77 -81s-14 -129 -14 -225c0 -99 4 -174 13 -226c8 -52 34 -79 78 -79
c42 0 67 27 76 79c8 53 12 128 12 226z" />
    <glyph glyph-name="ordmasculine" unicode="&#xba;" horiz-adv-x="362" 
d="M347 631c0 -59 -15 -106 -45 -141s-70 -53 -122 -53s-93 17 -122 51s-43 82 -43 143c0 62 14 110 44 143c29 34 69 50 121 50c51 0 91 -17 122 -51c30 -34 45 -82 45 -142zM217 631c0 43 -2 72 -7 85c-4 14 -14 21 -30 21c-15 0 -25 -8 -30 -23c-4 -15 -6 -44 -6 -85
c0 -40 2 -68 7 -82c5 -15 15 -23 29 -23s24 8 29 24c5 15 8 43 8 83z" />
    <glyph glyph-name="ae" unicode="&#xe6;" horiz-adv-x="687" 
d="M666 308h-228c0 -93 4 -152 11 -178c7 -25 22 -38 45 -38c15 0 27 5 34 15c8 9 12 26 12 50h111c0 -53 -15 -94 -46 -121c-30 -28 -73 -42 -128 -42c-32 0 -58 5 -78 14c-21 9 -38 24 -52 45c-16 -19 -37 -33 -62 -43c-26 -11 -54 -16 -83 -16c-60 0 -104 20 -134 58
c-29 39 -44 98 -44 176c0 80 15 140 44 177c30 38 76 57 138 57c19 0 36 -3 51 -9c14 -7 25 -15 33 -24v45c0 23 -6 41 -18 53c-12 13 -30 19 -54 19c-25 0 -47 -3 -67 -8c-19 -5 -39 -14 -61 -26v95c23 11 48 19 77 25c28 5 60 8 95 8c23 0 45 -5 66 -13
c21 -9 37 -20 48 -33c15 16 32 28 50 35s39 11 63 11c61 0 105 -22 134 -66c29 -43 43 -108 43 -195v-71zM537 398c0 55 -3 93 -9 113c-6 21 -19 31 -40 31c-20 0 -34 -9 -40 -27s-9 -57 -9 -117h98zM307 127c-7 17 -12 45 -14 84s-3 81 -3 124c-4 11 -9 19 -18 25
c-8 6 -18 9 -31 9c-12 0 -21 -3 -29 -9s-15 -15 -19 -27c-4 -11 -7 -25 -9 -43c-3 -17 -4 -39 -4 -65c0 -31 1 -55 3 -74s5 -33 9 -43c4 -9 9 -16 16 -20c8 -5 16 -7 26 -7c20 0 35 4 45 12c11 7 20 19 28 34z" />
    <glyph glyph-name="dotlessi" unicode="&#x131;" horiz-adv-x="254" 
d="M205 0h-156v632h156v-632z" />
    <glyph glyph-name="lslash" unicode="&#x142;" horiz-adv-x="278" 
d="M266 0h-98c-38 0 -67 11 -87 32s-30 53 -30 95v697h156v-690c0 -18 4 -30 12 -38c8 -7 24 -11 47 -11v-85zM279 444l-294 -191v98l294 191v-98z" />
    <glyph glyph-name="oslash" unicode="&#xf8;" horiz-adv-x="469" 
d="M443 317c0 -112 -17 -194 -52 -246c-34 -51 -86 -77 -157 -77c-68 0 -120 27 -155 81c-34 55 -52 135 -52 242c0 111 17 192 51 244c34 53 86 79 156 79c75 0 128 -27 161 -79c32 -53 48 -134 48 -244zM280 317c0 101 -2 164 -7 189c-5 24 -18 36 -39 36
c-20 0 -33 -12 -38 -38c-5 -25 -8 -88 -8 -189c0 -98 3 -160 9 -185c5 -25 18 -38 37 -38s31 14 37 40c6 27 9 89 9 185zM465 693l-391 -764l-66 35l390 764z" />
    <glyph glyph-name="oe" unicode="&#x153;" horiz-adv-x="672" 
d="M654 308h-228c0 -87 4 -145 10 -173c7 -29 21 -44 42 -44c20 0 33 6 40 16c6 11 9 28 9 50h112c-5 -53 -19 -93 -45 -121c-25 -28 -60 -42 -105 -42c-36 0 -64 4 -84 13c-21 9 -38 23 -52 43c-19 -23 -37 -38 -54 -45s-38 -11 -65 -11c-68 0 -120 27 -155 81
c-34 55 -52 135 -52 242c0 111 17 192 51 244c34 53 86 79 156 79c26 0 46 -3 60 -8c15 -5 35 -20 60 -45c16 20 34 34 53 41c19 8 42 12 70 12c60 0 105 -22 134 -66c28 -43 43 -108 43 -195v-71zM525 398c0 55 -3 93 -9 113c-6 21 -19 31 -40 31s-34 -9 -40 -27
s-9 -57 -9 -117h98zM280 317c0 101 -2 164 -7 189c-5 24 -18 36 -39 36c-20 0 -33 -12 -38 -38c-5 -25 -8 -88 -8 -189c0 -98 3 -160 9 -185c5 -25 18 -38 37 -38s31 14 37 40c6 27 9 89 9 185z" />
    <glyph glyph-name="germandbls" unicode="&#xdf;" horiz-adv-x="649" 
d="M630 164c0 -52 -17 -93 -52 -123c-34 -30 -82 -45 -141 -45c-52 0 -94 11 -125 34c-32 22 -53 54 -63 95l124 27c5 -20 13 -34 24 -43c11 -8 24 -13 40 -13c19 0 33 5 43 14s15 24 15 44s-11 40 -34 60c-22 20 -48 44 -80 70c-46 37 -78 71 -95 102s-25 67 -25 108
c0 20 3 40 8 58c6 17 17 36 32 54c18 21 30 39 37 52c7 14 11 25 11 34c0 14 -5 26 -15 36c-10 9 -22 14 -38 14c-23 0 -40 -9 -49 -27c-10 -18 -15 -47 -15 -87v-766h-156v752c0 72 19 128 56 168c37 41 90 61 159 61c56 0 101 -13 135 -38c33 -25 50 -58 50 -99
c0 -19 -4 -38 -11 -55c-8 -18 -20 -40 -38 -64c-14 -18 -24 -33 -29 -45c-6 -13 -8 -24 -8 -33c0 -23 6 -43 19 -61c13 -17 48 -47 106 -92c41 -32 71 -63 89 -92s26 -63 26 -100z" />
    <glyph glyph-name="Eth" unicode="&#xd0;" horiz-adv-x="564" 
d="M527 416c0 -158 -20 -267 -60 -326c-41 -60 -111 -90 -213 -90h-193v824h165c120 0 200 -29 241 -88c40 -58 60 -165 60 -320zM356 408c0 124 -7 210 -22 256c-14 47 -40 70 -78 70h-29v-644h29c38 0 64 14 78 41c15 28 22 120 22 277zM322 450h-318v103h318v-103z" />
    <glyph glyph-name="eth" unicode="&#xf0;" horiz-adv-x="479" 
d="M442 329c0 -58 -4 -109 -13 -152s-22 -78 -39 -105c-16 -26 -38 -45 -64 -58c-25 -13 -56 -20 -91 -20c-32 0 -61 6 -86 18s-46 30 -64 53c-19 26 -33 57 -43 95c-9 38 -14 82 -14 132c0 54 4 100 12 138c7 39 18 69 33 92c13 21 30 37 51 47s46 15 75 15
c21 0 39 -4 54 -11c15 -8 25 -18 31 -31c1 9 1 15 2 18v22c0 18 -3 36 -10 52s-18 30 -32 44c-13 12 -29 23 -48 32s-40 16 -65 21l35 93c38 -9 71 -20 100 -34s53 -30 73 -49c19 -19 36 -42 50 -68c13 -27 24 -57 32 -91c7 -30 12 -67 16 -109c3 -42 5 -90 5 -144zM280 289
c0 86 -2 141 -8 163c-6 23 -18 34 -37 34c-20 0 -32 -11 -37 -34c-6 -23 -9 -77 -9 -164c0 -84 3 -138 9 -161c6 -24 18 -35 37 -35c18 0 31 12 36 37c6 25 9 78 9 160zM396 754l-241 -157v81l241 156v-80z" />
    <glyph glyph-name="Scaron" unicode="&#x160;" horiz-adv-x="466" 
d="M459 220c0 -77 -20 -135 -59 -174s-96 -59 -172 -59c-68 0 -121 18 -159 53c-39 35 -58 86 -58 152h155c0 -27 5 -48 16 -63s28 -22 50 -22s40 7 52 20c13 13 19 31 19 55s-5 46 -14 66c-10 19 -25 39 -44 60c-11 11 -35 33 -73 67c-39 35 -61 55 -68 61
c-30 29 -52 60 -66 91s-21 65 -21 101c0 62 20 112 59 149c40 37 91 56 154 56s113 -18 149 -54s55 -86 55 -149h-156c0 27 -5 48 -14 62c-10 14 -25 21 -45 21c-17 0 -30 -5 -39 -16s-13 -27 -13 -46c0 -15 4 -30 12 -45c9 -14 25 -32 49 -54c3 -3 25 -21 64 -55
c40 -34 69 -60 85 -78c30 -31 51 -62 63 -94c13 -31 19 -66 19 -105zM420 1022l-146 -160h-112l-146 160h115l87 -77l87 77h115z" />
    <glyph glyph-name="scaron" unicode="&#x161;" horiz-adv-x="414" 
d="M381 164c0 -53 -16 -95 -48 -125c-31 -29 -75 -44 -130 -44c-60 0 -105 14 -135 41c-30 28 -45 70 -45 126h126c0 -23 4 -40 12 -50c9 -11 21 -16 37 -16s28 4 35 12c8 9 12 21 12 37c0 15 -8 31 -25 49c-16 17 -43 42 -80 75c-48 41 -78 76 -91 106
c-12 31 -19 68 -19 113c0 46 16 83 48 110c32 28 75 42 127 42c56 0 99 -15 128 -43c30 -28 45 -68 45 -120h-124c0 18 -4 34 -13 45c-8 12 -20 18 -35 18c-13 0 -23 -4 -31 -11c-9 -8 -13 -19 -13 -33c0 -18 5 -34 15 -50c9 -17 39 -46 88 -90c44 -38 74 -71 91 -98
c16 -28 25 -59 25 -94zM427 824l-146 -160h-112l-146 160h115l87 -77l87 77h115z" />
    <glyph glyph-name="Yacute" unicode="&#xdd;" horiz-adv-x="544" 
d="M512 581c0 -32 -13 -67 -38 -103c-26 -36 -65 -76 -118 -119v-359h-166v322l-156 208v294h166v-268l88 -131l58 60v339h166v-243zM457 1023l-146 -160h-125l124 160h147z" />
    <glyph glyph-name="yacute" unicode="&#xfd;" horiz-adv-x="493" 
d="M450 20c0 -63 -20 -112 -59 -145c-39 -32 -96 -49 -170 -49c-28 0 -57 3 -85 8c-29 5 -55 13 -78 24l16 73c24 -7 47 -12 68 -15c20 -3 40 -5 61 -5c33 0 58 9 74 27s24 45 24 82c0 4 -1 10 -2 18s-1 13 -1 16l-18 -23h-103l-142 169v432h155v-442l70 -85l33 47v480h157
v-612zM425 824l-146 -160h-125l124 160h147z" />
    <glyph glyph-name="HT" horiz-adv-x="231" 
 />
    <glyph glyph-name="Thorn" unicode="&#xde;" horiz-adv-x="552" 
d="M520 462c0 -74 -17 -130 -52 -167s-88 -55 -159 -55h-82v-240h-166v824l166 1v-139l94 -1c70 0 121 -18 152 -52s47 -91 47 -171zM354 462c0 45 -7 77 -22 99c-15 21 -38 31 -69 31h-36v-259h36c31 0 54 9 69 29s22 53 22 100z" />
    <glyph glyph-name="thorn" unicode="&#xfe;" horiz-adv-x="488" 
d="M458 331c0 -32 -1 -62 -2 -88s-3 -54 -6 -84c-5 -50 -22 -90 -51 -119c-29 -30 -69 -44 -120 -44c-24 0 -41 2 -52 6c-12 4 -21 10 -30 19v-188h-155v991h155v-215c11 9 26 16 46 22c19 6 40 9 63 9c41 0 73 -13 97 -37s39 -61 46 -109c2 -19 5 -43 6 -73
c2 -29 3 -59 3 -90zM296 329c0 21 0 44 -1 70c-1 25 -2 51 -4 78c-2 26 -7 43 -16 50c-8 7 -21 10 -38 10c-6 0 -12 0 -19 -2c-6 -1 -13 -2 -21 -5v-432c4 -4 11 -7 18 -9c8 -3 17 -4 28 -4c13 0 24 5 33 14c8 9 13 24 15 45c1 12 3 39 4 81c1 41 1 76 1 104z" />
    <glyph glyph-name="CR" horiz-adv-x="249" 
 />
    <glyph glyph-name="Zcaron" unicode="&#x17d;" 
d="M465 779c0 -12 -3 -29 -9 -48c-7 -20 -16 -43 -28 -70l-241 -569h152v88h116v-180h-377c-23 0 -39 4 -49 13c-10 8 -15 21 -15 38c0 9 1 17 3 25s6 22 14 41l255 614h-131v-85h-109v178h366c17 0 30 -4 39 -12c10 -8 14 -19 14 -33zM446 1023l-146 -160h-112l-146 160
h115l87 -77l87 77h115z" />
    <glyph glyph-name="zcaron" unicode="&#x17e;" horiz-adv-x="396" 
d="M379 588c0 -14 -2 -26 -5 -36s-8 -22 -15 -36l-196 -415v-9h123v78h91v-170h-323c-13 0 -25 4 -35 11c-11 8 -16 19 -16 32c0 15 2 27 5 37s8 22 14 36l197 415v9h-109v-78h-90v170h308c13 0 25 -4 35 -12c11 -7 16 -18 16 -32zM407 824l-146 -160h-112l-146 160h115
l87 -77l87 77h115z" />
    <glyph glyph-name="onehalf" unicode="&#xbd;" horiz-adv-x="726" 
d="M217 342h-125v377l-81 -10v84l129 31h77v-482zM702 0h-265v77c50 52 86 97 110 135s36 83 36 135c0 14 -5 27 -13 38c-8 10 -22 16 -43 16c-19 0 -34 -2 -45 -7c-10 -5 -21 -11 -32 -20l-24 77c12 7 29 14 53 21c23 6 49 9 79 9c40 0 73 -11 98 -33c25 -21 37 -53 37 -94
c0 -62 -15 -114 -44 -157c-29 -42 -69 -82 -122 -119h85v47h90v-125zM521 824l-272 -824h-92l272 824h92z" />
    <glyph glyph-name="onequarter" unicode="&#xbc;" horiz-adv-x="726" 
d="M205 342h-124v377l-81 -10v84l128 31h77v-482zM734 107h-55v-107h-121v107h-178v93l178 281h121v-293h55v-81zM558 185v179l-110 -179h110zM514 824l-272 -824h-92l272 824h92z" />
    <glyph glyph-name="onesuperior" unicode="&#xb9;" horiz-adv-x="313" 
d="M249 342h-124v377l-82 -10v84l129 31h77v-482z" />
    <glyph glyph-name="threequarters" unicode="&#xbe;" horiz-adv-x="726" 
d="M292 503c0 -48 -16 -86 -46 -116c-30 -29 -75 -44 -133 -44c-18 0 -37 2 -57 4c-20 3 -38 8 -54 17l11 84c10 -9 23 -15 40 -19c16 -4 32 -6 49 -6s33 6 48 16c14 11 22 31 22 61c0 28 -7 48 -20 59c-14 11 -31 17 -52 17h-37v78c35 0 62 5 79 14c18 9 26 22 26 37
c0 17 -3 29 -11 36s-22 10 -42 10c-18 0 -36 -2 -53 -7c-18 -5 -32 -11 -43 -18l-11 73c12 6 30 12 53 17c23 6 45 8 65 8c50 0 89 -8 114 -26c26 -17 39 -42 39 -75c0 -32 -9 -55 -28 -70c-18 -15 -40 -25 -66 -29c29 -4 54 -16 75 -36s32 -48 32 -85zM740 107h-55v-107
h-121v107h-178v93l177 281h122v-293h55v-81zM564 185v179l-110 -179h110zM539 824l-272 -824h-92l273 824h91z" />
    <glyph glyph-name="threesuperior" unicode="&#xb3;" horiz-adv-x="325" 
d="M312 503c0 -48 -15 -86 -45 -116c-31 -29 -75 -44 -134 -44c-18 0 -36 2 -56 4c-20 3 -38 8 -55 17l12 84c10 -9 23 -15 39 -19c17 -4 33 -6 50 -6c16 0 32 6 47 16c15 11 22 31 22 61c0 28 -6 48 -20 59c-13 11 -31 17 -51 17h-37v78c35 0 61 5 79 14c17 9 26 22 26 37
c0 17 -4 29 -12 36s-22 10 -42 10c-18 0 -35 -2 -53 -7s-32 -11 -42 -18l-11 73c12 6 29 12 53 17c23 6 44 8 64 8c51 0 89 -8 115 -26c25 -17 38 -42 38 -75c0 -32 -9 -55 -27 -70s-40 -25 -66 -29c28 -4 53 -16 74 -36s32 -48 32 -85z" />
    <glyph glyph-name="twosuperior" unicode="&#xb2;" horiz-adv-x="317" 
d="M293 342h-264v78c49 51 86 96 110 135c23 38 35 83 35 134c0 15 -4 27 -12 38s-22 17 -43 17c-19 0 -34 -3 -45 -7c-11 -5 -21 -11 -32 -20l-24 76c12 8 29 15 53 21c23 7 49 10 79 10c40 0 73 -11 98 -33c24 -22 37 -53 37 -95c0 -61 -15 -113 -44 -156
s-70 -82 -122 -120h85v48h89v-126z" />
    <glyph glyph-name="brokenbar" unicode="&#xa6;" horiz-adv-x="416" 
d="M279 387h-144v437h144v-437zM279 -167h-144v438h144v-438z" />
    <glyph glyph-name="minus" unicode="&#x2212;" horiz-adv-x="459" 
d="M436 317h-416v123h416v-123z" />
    <glyph glyph-name="multiply" unicode="&#xd7;" horiz-adv-x="459" 
d="M453 225l-78 -78l-146 145l-145 -145l-78 78l146 145l-145 145l77 78l145 -145l146 145l77 -78l-145 -145z" />
    <glyph glyph-name="Adieresis" unicode="&#xc4;" horiz-adv-x="576" 
d="M520 0h-166v443h-132v-443h-166v608c0 73 20 129 59 167c40 39 98 58 173 58c81 0 140 -18 177 -54s55 -93 55 -171v-608zM354 552v90c0 34 -5 59 -15 73s-26 21 -50 21c-26 0 -43 -7 -53 -21c-9 -14 -14 -38 -14 -73v-90h132zM485 863h-141v141h141v-141zM230 863h-142
v141h142v-141z" />
    <glyph glyph-name="Aring" unicode="&#xc5;" horiz-adv-x="576" 
d="M520 0h-166v443h-132v-443h-166v608c0 57 12 103 37 139c24 37 60 61 106 75c-18 15 -32 31 -40 49s-12 38 -12 59c0 38 14 72 43 101s63 43 101 43c39 0 73 -14 102 -43c28 -29 42 -63 42 -101c0 -19 -4 -39 -11 -60c-8 -20 -20 -36 -36 -49c46 -13 79 -37 100 -72
s32 -82 32 -141v-608zM357 930c0 18 -6 34 -19 47c-12 13 -28 19 -47 19c-18 0 -33 -6 -46 -19s-20 -29 -20 -47c0 -19 7 -35 19 -48c13 -12 29 -18 49 -18c18 0 33 6 45 18c13 13 19 29 19 48zM354 552v90c0 34 -5 58 -15 72c-10 15 -26 22 -50 22c-25 0 -43 -7 -52 -21
c-10 -14 -15 -38 -15 -73v-90h132z" />
    <glyph glyph-name="Ccedilla" unicode="&#xc7;" horiz-adv-x="488" 
d="M477 600h-171c0 41 -3 71 -8 89c-6 18 -19 27 -39 27c-21 0 -35 -20 -44 -59c-9 -40 -13 -120 -13 -240s5 -203 15 -248s29 -67 56 -67c15 0 26 3 33 10c8 7 13 27 17 59h150c-4 -19 -8 -35 -13 -50s-10 -28 -16 -39c-15 -32 -37 -56 -63 -72c-26 -15 -63 -23 -111 -23
c-54 0 -97 13 -130 39c-34 26 -59 66 -77 121c-11 33 -19 72 -24 117c-6 45 -8 97 -8 154c0 75 5 140 15 194s25 98 45 130c19 30 44 53 73 68c30 15 65 23 106 23c36 0 68 -5 94 -16c27 -11 49 -28 66 -49c16 -20 28 -44 35 -72c8 -28 12 -60 12 -96zM400 -125
c0 -37 -12 -65 -36 -85c-24 -19 -60 -29 -108 -29c-8 0 -17 1 -26 2c-8 2 -17 4 -25 7v83c5 -3 12 -5 22 -7c10 -3 19 -4 26 -4c12 0 21 3 28 9s10 14 10 26s-4 21 -11 26c-8 5 -17 7 -28 7h-37v93h80v-30c20 -3 37 -7 52 -13c14 -6 25 -14 32 -23c7 -7 12 -16 16 -27
c3 -10 5 -22 5 -35z" />
    <glyph glyph-name="Eacute" unicode="&#xc9;" horiz-adv-x="483" 
d="M462 0h-190c-70 0 -122 17 -158 52c-35 35 -53 88 -53 159v401c0 84 15 141 46 169c31 29 88 43 171 43h163v-93h-119c-36 0 -61 -8 -75 -23c-13 -16 -20 -44 -20 -84v-71h197v-111h-197v-212c0 -49 8 -84 25 -105c17 -22 45 -32 86 -32h124v-93zM454 1023l-146 -160
h-125l124 160h147z" />
    <glyph glyph-name="Ntilde" unicode="&#xd1;" horiz-adv-x="549" 
d="M504 0h-166v652c0 25 -7 43 -20 56c-13 12 -33 18 -61 18h-30v-726h-166v824h132l18 -36c15 12 33 22 55 27c22 6 45 9 71 9c52 0 93 -14 123 -44c29 -29 44 -70 44 -121v-659zM468 960c-7 -27 -23 -50 -48 -69c-26 -19 -53 -28 -83 -28c-19 0 -35 2 -49 6
c-13 4 -27 11 -40 21s-25 17 -36 21c-10 3 -22 5 -36 5c-7 0 -14 -1 -20 -3s-11 -5 -16 -9c-3 -2 -6 -5 -8 -9c-3 -4 -6 -8 -9 -13l-44 28c7 28 23 51 49 69c25 19 52 28 82 28c19 0 35 -2 49 -6s27 -11 40 -21c13 -9 25 -16 36 -20c10 -4 23 -6 36 -6c8 0 15 1 21 3
c6 1 12 4 16 8c4 3 7 6 10 10s5 8 6 13z" />
    <glyph glyph-name="Odieresis" unicode="&#xd6;" horiz-adv-x="549" 
d="M519 411c0 -168 -21 -280 -61 -338c-41 -57 -102 -86 -183 -86s-142 29 -183 86c-41 58 -61 171 -61 338c0 169 20 281 61 338c41 56 102 84 183 84c82 0 143 -26 183 -77c41 -51 61 -166 61 -345zM347 411c0 99 -3 175 -10 228s-27 79 -62 79c-34 0 -55 -27 -62 -80
c-7 -54 -11 -129 -11 -227c0 -111 4 -190 12 -238c7 -48 28 -71 61 -71c36 0 56 26 63 79c6 54 9 130 9 230zM471 862h-141v141h141v-141zM216 862h-142v141h142v-141z" />
    <glyph glyph-name="Udieresis" unicode="&#xdc;" horiz-adv-x="566" 
d="M511 227c0 -81 -18 -142 -56 -181c-37 -39 -94 -59 -171 -59c-74 0 -130 20 -169 61s-59 100 -59 179v597h166v-593c0 -45 4 -77 13 -95c9 -19 25 -28 49 -28c23 0 39 9 48 26c9 18 13 50 13 97v593h166v-597zM479 862h-141v141h141v-141zM224 862h-142v141h142v-141z
" />
    <glyph glyph-name="aacute" unicode="&#xe1;" horiz-adv-x="483" 
d="M442 0h-128l-15 26c-10 -10 -25 -18 -44 -24c-18 -5 -40 -8 -67 -8c-48 0 -87 21 -118 62c-30 42 -46 99 -46 172c0 80 15 140 44 177c30 38 76 57 138 57c19 0 36 -3 51 -9c14 -7 25 -15 33 -24v45c0 22 -7 39 -19 52s-30 20 -53 20c-25 0 -47 -3 -67 -8
c-19 -5 -39 -14 -61 -26v95c25 12 52 20 81 25s59 8 91 8c56 0 100 -16 132 -48c32 -31 48 -75 48 -132v-460zM290 102v233c-4 11 -9 19 -18 25c-8 6 -18 9 -31 9c-21 0 -37 -11 -46 -33c-10 -21 -15 -58 -15 -111c0 -61 4 -100 12 -118c8 -17 22 -26 42 -26c11 0 22 2 33 6
c10 5 18 10 23 15zM441 824l-146 -160h-125l124 160h147z" />
    <glyph glyph-name="agrave" unicode="&#xe0;" horiz-adv-x="483" 
d="M442 0h-128l-15 26c-10 -10 -25 -18 -44 -24c-18 -5 -40 -8 -67 -8c-48 0 -87 21 -118 62c-30 42 -46 99 -46 172c0 80 15 140 44 177c30 38 76 57 138 57c19 0 36 -3 51 -9c14 -7 25 -15 33 -24v45c0 22 -7 39 -19 52s-30 20 -53 20c-25 0 -47 -3 -67 -8
c-19 -5 -39 -14 -61 -26v95c25 12 52 20 81 25s59 8 91 8c56 0 100 -16 132 -48c32 -31 48 -75 48 -132v-460zM290 102v233c-4 11 -9 19 -18 25c-8 6 -18 9 -31 9c-21 0 -37 -11 -46 -33c-10 -21 -15 -58 -15 -111c0 -61 4 -100 12 -118c8 -17 22 -26 42 -26c11 0 22 2 33 6
c10 5 18 10 23 15zM360 664h-125l-146 160h147z" />
    <glyph glyph-name="acircumflex" unicode="&#xe2;" horiz-adv-x="483" 
d="M442 0h-128l-15 26c-10 -10 -25 -18 -44 -24c-18 -5 -40 -8 -67 -8c-48 0 -87 21 -118 62c-30 42 -46 99 -46 172c0 80 15 140 44 177c30 38 76 57 138 57c19 0 36 -3 51 -9c14 -7 25 -15 33 -24v45c0 22 -7 39 -19 52s-30 20 -53 20c-25 0 -47 -3 -67 -8
c-19 -5 -39 -14 -61 -26v95c25 12 52 20 81 25s59 8 91 8c56 0 100 -16 132 -48c32 -31 48 -75 48 -132v-460zM290 102v233c-4 11 -9 19 -18 25c-8 6 -18 9 -31 9c-21 0 -37 -11 -46 -33c-10 -21 -15 -58 -15 -111c0 -61 4 -100 12 -118c8 -17 22 -26 42 -26c11 0 22 2 33 6
c10 5 18 10 23 15zM451 664h-115l-87 77l-87 -77h-115l146 160h112z" />
    <glyph glyph-name="adieresis" unicode="&#xe4;" horiz-adv-x="483" 
d="M442 0h-128l-15 26c-10 -10 -25 -18 -44 -24c-18 -5 -40 -8 -67 -8c-48 0 -87 21 -118 62c-30 42 -46 99 -46 172c0 80 15 140 44 177c30 38 76 57 138 57c19 0 36 -3 51 -9c14 -7 25 -15 33 -24v45c0 22 -7 39 -19 52s-30 20 -53 20c-25 0 -47 -3 -67 -8
c-19 -5 -39 -14 -61 -26v95c25 12 52 20 81 25s59 8 91 8c56 0 100 -16 132 -48c32 -31 48 -75 48 -132v-460zM290 102v233c-4 11 -9 19 -18 25c-8 6 -18 9 -31 9c-21 0 -37 -11 -46 -33c-10 -21 -15 -58 -15 -111c0 -61 4 -100 12 -118c8 -17 22 -26 42 -26c11 0 22 2 33 6
c10 5 18 10 23 15zM451 663h-141v141h141v-141zM196 663h-142v141h142v-141z" />
    <glyph glyph-name="atilde" unicode="&#xe3;" horiz-adv-x="483" 
d="M442 0h-128l-15 26c-10 -10 -25 -18 -44 -24c-18 -5 -40 -8 -67 -8c-48 0 -87 21 -118 62c-30 42 -46 99 -46 172c0 80 15 140 44 177c30 38 76 57 138 57c19 0 36 -3 51 -9c14 -7 25 -15 33 -24v45c0 22 -7 39 -19 52s-30 20 -53 20c-25 0 -47 -3 -67 -8
c-19 -5 -39 -14 -61 -26v95c25 12 52 20 81 25s59 8 91 8c56 0 100 -16 132 -48c32 -31 48 -75 48 -132v-460zM290 102v233c-4 11 -9 19 -18 25c-8 6 -18 9 -31 9c-21 0 -37 -11 -46 -33c-10 -21 -15 -58 -15 -111c0 -61 4 -100 12 -118c8 -17 22 -26 42 -26c11 0 22 2 33 6
c10 5 18 10 23 15zM448 754c-7 -27 -23 -50 -48 -69c-26 -19 -53 -28 -83 -28c-19 0 -35 2 -49 6c-13 4 -27 11 -40 21s-25 17 -36 21c-10 3 -22 5 -36 5c-7 0 -14 -1 -20 -3s-11 -5 -16 -9c-3 -2 -6 -5 -8 -9c-3 -4 -6 -8 -9 -13l-44 28c7 28 23 51 49 69
c25 19 52 28 82 28c19 0 35 -2 49 -6s27 -11 40 -21c13 -9 25 -16 36 -20c10 -4 23 -6 36 -6c8 0 15 1 21 3c6 1 12 4 16 8c4 3 7 6 10 10s5 8 6 13z" />
    <glyph glyph-name="aring" unicode="&#xe5;" horiz-adv-x="483" 
d="M442 0h-128l-15 26c-10 -10 -25 -18 -44 -24c-18 -5 -40 -8 -67 -8c-48 0 -87 21 -118 62c-30 42 -46 99 -46 172c0 80 15 140 44 177c30 38 76 57 138 57c19 0 36 -3 51 -9c14 -7 25 -15 33 -24v45c0 22 -7 39 -19 52s-30 20 -53 20c-25 0 -47 -3 -67 -8
c-19 -5 -39 -14 -61 -26v95c25 12 52 20 81 25s59 8 91 8c56 0 100 -16 132 -48c32 -31 48 -75 48 -132v-460zM290 102v233c-4 11 -9 19 -18 25c-8 6 -18 9 -31 9c-21 0 -37 -11 -46 -33c-10 -21 -15 -58 -15 -111c0 -61 4 -100 12 -118c8 -17 22 -26 42 -26c11 0 22 2 33 6
c10 5 18 10 23 15zM384 772c0 -33 -13 -61 -38 -84c-26 -24 -57 -36 -94 -36s-68 12 -94 35c-25 24 -38 52 -38 85c0 34 13 62 38 85c26 24 57 36 94 36s68 -12 94 -36c25 -23 38 -51 38 -85zM296 772c0 13 -4 23 -13 31c-8 8 -18 12 -31 12c-12 0 -23 -4 -31 -12
c-9 -9 -13 -19 -13 -31s4 -22 13 -30c8 -8 18 -13 31 -13c12 0 23 5 31 13c9 9 13 19 13 30z" />
    <glyph glyph-name="ccedilla" unicode="&#xe7;" horiz-adv-x="425" 
d="M414 451h-138c0 38 -2 63 -8 74s-15 17 -29 17c-22 0 -36 -16 -42 -49c-6 -32 -9 -91 -9 -176c0 -97 4 -159 10 -185c7 -27 21 -40 43 -40c14 0 24 4 31 12c6 9 11 26 13 53h116c0 -55 -15 -97 -44 -123c-29 -27 -72 -40 -130 -40c-65 0 -115 27 -149 81
c-34 55 -51 135 -51 242s18 187 53 241c35 55 88 82 159 82c56 0 99 -16 129 -47c31 -31 46 -79 46 -142zM366 -104c0 -37 -12 -65 -36 -85c-24 -19 -60 -29 -108 -29c-8 0 -17 1 -26 2c-8 2 -17 4 -25 7v83c5 -3 12 -5 22 -7c10 -3 19 -4 26 -4c12 0 21 3 28 9s10 14 10 26
s-4 21 -11 26c-8 5 -17 7 -28 7h-37v93h80v-30c20 -3 37 -7 52 -13c14 -6 25 -14 32 -23c7 -7 12 -16 16 -27c3 -10 5 -22 5 -35z" />
    <glyph glyph-name="eacute" unicode="&#xe9;" horiz-adv-x="444" 
d="M416 308h-228c0 -93 4 -152 11 -178c7 -25 22 -38 45 -38c15 0 27 5 34 15c8 9 12 26 12 50h111c0 -56 -14 -97 -43 -123c-28 -27 -72 -40 -131 -40c-65 0 -115 27 -149 81c-34 55 -51 135 -51 242s18 187 53 241c35 55 88 82 159 82c61 0 105 -22 134 -66
c29 -43 43 -108 43 -195v-71zM287 398c0 55 -3 93 -9 113c-6 21 -19 31 -40 31c-20 0 -34 -9 -40 -27s-9 -57 -9 -117h98zM413 824l-146 -160h-125l124 160h147z" />
    <glyph glyph-name="egrave" unicode="&#xe8;" horiz-adv-x="444" 
d="M416 308h-228c0 -93 4 -152 11 -178c7 -25 22 -38 45 -38c15 0 27 5 34 15c8 9 12 26 12 50h111c0 -56 -14 -97 -43 -123c-28 -27 -72 -40 -131 -40c-65 0 -115 27 -149 81c-34 55 -51 135 -51 242s18 187 53 241c35 55 88 82 159 82c61 0 105 -22 134 -66
c29 -43 43 -108 43 -195v-71zM287 398c0 55 -3 93 -9 113c-6 21 -19 31 -40 31c-20 0 -34 -9 -40 -27s-9 -57 -9 -117h98zM323 664h-125l-146 160h147z" />
    <glyph glyph-name="ecircumflex" unicode="&#xea;" horiz-adv-x="444" 
d="M416 308h-228c0 -93 4 -152 11 -178c7 -25 22 -38 45 -38c15 0 27 5 34 15c8 9 12 26 12 50h111c0 -56 -14 -97 -43 -123c-28 -27 -72 -40 -131 -40c-65 0 -115 27 -149 81c-34 55 -51 135 -51 242s18 187 53 241c35 55 88 82 159 82c61 0 105 -22 134 -66
c29 -43 43 -108 43 -195v-71zM287 398c0 55 -3 93 -9 113c-6 21 -19 31 -40 31c-20 0 -34 -9 -40 -27s-9 -57 -9 -117h98zM431 664h-115l-87 77l-87 -77h-115l146 160h112z" />
    <glyph glyph-name="edieresis" unicode="&#xeb;" horiz-adv-x="444" 
d="M416 308h-228c0 -93 4 -152 11 -178c7 -25 22 -38 45 -38c15 0 27 5 34 15c8 9 12 26 12 50h111c0 -56 -14 -97 -43 -123c-28 -27 -72 -40 -131 -40c-65 0 -115 27 -149 81c-34 55 -51 135 -51 242s18 187 53 241c35 55 88 82 159 82c61 0 105 -22 134 -66
c29 -43 43 -108 43 -195v-71zM287 398c0 55 -3 93 -9 113c-6 21 -19 31 -40 31c-20 0 -34 -9 -40 -27s-9 -57 -9 -117h98zM427 663h-141v141h141v-141zM172 663h-142v141h142v-141z" />
    <glyph glyph-name="iacute" unicode="&#xed;" horiz-adv-x="249" 
d="M205 0h-156v632h156v-632zM320 824l-146 -160h-125l124 160h147z" />
    <glyph glyph-name="igrave" unicode="&#xec;" horiz-adv-x="249" 
d="M205 0h-156v632h156v-632zM320 664h-125l-146 160h147z" />
    <glyph glyph-name="icircumflex" unicode="&#xee;" horiz-adv-x="249" 
d="M205 0h-156v632h156v-632zM453 664h-115l-87 77l-87 -77h-115l146 160h112z" />
    <glyph glyph-name="idieresis" unicode="&#xef;" horiz-adv-x="249" 
d="M205 0h-156v632h156v-632zM446 663h-141v141h141v-141zM191 663h-142v141h142v-141z" />
    <glyph glyph-name="ntilde" unicode="&#xf1;" 
d="M457 0h-157v482c0 18 -5 32 -14 41c-10 9 -23 13 -40 13c-8 0 -16 -1 -26 -2c-9 -2 -17 -4 -23 -6v-528h-155v632h127l10 -28c22 13 42 22 61 28c19 5 41 8 66 8c47 0 84 -13 111 -40c26 -26 40 -63 40 -112v-488zM441 753c-7 -27 -23 -50 -48 -69
c-26 -19 -53 -28 -83 -28c-19 0 -35 2 -49 6c-13 4 -27 11 -40 21s-25 17 -36 21c-10 3 -22 5 -36 5c-7 0 -14 -1 -20 -3s-11 -5 -16 -9c-3 -2 -6 -5 -8 -9c-3 -4 -6 -8 -9 -13l-44 28c7 28 23 51 49 69c25 19 52 28 82 28c19 0 35 -2 49 -6s27 -11 40 -21
c13 -9 25 -16 36 -20c10 -4 23 -6 36 -6c8 0 15 1 21 3c6 1 12 4 16 8c4 3 7 6 10 10s5 8 6 13z" />
    <glyph glyph-name="oacute" unicode="&#xf3;" horiz-adv-x="469" 
d="M443 317c0 -112 -17 -194 -52 -246c-34 -51 -86 -77 -157 -77c-68 0 -120 27 -155 81c-34 55 -52 135 -52 242c0 111 17 192 51 244c34 53 86 79 156 79c75 0 128 -27 161 -79c32 -53 48 -134 48 -244zM280 317c0 101 -2 164 -7 189c-5 24 -18 36 -39 36
c-20 0 -33 -12 -38 -38c-5 -25 -8 -88 -8 -189c0 -98 3 -160 9 -185c5 -25 18 -38 37 -38s31 14 37 40c6 27 9 89 9 185zM426 824l-146 -160h-125l124 160h147z" />
    <glyph glyph-name="ograve" unicode="&#xf2;" horiz-adv-x="469" 
d="M443 317c0 -112 -17 -194 -52 -246c-34 -51 -86 -77 -157 -77c-68 0 -120 27 -155 81c-34 55 -52 135 -52 242c0 111 17 192 51 244c34 53 86 79 156 79c75 0 128 -27 161 -79c32 -53 48 -134 48 -244zM280 317c0 101 -2 164 -7 189c-5 24 -18 36 -39 36
c-20 0 -33 -12 -38 -38c-5 -25 -8 -88 -8 -189c0 -98 3 -160 9 -185c5 -25 18 -38 37 -38s31 14 37 40c6 27 9 89 9 185zM332 664h-125l-146 160h147z" />
    <glyph glyph-name="ocircumflex" unicode="&#xf4;" horiz-adv-x="469" 
d="M443 317c0 -112 -17 -194 -52 -246c-34 -51 -86 -77 -157 -77c-68 0 -120 27 -155 81c-34 55 -52 135 -52 242c0 111 17 192 51 244c34 53 86 79 156 79c75 0 128 -27 161 -79c32 -53 48 -134 48 -244zM280 317c0 101 -2 164 -7 189c-5 24 -18 36 -39 36
c-20 0 -33 -12 -38 -38c-5 -25 -8 -88 -8 -189c0 -98 3 -160 9 -185c5 -25 18 -38 37 -38s31 14 37 40c6 27 9 89 9 185zM434 664h-115l-87 77l-87 -77h-115l146 160h112z" />
    <glyph glyph-name="odieresis" unicode="&#xf6;" horiz-adv-x="469" 
d="M443 317c0 -112 -17 -194 -52 -246c-34 -51 -86 -77 -157 -77c-68 0 -120 27 -155 81c-34 55 -52 135 -52 242c0 111 17 192 51 244c34 53 86 79 156 79c75 0 128 -27 161 -79c32 -53 48 -134 48 -244zM280 317c0 101 -2 164 -7 189c-5 24 -18 36 -39 36
c-20 0 -33 -12 -38 -38c-5 -25 -8 -88 -8 -189c0 -98 3 -160 9 -185c5 -25 18 -38 37 -38s31 14 37 40c6 27 9 89 9 185zM430 663h-141v141h141v-141zM175 663h-142v141h142v-141z" />
    <glyph glyph-name="otilde" unicode="&#xf5;" horiz-adv-x="469" 
d="M443 317c0 -112 -17 -194 -52 -246c-34 -51 -86 -77 -157 -77c-68 0 -120 27 -155 81c-34 55 -52 135 -52 242c0 111 17 192 51 244c34 53 86 79 156 79c75 0 128 -27 161 -79c32 -53 48 -134 48 -244zM280 317c0 101 -2 164 -7 189c-5 24 -18 36 -39 36
c-20 0 -33 -12 -38 -38c-5 -25 -8 -88 -8 -189c0 -98 3 -160 9 -185c5 -25 18 -38 37 -38s31 14 37 40c6 27 9 89 9 185zM428 756c-7 -27 -23 -50 -48 -69c-26 -19 -53 -28 -83 -28c-19 0 -35 2 -49 6c-13 4 -27 11 -40 21s-25 17 -36 21c-10 3 -22 5 -36 5
c-7 0 -14 -1 -20 -3s-11 -5 -16 -9c-3 -2 -6 -5 -8 -9c-3 -4 -6 -8 -9 -13l-44 28c7 28 23 51 49 69c25 19 52 28 82 28c19 0 35 -2 49 -6s27 -11 40 -21c13 -9 25 -16 36 -20c10 -4 23 -6 36 -6c8 0 15 1 21 3c6 1 12 4 16 8c4 3 7 6 10 10s5 8 6 13z" />
    <glyph glyph-name="uacute" unicode="&#xfa;" 
d="M457 0h-128l-12 29c-11 -11 -29 -20 -52 -27c-23 -6 -47 -10 -71 -10c-53 0 -91 14 -116 41c-24 27 -36 70 -36 127v472h156v-480c0 -19 4 -34 13 -43s21 -13 38 -13c9 0 18 0 28 2c9 1 17 4 24 7v527h156v-632zM416 824l-146 -160h-125l124 160h147z" />
    <glyph glyph-name="ugrave" unicode="&#xf9;" 
d="M457 0h-128l-12 29c-11 -11 -29 -20 -52 -27c-23 -6 -47 -10 -71 -10c-53 0 -91 14 -116 41c-24 27 -36 70 -36 127v472h156v-480c0 -19 4 -34 13 -43s21 -13 38 -13c9 0 18 0 28 2c9 1 17 4 24 7v527h156v-632zM346 664h-125l-146 160h147z" />
    <glyph glyph-name="ucircumflex" unicode="&#xfb;" 
d="M457 0h-128l-12 29c-11 -11 -29 -20 -52 -27c-23 -6 -47 -10 -71 -10c-53 0 -91 14 -116 41c-24 27 -36 70 -36 127v472h156v-480c0 -19 4 -34 13 -43s21 -13 38 -13c9 0 18 0 28 2c9 1 17 4 24 7v527h156v-632zM454 664h-115l-87 77l-87 -77h-115l146 160h112z" />
    <glyph glyph-name="udieresis" unicode="&#xfc;" 
d="M457 0h-128l-12 29c-11 -11 -29 -20 -52 -27c-23 -6 -47 -10 -71 -10c-53 0 -91 14 -116 41c-24 27 -36 70 -36 127v472h156v-480c0 -19 4 -34 13 -43s21 -13 38 -13c9 0 18 0 28 2c9 1 17 4 24 7v527h156v-632zM448 663h-141v141h141v-141zM193 663h-142v141h142v-141z
" />
    <glyph glyph-name="degree" unicode="&#xb0;" horiz-adv-x="331" 
d="M310 672c0 -39 -14 -72 -42 -100c-27 -27 -60 -41 -100 -41c-39 0 -72 14 -99 41c-28 28 -42 61 -42 100s14 72 42 100c27 27 60 41 99 41c40 0 73 -14 100 -41c28 -28 42 -61 42 -100zM241 672c0 20 -7 37 -21 51s-31 21 -52 21c-20 0 -37 -7 -51 -21s-21 -31 -21 -51
s7 -37 21 -51s31 -21 51 -21c21 0 38 7 52 21s21 31 21 51z" />
    <glyph glyph-name="registered" unicode="&#xae;" horiz-adv-x="797" 
d="M725 368c0 -104 -31 -190 -94 -258c-62 -69 -141 -103 -236 -103c-96 0 -174 34 -237 103c-62 69 -94 155 -94 258s32 189 95 258s142 103 237 103c97 0 175 -34 237 -103c61 -69 92 -155 92 -258zM638 368c0 81 -23 149 -67 204c-45 54 -103 82 -175 82
c-70 0 -129 -28 -175 -82c-46 -55 -70 -123 -70 -204s23 -149 69 -204s104 -82 175 -82s129 28 175 83c45 55 68 123 68 203zM529 170h-96v151c0 6 -3 11 -7 15c-5 5 -11 7 -17 7h-45v-173h-96v408h160c36 0 61 -6 77 -19s23 -32 23 -58v-54c0 -21 -4 -35 -12 -43
s-22 -13 -42 -15c19 0 33 -5 42 -17c9 -11 13 -26 13 -45v-157zM432 456v17c0 12 -3 21 -10 28c-7 6 -17 10 -30 10h-28v-93h28c15 0 25 3 31 9c6 7 9 16 9 29z" />
    <glyph glyph-name="copyright" unicode="&#xa9;" horiz-adv-x="797" 
d="M725 368c0 -104 -31 -190 -94 -258c-62 -69 -141 -103 -236 -103c-96 0 -174 34 -237 103c-62 69 -94 155 -94 258s32 189 95 258s142 103 237 103c97 0 175 -34 237 -103c61 -69 92 -155 92 -258zM638 368c0 81 -23 149 -67 204c-45 54 -103 82 -175 82
c-70 0 -129 -28 -175 -82c-46 -55 -70 -123 -70 -204s23 -149 69 -204s104 -82 175 -82s129 28 175 83c45 55 68 123 68 203zM564 447h-111c-4 21 -9 35 -17 43c-7 8 -19 11 -34 11c-19 0 -33 -8 -43 -26c-9 -17 -14 -53 -14 -107c0 -50 6 -86 16 -107c11 -21 25 -32 42 -32
c14 0 25 4 34 10s16 17 20 32h96c-11 -44 -28 -74 -52 -91c-25 -17 -58 -25 -101 -25c-56 0 -101 16 -132 49c-32 33 -48 88 -48 164c0 72 16 126 48 161c32 34 76 52 132 52c51 0 89 -13 115 -38c25 -24 41 -56 49 -96z" />
    <glyph glyph-name="trademark" unicode="&#x2122;" horiz-adv-x="743" 
d="M719 439h-105v271c0 9 -2 16 -7 22c-5 7 -12 10 -22 10h-41v-303h-105v272c0 8 -2 15 -7 21c-6 7 -13 10 -22 10h-40v-304h-104v386h86l14 -22c10 7 22 12 38 16s33 6 49 6c19 0 36 -2 49 -8c14 -5 23 -12 27 -20c10 9 26 16 48 21s42 7 62 7c25 0 44 -7 58 -20
c15 -14 22 -31 22 -51v-314zM249 737h-69v-299h-103v299h-74v87h246v-87z" />
    <glyph glyph-name="notequal" unicode="&#x2260;" horiz-adv-x="500" 
d="M446 228h-240l-72 -114l-72 48l42 66h-51v115h124l45 71h-169v115h242l73 114l69 -48l-42 -66h51v-115h-123l-45 -71h168v-115z" />
    <glyph glyph-name="infinity" unicode="&#x221e;" horiz-adv-x="614" 
d="M599 381c0 -45 -16 -83 -48 -114c-33 -31 -72 -47 -118 -47c-18 0 -35 2 -50 6c-16 4 -30 9 -42 17c-13 8 -25 18 -35 31c-10 12 -18 26 -25 42l-99 -97c-24 0 -45 4 -65 11c-19 8 -37 19 -53 34s-29 32 -37 52c-8 19 -12 41 -12 65c0 46 16 84 48 116
c33 31 72 46 119 46c35 0 67 -8 93 -23c26 -16 46 -40 59 -72l98 95c46 0 86 -15 118 -46c33 -32 49 -70 49 -116zM264 379c-2 12 -6 22 -10 31c-5 9 -10 17 -17 23s-14 11 -23 15c-8 3 -18 5 -28 5c-20 0 -36 -7 -49 -20c-12 -13 -18 -30 -18 -52c0 -20 7 -37 22 -50
c14 -13 32 -20 53 -20zM495 381c0 21 -8 38 -22 51c-15 13 -32 20 -54 20l-69 -68c3 -11 6 -21 11 -30c4 -9 9 -16 15 -22c8 -7 16 -12 24 -16c9 -3 19 -5 29 -5c19 0 35 7 47 20s19 30 19 50z" />
    <glyph glyph-name="plusminus" unicode="&#xb1;" horiz-adv-x="500" 
d="M458 337h-148v-109h-121v109h-148v121h148v145h121v-145h148v-121zM458 93h-417v113h417v-113z" />
    <glyph glyph-name="lessequal" unicode="&#x2264;" horiz-adv-x="332" 
d="M291 204l-270 168v96l270 183v-126l-158 -105l158 -94v-122zM291 93h-270v109h270v-109z" />
    <glyph glyph-name="greaterequal" unicode="&#x2265;" horiz-adv-x="332" 
d="M41 204l270 168v96l-270 183v-126l158 -105l-158 -94v-122zM41 93h270v109h-270v-109z" />
    <glyph glyph-name="mu" unicode="&#xb5;" 
d="M457 0h-128l-12 29c-11 -11 -29 -20 -52 -27c-24 -6 -47 -10 -71 -10h-4v-159h-149v799h156v-480c0 -19 5 -34 13 -43c9 -9 22 -13 39 -13c9 0 18 0 27 2c9 1 17 4 24 7v527h157v-632z" />
    <glyph glyph-name="partialdiff" unicode="&#x2202;" horiz-adv-x="479" 
d="M442 329c0 -58 -4 -109 -13 -152s-22 -78 -39 -105c-16 -26 -38 -45 -64 -58c-25 -13 -56 -20 -91 -20c-32 0 -61 6 -86 18s-46 30 -64 53c-19 26 -33 57 -43 95c-9 38 -14 82 -14 132c0 54 4 100 12 138c7 39 18 69 33 92c13 21 30 37 51 47s46 15 75 15
c21 0 39 -4 54 -11c15 -8 25 -18 31 -31c1 9 1 15 2 18v22c0 18 -3 36 -10 52s-18 30 -32 44c-13 12 -29 23 -48 32s-40 16 -65 21l35 93c38 -9 71 -20 100 -34s53 -30 73 -49c19 -19 36 -42 50 -68c13 -27 24 -57 32 -91c7 -30 12 -67 16 -109c3 -42 5 -90 5 -144zM280 289
c0 86 -2 141 -8 163c-6 23 -18 34 -37 34c-20 0 -32 -11 -37 -34c-6 -23 -9 -77 -9 -164c0 -84 3 -138 9 -161c6 -24 18 -35 37 -35c18 0 31 12 36 37c6 25 9 78 9 160z" />
    <glyph glyph-name="summation" unicode="&#x2211;" horiz-adv-x="589" 
d="M561 0h-519v102l259 336l-259 287v99h484v-125h-304l249 -269l-262 -337h352v-93z" />
    <glyph glyph-name="product" unicode="&#x220f;" horiz-adv-x="612" 
d="M610 731h-79v-731h-166v731h-117v-731h-166v731h-80v93h608v-93z" />
    <glyph glyph-name="pi" unicode="&#x3c0;" horiz-adv-x="544" 
d="M542 541h-63v-541h-156v541h-103v-541h-156v541h-62v90h540v-90z" />
    <glyph glyph-name="integral" unicode="&#x222b;" horiz-adv-x="350" 
d="M384 733c-15 5 -28 9 -38 12s-21 4 -32 4c-23 0 -39 -8 -48 -25c-9 -16 -13 -45 -13 -84v-601c0 -70 -16 -123 -47 -158s-78 -53 -140 -53c-17 0 -35 2 -55 4c-19 3 -34 7 -45 13v93c15 -6 27 -10 37 -12c9 -3 20 -4 33 -4c23 0 39 8 48 25c9 16 13 45 13 84v601
c0 70 16 123 47 158c32 35 78 53 140 53c15 0 31 -2 49 -5s35 -7 51 -12v-93z" />
    <glyph glyph-name="Omega" unicode="&#x3a9;" horiz-adv-x="633" 
d="M599 0h-240v95c17 40 30 85 37 135c8 51 12 112 12 183c0 68 -2 122 -7 160c-4 39 -10 70 -18 93c-6 20 -15 34 -26 42s-24 12 -41 12c-15 0 -29 -4 -40 -12c-11 -7 -20 -21 -26 -42c-10 -29 -16 -66 -20 -110c-3 -44 -5 -92 -5 -143c0 -73 4 -134 11 -183
s20 -94 38 -135v-95h-240v93h154v9c-18 15 -35 33 -51 55c-16 23 -30 49 -43 79c-13 32 -23 64 -30 98c-6 33 -10 67 -10 103c0 68 6 128 17 181s27 95 47 125c21 30 48 53 81 69c33 15 72 22 118 22c45 0 85 -7 118 -22c32 -16 59 -39 80 -69c20 -30 36 -72 47 -124
c11 -53 17 -113 17 -182c0 -35 -4 -69 -10 -103c-7 -33 -17 -66 -30 -98c-13 -30 -27 -56 -43 -78c-15 -23 -33 -41 -52 -56v-9h155v-93z" />
    <glyph glyph-name="logicalnot" unicode="&#xac;" horiz-adv-x="511" 
d="M457 175h-122v144h-294v119h416v-263z" />
    <glyph glyph-name="radical" unicode="&#x221a;" horiz-adv-x="747" 
d="M729 824l-348 -824h-168l-188 325h154l104 -188l277 687h169z" />
    <glyph glyph-name="approxequal" unicode="&#x2248;" horiz-adv-x="488" 
d="M468 560h-92c0 -23 -3 -41 -11 -53c-8 -13 -20 -19 -36 -19c-10 0 -20 3 -31 10c-12 6 -26 15 -43 29c-16 13 -33 22 -50 27c-18 5 -35 8 -52 8c-42 0 -76 -16 -102 -48c-27 -32 -40 -74 -40 -127h92c0 24 4 41 11 51c7 11 19 16 35 16c18 0 33 -3 46 -11
c12 -7 24 -14 36 -22c16 -11 32 -20 47 -29c15 -8 34 -12 58 -12c39 0 70 17 95 51c25 35 37 78 37 129zM468 364h-92c0 -23 -3 -41 -11 -53c-8 -13 -20 -19 -36 -19c-10 0 -20 3 -31 9c-12 6 -26 16 -43 30c-16 13 -33 22 -50 27c-18 5 -35 8 -52 8c-42 0 -76 -16 -102 -48
c-27 -32 -40 -75 -40 -127h92c0 23 4 40 11 51s19 16 35 16c18 0 33 -4 46 -11c12 -7 24 -15 36 -22c16 -11 32 -21 47 -29s34 -12 58 -12c39 0 70 17 95 51s37 77 37 129z" />
    <glyph glyph-name="Delta" unicode="&#x394;" horiz-adv-x="516" 
d="M516 0h-520l194 824h125zM344 93l-105 511l-117 -511h222z" />
    <glyph glyph-name="nbspace" unicode="&#xa0;" horiz-adv-x="249" 
 />
    <glyph glyph-name="Agrave" unicode="&#xc0;" horiz-adv-x="576" 
d="M520 0h-166v443h-132v-443h-166v608c0 73 20 129 59 167c40 39 98 58 173 58c81 0 140 -18 177 -54s55 -93 55 -171v-608zM354 552v90c0 34 -5 59 -15 73s-26 21 -50 21c-26 0 -43 -7 -53 -21c-9 -14 -14 -38 -14 -73v-90h132zM378 863h-125l-146 160h147z" />
    <glyph glyph-name="Atilde" unicode="&#xc3;" horiz-adv-x="576" 
d="M520 0h-166v443h-132v-443h-166v608c0 73 20 129 59 167c40 39 98 58 173 58c81 0 140 -18 177 -54s55 -93 55 -171v-608zM354 552v90c0 34 -5 59 -15 73s-26 21 -50 21c-26 0 -43 -7 -53 -21c-9 -14 -14 -38 -14 -73v-90h132zM484 954c-7 -27 -23 -50 -48 -69
c-26 -19 -53 -28 -83 -28c-19 0 -35 2 -49 6c-13 4 -27 11 -40 21s-25 17 -36 21c-10 3 -22 5 -36 5c-7 0 -14 -1 -20 -3s-11 -5 -16 -9c-3 -2 -6 -5 -8 -9c-3 -4 -6 -8 -9 -13l-44 28c7 28 23 51 49 69c25 19 52 28 82 28c19 0 35 -2 49 -6s27 -11 40 -21
c13 -9 25 -16 36 -20c10 -4 23 -6 36 -6c8 0 15 1 21 3c6 1 12 4 16 8c4 3 7 6 10 10s5 8 6 13z" />
    <glyph glyph-name="Otilde" unicode="&#xd5;" horiz-adv-x="549" 
d="M519 411c0 -168 -21 -280 -61 -338c-41 -57 -102 -86 -183 -86s-142 29 -183 86c-41 58 -61 171 -61 338c0 169 20 281 61 338c41 56 102 84 183 84c82 0 143 -26 183 -77c41 -51 61 -166 61 -345zM347 411c0 99 -3 175 -10 228s-27 79 -62 79c-34 0 -55 -27 -62 -80
c-7 -54 -11 -129 -11 -227c0 -111 4 -190 12 -238c7 -48 28 -71 61 -71c36 0 56 26 63 79c6 54 9 130 9 230zM469 949c-7 -27 -23 -50 -48 -69c-26 -19 -53 -28 -83 -28c-19 0 -35 2 -49 6c-13 4 -27 11 -40 21s-25 17 -36 21c-10 3 -22 5 -36 5c-7 0 -14 -1 -20 -3
s-11 -5 -16 -9c-3 -2 -6 -5 -8 -9c-3 -4 -6 -8 -9 -13l-44 28c7 28 23 51 49 69c25 19 52 28 82 28c19 0 35 -2 49 -6s27 -11 40 -21c13 -9 25 -16 36 -20c10 -4 23 -6 36 -6c8 0 15 1 21 3c6 1 12 4 16 8c4 3 7 6 10 10s5 8 6 13z" />
    <glyph glyph-name="divide" unicode="&#xf7;" horiz-adv-x="500" 
d="M316 486h-133v125h133v-125zM446 319h-393v119h393v-119zM316 143h-133v125h133v-125z" />
    <glyph glyph-name="lozenge" unicode="&#x25ca;" horiz-adv-x="511" 
d="M504 395l-249 -249l-249 249l249 249zM370 395l-115 114l-114 -114l114 -115z" />
    <glyph glyph-name="ydieresis" unicode="&#xff;" horiz-adv-x="493" 
d="M450 20c0 -63 -20 -112 -59 -145c-39 -32 -96 -49 -170 -49c-28 0 -57 3 -85 8c-29 5 -55 13 -78 24l16 73c24 -7 47 -12 68 -15c20 -3 40 -5 61 -5c33 0 58 9 74 27s24 45 24 82c0 4 -1 10 -2 18s-1 13 -1 16l-18 -23h-103l-142 169v432h155v-442l70 -85l33 47v480h157
v-612zM450 663h-141v141h141v-141zM195 663h-142v141h142v-141z" />
    <glyph glyph-name="Ydieresis" unicode="&#x178;" horiz-adv-x="544" 
d="M512 581c0 -32 -13 -67 -38 -103c-26 -36 -65 -76 -118 -119v-359h-166v322l-156 208v294h166v-268l88 -131l58 60v339h166v-243zM473 862h-141v141h141v-141zM218 862h-142v141h142v-141z" />
    <glyph glyph-name="Acircumflex" unicode="&#xc2;" horiz-adv-x="576" 
d="M520 0h-166v443h-132v-443h-166v608c0 73 20 129 59 167c40 39 98 58 173 58c81 0 140 -18 177 -54s55 -93 55 -171v-608zM354 552v90c0 34 -5 59 -15 73s-26 21 -50 21c-26 0 -43 -7 -53 -21c-9 -14 -14 -38 -14 -73v-90h132zM492 863h-115l-87 77l-87 -77h-115l146 160
h112z" />
    <glyph glyph-name="Ecircumflex" unicode="&#xca;" horiz-adv-x="483" 
d="M462 0h-190c-70 0 -122 17 -158 52c-35 35 -53 88 -53 159v401c0 84 15 141 46 169c31 29 88 43 171 43h163v-93h-119c-36 0 -61 -8 -75 -23c-13 -16 -20 -44 -20 -84v-71h197v-111h-197v-212c0 -49 8 -84 25 -105c17 -22 45 -32 86 -32h124v-93zM478 863h-115l-87 77
l-87 -77h-115l146 160h112z" />
    <glyph glyph-name="Aacute" unicode="&#xc1;" horiz-adv-x="576" 
d="M520 0h-166v443h-132v-443h-166v608c0 73 20 129 59 167c40 39 98 58 173 58c81 0 140 -18 177 -54s55 -93 55 -171v-608zM354 552v90c0 34 -5 59 -15 73s-26 21 -50 21c-26 0 -43 -7 -53 -21c-9 -14 -14 -38 -14 -73v-90h132zM472 1023l-146 -160h-125l124 160h147z" />
    <glyph glyph-name="Edieresis" unicode="&#xcb;" horiz-adv-x="483" 
d="M462 0h-190c-70 0 -122 17 -158 52c-35 35 -53 88 -53 159v401c0 84 15 141 46 169c31 29 88 43 171 43h163v-93h-119c-36 0 -61 -8 -75 -23c-13 -16 -20 -44 -20 -84v-71h197v-111h-197v-212c0 -49 8 -84 25 -105c17 -22 45 -32 86 -32h124v-93zM468 863h-141v141h141
v-141zM213 863h-142v141h142v-141z" />
    <glyph glyph-name="Egrave" unicode="&#xc8;" horiz-adv-x="483" 
d="M462 0h-190c-70 0 -122 17 -158 52c-35 35 -53 88 -53 159v401c0 84 15 141 46 169c31 29 88 43 171 43h163v-93h-119c-36 0 -61 -8 -75 -23c-13 -16 -20 -44 -20 -84v-71h197v-111h-197v-212c0 -49 8 -84 25 -105c17 -22 45 -32 86 -32h124v-93zM381 863h-125l-146 160
h147z" />
    <glyph glyph-name="Iacute" unicode="&#xcd;" horiz-adv-x="317" 
d="M242 0h-166v824h166v-824zM348 1023l-146 -160h-125l124 160h147z" />
    <glyph glyph-name="Icircumflex" unicode="&#xce;" horiz-adv-x="317" 
d="M242 0h-166v824h166v-824zM480 863h-115l-87 77l-87 -77h-115l146 160h112z" />
    <glyph glyph-name="Idieresis" unicode="&#xcf;" horiz-adv-x="317" 
d="M242 0h-166v824h166v-824zM473 862h-141v141h141v-141zM218 862h-142v141h142v-141z" />
    <glyph glyph-name="Igrave" unicode="&#xcc;" horiz-adv-x="317" 
d="M242 0h-166v824h166v-824zM347 863h-125l-146 160h147z" />
    <glyph glyph-name="Oacute" unicode="&#xd3;" horiz-adv-x="549" 
d="M519 411c0 -168 -21 -280 -61 -338c-41 -57 -102 -86 -183 -86s-142 29 -183 86c-41 58 -61 171 -61 338c0 169 20 281 61 338c41 56 102 84 183 84c82 0 143 -26 183 -77c41 -51 61 -166 61 -345zM347 411c0 99 -3 175 -10 228s-27 79 -62 79c-34 0 -55 -27 -62 -80
c-7 -54 -11 -129 -11 -227c0 -111 4 -190 12 -238c7 -48 28 -71 61 -71c36 0 56 26 63 79c6 54 9 130 9 230zM475 1023l-146 -160h-125l124 160h147z" />
    <glyph glyph-name="Ocircumflex" unicode="&#xd4;" horiz-adv-x="549" 
d="M519 411c0 -168 -21 -280 -61 -338c-41 -57 -102 -86 -183 -86s-142 29 -183 86c-41 58 -61 171 -61 338c0 169 20 281 61 338c41 56 102 84 183 84c82 0 143 -26 183 -77c41 -51 61 -166 61 -345zM347 411c0 99 -3 175 -10 228s-27 79 -62 79c-34 0 -55 -27 -62 -80
c-7 -54 -11 -129 -11 -227c0 -111 4 -190 12 -238c7 -48 28 -71 61 -71c36 0 56 26 63 79c6 54 9 130 9 230zM482 863h-115l-87 77l-87 -77h-115l146 160h112z" />
    <glyph glyph-name="apple" unicode="&#xf8ff;" horiz-adv-x="773" 
d="M546 824c5 -21 6 -43 2 -65c-5 -23 -14 -45 -27 -64c-14 -20 -33 -37 -56 -51c-24 -14 -51 -21 -83 -23c0 25 4 50 11 73s18 43 32 60c13 17 29 31 50 43c20 12 44 21 71 27zM738 215c-6 -20 -14 -40 -25 -61c-10 -21 -22 -42 -37 -64c-21 -33 -43 -58 -64 -74
c-22 -16 -44 -24 -65 -24c-17 0 -40 5 -69 16c-30 11 -55 16 -76 16s-44 -6 -71 -17s-50 -17 -67 -17c-25 0 -50 11 -76 33c-25 21 -49 54 -74 97c-24 43 -43 85 -55 127c-13 42 -19 84 -19 125c0 77 19 139 57 187c37 48 85 72 142 72c25 0 54 -5 88 -15
c35 -10 58 -15 70 -15c15 0 38 6 72 17c33 11 61 17 86 17c20 0 39 -3 57 -8c17 -5 34 -13 49 -24c8 -5 16 -12 26 -21c9 -10 18 -19 27 -30c-39 -31 -64 -58 -74 -83c-11 -24 -16 -51 -16 -79c0 -41 12 -79 35 -112s50 -54 79 -63z" />
    <glyph glyph-name="Ograve" unicode="&#xd2;" horiz-adv-x="549" 
d="M519 411c0 -168 -21 -280 -61 -338c-41 -57 -102 -86 -183 -86s-142 29 -183 86c-41 58 -61 171 -61 338c0 169 20 281 61 338c41 56 102 84 183 84c82 0 143 -26 183 -77c41 -51 61 -166 61 -345zM347 411c0 99 -3 175 -10 228s-27 79 -62 79c-34 0 -55 -27 -62 -80
c-7 -54 -11 -129 -11 -227c0 -111 4 -190 12 -238c7 -48 28 -71 61 -71c36 0 56 26 63 79c6 54 9 130 9 230zM367 863h-125l-146 160h147z" />
    <glyph glyph-name="Uacute" unicode="&#xda;" horiz-adv-x="566" 
d="M511 227c0 -81 -18 -142 -56 -181c-37 -39 -94 -59 -171 -59c-74 0 -130 20 -169 61s-59 100 -59 179v597h166v-593c0 -45 4 -77 13 -95c9 -19 25 -28 49 -28c23 0 39 9 48 26c9 18 13 50 13 97v593h166v-597zM475 1023l-146 -160h-125l124 160h147z" />
    <glyph glyph-name="Ucircumflex" unicode="&#xdb;" horiz-adv-x="566" 
d="M511 227c0 -81 -18 -142 -56 -181c-37 -39 -94 -59 -171 -59c-74 0 -130 20 -169 61s-59 100 -59 179v597h166v-593c0 -45 4 -77 13 -95c9 -19 25 -28 49 -28c23 0 39 9 48 26c9 18 13 50 13 97v593h166v-597zM485 863h-115l-87 77l-87 -77h-115l146 160h112z" />
    <glyph glyph-name="Ugrave" unicode="&#xd9;" horiz-adv-x="566" 
d="M511 227c0 -81 -18 -142 -56 -181c-37 -39 -94 -59 -171 -59c-74 0 -130 20 -169 61s-59 100 -59 179v597h166v-593c0 -45 4 -77 13 -95c9 -19 25 -28 49 -28c23 0 39 9 48 26c9 18 13 50 13 97v593h166v-597zM370 863h-125l-146 160h147z" />
    <glyph glyph-name="arrowtabright" unicode="&#x21e5;" horiz-adv-x="798" 
d="M18 285h329v-192l263 262l-263 263v-192h-329v-141zM631 64h142v582h-142v-582z" />
    <glyph glyph-name="arrowtableft" unicode="&#x21e4;" horiz-adv-x="798" 
d="M780 285h-329v-192l-263 262l263 263v-192h329v-141zM167 64h-142v582h142v-582z" />
    <glyph glyph-name="arrowupwhite" unicode="&#x21e7;" horiz-adv-x="952" 
d="M932 309h-250v-309h-412v309h-250l456 519zM750 383l-275 317l-274 -317h151v-299h246v299h152z" />
    <glyph glyph-name="control" unicode="&#x2303;" horiz-adv-x="800" 
d="M732 297l-104 -105l-229 229l-229 -229l-104 105l333 333z" />
    <glyph glyph-name="option" unicode="&#x2325;" horiz-adv-x="930" 
d="M918 617h-417v133h417v-133zM918 0h-326l-341 617h-235v133h326l340 -617h236v-133z" />
    <glyph glyph-name="deleteright" unicode="&#x2326;" horiz-adv-x="1050" 
d="M65 0h597l375 375l-375 375h-597v-750zM149 84v582h472l291 -291l-291 -291h-472zM179 213l88 -88l162 162l161 -162l89 88l-161 162l161 162l-89 88l-161 -162l-162 162l-88 -88l162 -162z" />
    <glyph glyph-name="carriagereturn" unicode="&#x21b5;" horiz-adv-x="1083" 
d="M1035 387c0 -46 -16 -85 -49 -117c-33 -33 -72 -49 -119 -49h-575v-194l-263 263l263 263v-195h513c22 0 42 8 58 24c17 16 25 36 25 58v95c0 24 -8 44 -23 59s-35 23 -60 23h-153v133h216c53 0 94 -16 123 -47c30 -32 44 -71 44 -119v-197z" />
    <glyph glyph-name="carriagereturnleft" horiz-adv-x="1083" 
d="M48 584c0 48 14 87 44 119c29 31 70 47 123 47h216v-133h-153c-25 0 -45 -8 -60 -23s-23 -35 -23 -59v-95c0 -22 8 -42 25 -58c16 -16 36 -24 58 -24h513v195l263 -263l-263 -263v194h-576c-46 0 -85 16 -118 49c-33 32 -49 71 -49 117v197z" />
    <glyph glyph-name="arrowdashdown" unicode="&#x21e3;" horiz-adv-x="652" 
d="M589 251h-193v100h-140v-100h-193l263 -263zM396 578h-140v-154h140v154zM396 800h-140v-154h140v154z" />
    <glyph glyph-name="propellor" unicode="&#x2318;" horiz-adv-x="833" 
d="M792 166c0 -45 -17 -83 -50 -116c-32 -33 -72 -50 -117 -50c-46 0 -85 16 -118 49s-49 72 -49 117v84h-83v-84c0 -45 -17 -83 -50 -116c-32 -33 -72 -50 -117 -50c-46 0 -85 16 -117 49c-33 33 -49 72 -49 117c0 47 16 86 49 119c32 33 71 49 117 49h84v156h-84
c-46 0 -86 17 -118 51c-32 33 -48 72 -48 117c0 46 16 85 49 118c32 32 71 48 117 48c45 0 84 -16 117 -49s50 -72 50 -117v-84h83v84c0 45 16 84 49 117s72 49 117 49s85 -16 118 -49s50 -72 50 -117s-17 -85 -50 -118c-32 -33 -72 -50 -118 -50h-82v-156h83
c45 0 84 -17 117 -50s50 -72 50 -118zM708 658c0 23 -9 42 -25 58s-36 24 -58 24c-23 0 -43 -8 -59 -24s-24 -35 -24 -58v-84h83c23 0 43 9 59 25c16 17 24 36 24 59zM292 574v84c0 23 -9 42 -25 58c-17 16 -37 24 -59 24c-23 0 -43 -8 -59 -24s-24 -35 -24 -58
s8 -43 24 -59c16 -17 36 -25 59 -25h84zM458 334v156h-83v-156h83zM708 166c0 23 -9 43 -25 60c-16 16 -36 24 -58 24h-83v-84c0 -23 8 -42 24 -58s36 -24 59 -24c22 0 42 8 58 24c16 17 25 36 25 58zM292 166v84h-84c-24 0 -44 -8 -60 -25s-23 -36 -23 -59s8 -42 24 -58
s36 -24 59 -24c22 0 42 8 59 24c16 16 25 35 25 58z" />
    <glyph glyph-name="checkmark" unicode="&#x2713;" horiz-adv-x="769" 
d="M765 825l-495 -857l-265 158l69 120l152 -91l426 737z" />
    <glyph glyph-name="blackdiamond" unicode="&#x25c6;" horiz-adv-x="635" 
d="M609 374l-292 -291l-291 291l291 293z" />
    <glyph glyph-name="deleteleft" unicode="&#x232b;" horiz-adv-x="1050" 
d="M984 0h-596l-375 375l375 375h596v-750zM900 84v582h-471l-291 -291l291 -291h471zM871 213l-88 -88l-162 162l-162 -162l-88 88l161 162l-161 162l88 88l162 -162l162 162l88 -88l-162 -162z" />
    <glyph glyph-name="arrowdashleft" unicode="&#x21e0;" horiz-adv-x="857" 
d="M825 305h-154v140h154v-140zM603 305h-154v140h154v-140zM375 305h-99v-193l-263 263l263 263v-193h99v-140z" />
    <glyph glyph-name="arrowdashup" unicode="&#x21e1;" horiz-adv-x="652" 
d="M589 549h-193v-100h-140v100h-193l263 263zM396 222h-140v153h140v-153zM396 0h-140v153h140v-153z" />
    <glyph glyph-name="arrowdashright" unicode="&#x21e2;" horiz-adv-x="857" 
d="M32 305h154v140h-154v-140zM254 305h154v140h-154v-140zM481 305h100v-193l263 263l-263 263v-193h-100v-140z" />
    <glyph glyph-name="escape" horiz-adv-x="967" 
d="M533 427l-105 -105l-274 273l-123 -124v354h353l-124 -124zM931 375c0 -126 -44 -232 -133 -319c-89 -88 -194 -131 -317 -131c-128 0 -236 42 -322 126c-86 83 -129 192 -129 324h137c0 -89 31 -163 94 -223s137 -90 220 -90c85 0 159 30 220 91c62 60 93 134 93 222
s-29 162 -88 224c-58 61 -133 91 -225 91v137c132 0 241 -43 324 -127c84 -85 126 -193 126 -325z" />
    <glyph glyph-name="clear" unicode="&#x2327;" horiz-adv-x="901" 
d="M860 0h-124l77 -123l-70 -43l-105 166h-374l-105 -166l-71 43l77 123h-123v750h123l-77 123l71 43l105 -166h374l105 166l70 -43l-77 -123h124v-750zM584 666h-268l135 -213zM777 84v582h-93l-184 -291l184 -291h93zM402 375l-184 291h-93v-582h93zM584 84l-133 213
l-135 -213h268z" />
    <glyph glyph-name="Euro" unicode="&#x20ac;" horiz-adv-x="744" 
d="M606 349h-557l23 54h556zM560 242h-511l23 53h511zM667 73c-56 -49 -126 -73 -209 -73c-91 0 -168 31 -229 93c-62 62 -93 138 -93 229s31 168 93 230c61 62 138 93 229 93s169 -32 232 -96l-23 -54c-60 64 -129 96 -209 96c-75 0 -138 -26 -190 -78
c-53 -52 -79 -116 -79 -191s26 -138 79 -190c52 -52 115 -78 190 -78c81 0 151 32 209 98v-79z" />
    <glyph glyph-name="ch240" horiz-adv-x="773" 
d="M546 824c5 -21 6 -43 2 -65c-5 -23 -14 -45 -27 -64c-14 -20 -33 -37 -56 -51c-24 -14 -51 -21 -83 -23c0 25 4 50 11 73s18 43 32 60c13 17 29 31 50 43c20 12 44 21 71 27zM738 215c-6 -20 -14 -40 -25 -61c-10 -21 -22 -42 -37 -64c-21 -33 -43 -58 -64 -74
c-22 -16 -44 -24 -65 -24c-17 0 -40 5 -69 16c-30 11 -55 16 -76 16s-44 -6 -71 -17s-50 -17 -67 -17c-25 0 -50 11 -76 33c-25 21 -49 54 -74 97c-24 43 -43 85 -55 127c-13 42 -19 84 -19 125c0 77 19 139 57 187c37 48 85 72 142 72c25 0 54 -5 88 -15
c35 -10 58 -15 70 -15c15 0 38 6 72 17c33 11 61 17 86 17c20 0 39 -3 57 -8c17 -5 34 -13 49 -24c8 -5 16 -12 26 -21c9 -10 18 -19 27 -30c-39 -31 -64 -58 -74 -83c-11 -24 -16 -51 -16 -79c0 -41 12 -79 35 -112s50 -54 79 -63z" />
    <glyph glyph-name="glyph210" horiz-adv-x="625" 
d="M563 421c0 -69 -24 -128 -73 -177s-108 -73 -177 -73c-70 0 -129 24 -178 73s-73 108 -73 177s24 128 73 177c48 49 108 74 177 74c70 0 129 -25 178 -73c49 -49 73 -108 73 -178z" />
    <glyph glyph-name="franc" unicode="&#x20a3;" horiz-adv-x="469" 
d="M466 731h-151c-34 0 -57 -7 -69 -21c-13 -14 -19 -38 -19 -74v-83h197v-111h-197v-442h-166v634c0 68 15 117 45 146c29 29 80 44 151 44h209v-93zM324 202h-317v103h317v-103z" />
    <glyph glyph-name="Gbreve" unicode="&#x11e;" horiz-adv-x="522" 
d="M490 171c-14 -65 -38 -112 -72 -141c-33 -29 -81 -43 -144 -43c-87 0 -150 32 -187 96s-56 173 -56 328c0 148 19 255 56 322c37 66 98 100 182 100c67 0 118 -20 152 -58c35 -39 53 -94 53 -167h-160c0 47 -3 77 -11 90c-7 12 -19 19 -35 19c-28 0 -46 -22 -54 -65
s-12 -124 -12 -241c0 -127 5 -211 16 -253c10 -41 29 -62 57 -62c21 0 37 9 48 28c11 18 16 42 16 72v148h-72v115h223v-288zM453 1019c0 -22 -5 -43 -15 -62c-9 -19 -23 -37 -43 -53c-18 -15 -37 -27 -58 -34c-21 -8 -44 -12 -68 -12c-53 0 -97 15 -131 46
c-34 30 -52 69 -52 115h90c1 -11 4 -20 9 -28c4 -7 11 -14 20 -19c7 -4 17 -7 28 -9s23 -3 36 -3c14 0 27 1 37 3c11 2 20 5 28 9c9 5 16 12 20 19c5 8 8 17 9 28h90z" />
    <glyph glyph-name="gbreve" unicode="&#x11f;" 
d="M448 20c0 -62 -20 -109 -59 -143c-40 -34 -93 -51 -160 -51c-28 0 -57 3 -85 8c-29 5 -55 13 -79 24l19 86c16 -6 37 -12 62 -17c24 -5 47 -7 67 -7c32 0 55 8 69 26c15 17 23 42 23 75c0 4 0 8 -1 13c0 5 -1 11 -1 17c-7 -11 -20 -20 -39 -26c-20 -7 -43 -10 -69 -10
c-44 0 -78 12 -103 37c-25 26 -41 66 -50 122c-3 22 -6 46 -8 71c-1 26 -2 54 -2 85c0 32 2 66 5 100c4 34 8 59 13 77c12 42 30 74 57 97c26 24 58 36 96 36c18 0 34 -2 48 -6c14 -3 28 -9 42 -18v16h155v-612zM293 117v413c-5 3 -11 5 -19 7s-15 3 -21 3
c-17 0 -30 -5 -38 -13s-14 -24 -16 -48s-4 -50 -5 -77c-1 -28 -2 -53 -2 -74c0 -34 1 -66 2 -96c2 -30 3 -55 5 -75c2 -19 7 -33 15 -42c7 -8 18 -12 33 -12c10 0 19 1 26 3s13 6 20 11zM430 823c0 -22 -5 -43 -15 -62c-9 -19 -23 -37 -43 -53c-18 -15 -37 -27 -58 -34
c-21 -8 -44 -12 -68 -12c-53 0 -97 15 -131 46c-34 30 -52 69 -52 115h90c1 -11 4 -20 9 -28c4 -7 11 -14 20 -19c7 -4 17 -7 28 -9s23 -3 36 -3c14 0 27 1 37 3c11 2 20 5 28 9c9 5 16 12 20 19c5 8 8 17 9 28h90z" />
    <glyph glyph-name="Idot" unicode="&#x130;" horiz-adv-x="249" 
d="M205 0h-156v632h156v-632zM205 664h-156v154h156v-154z" />
    <glyph glyph-name="Scedilla" unicode="&#x15e;" horiz-adv-x="466" 
d="M459 220c0 -77 -20 -135 -59 -174s-96 -59 -172 -59c-68 0 -121 18 -159 53c-39 35 -58 86 -58 152h155c0 -27 5 -48 16 -63s28 -22 50 -22s40 7 52 20c13 13 19 31 19 55s-5 46 -14 66c-10 19 -25 39 -44 60c-11 11 -35 33 -73 67c-39 35 -61 55 -68 61
c-30 29 -52 60 -66 91s-21 65 -21 101c0 62 20 112 59 149c40 37 91 56 154 56s113 -18 149 -54s55 -86 55 -149h-156c0 27 -5 48 -14 62c-10 14 -25 21 -45 21c-17 0 -30 -5 -39 -16s-13 -27 -13 -46c0 -15 4 -30 12 -45c9 -14 25 -32 49 -54c3 -3 25 -21 64 -55
c40 -34 69 -60 85 -78c30 -31 51 -62 63 -94c13 -31 19 -66 19 -105zM361 -119c0 -37 -12 -65 -36 -85c-24 -19 -60 -29 -108 -29c-8 0 -17 1 -26 2c-8 2 -17 4 -25 7v83c5 -3 12 -5 22 -7c10 -3 19 -4 26 -4c12 0 21 3 28 9s10 14 10 26s-4 21 -11 26c-8 5 -17 7 -28 7h-37
v93h80v-30c20 -3 37 -7 52 -13c14 -6 25 -14 32 -23c7 -7 12 -16 16 -27c3 -10 5 -22 5 -35z" />
    <glyph glyph-name="scedilla" unicode="&#x15f;" horiz-adv-x="396" 
d="M381 164c0 -53 -16 -95 -48 -125c-31 -29 -75 -44 -130 -44c-60 0 -105 14 -135 41c-30 28 -45 70 -45 126h126c0 -23 4 -40 12 -50c9 -11 21 -16 37 -16s28 4 35 12c8 9 12 21 12 37c0 15 -8 31 -25 49c-16 17 -43 42 -80 75c-48 41 -78 76 -91 106
c-12 31 -19 68 -19 113c0 46 16 83 48 110c32 28 75 42 127 42c56 0 99 -15 128 -43c30 -28 45 -68 45 -120h-124c0 18 -4 34 -13 45c-8 12 -20 18 -35 18c-13 0 -23 -4 -31 -11c-9 -8 -13 -19 -13 -33c0 -18 5 -34 15 -50c9 -17 39 -46 88 -90c44 -38 74 -71 91 -98
c16 -28 25 -59 25 -94zM334 -104c0 -37 -12 -65 -36 -85c-24 -19 -60 -29 -108 -29c-8 0 -17 1 -26 2c-8 2 -17 4 -25 7v83c5 -3 12 -5 22 -7c10 -3 19 -4 26 -4c12 0 21 3 28 9s10 14 10 26s-4 21 -11 26c-8 5 -17 7 -28 7h-37v93h80v-30c20 -3 37 -7 52 -13
c14 -6 25 -14 32 -23c7 -7 12 -16 16 -27c3 -10 5 -22 5 -35z" />
    <glyph glyph-name="Cacute" unicode="&#x106;" horiz-adv-x="488" 
d="M477 600h-171c0 41 -3 71 -8 89c-6 18 -19 27 -39 27c-21 0 -35 -20 -44 -59c-9 -40 -13 -120 -13 -240s5 -203 15 -248s29 -67 56 -67c15 0 26 3 33 10c8 7 13 27 17 59h150c-4 -19 -8 -35 -13 -50s-10 -28 -16 -39c-15 -32 -37 -56 -63 -72c-26 -15 -63 -23 -111 -23
c-54 0 -97 13 -130 39c-34 26 -59 66 -77 121c-11 33 -19 72 -24 117c-6 45 -8 97 -8 154c0 75 5 140 15 194s25 98 45 130c19 30 44 53 73 68c30 15 65 23 106 23c36 0 68 -5 94 -16c27 -11 49 -28 66 -49c16 -20 28 -44 35 -72c8 -28 12 -60 12 -96zM462 1023l-146 -160
h-125l124 160h147z" />
    <glyph glyph-name="cacute" unicode="&#x107;" horiz-adv-x="425" 
d="M414 451h-138c0 38 -2 63 -8 74s-15 17 -29 17c-22 0 -36 -16 -42 -49c-6 -32 -9 -91 -9 -176c0 -97 4 -159 10 -185c7 -27 21 -40 43 -40c14 0 24 4 31 12c6 9 11 26 13 53h116c0 -55 -15 -97 -44 -123c-29 -27 -72 -40 -130 -40c-65 0 -115 27 -149 81
c-34 55 -51 135 -51 242s18 187 53 241c35 55 88 82 159 82c56 0 99 -16 129 -47c31 -31 46 -79 46 -142zM403 824l-146 -160h-125l124 160h147z" />
    <glyph glyph-name="Ccaron" unicode="&#x10c;" horiz-adv-x="488" 
d="M477 600h-171c0 41 -3 71 -8 89c-6 18 -19 27 -39 27c-21 0 -35 -20 -44 -59c-9 -40 -13 -120 -13 -240s5 -203 15 -248s29 -67 56 -67c15 0 26 3 33 10c8 7 13 27 17 59h150c-4 -19 -8 -35 -13 -50s-10 -28 -16 -39c-15 -32 -37 -56 -63 -72c-26 -15 -63 -23 -111 -23
c-54 0 -97 13 -130 39c-34 26 -59 66 -77 121c-11 33 -19 72 -24 117c-6 45 -8 97 -8 154c0 75 5 140 15 194s25 98 45 130c19 30 44 53 73 68c30 15 65 23 106 23c36 0 68 -5 94 -16c27 -11 49 -28 66 -49c16 -20 28 -44 35 -72c8 -28 12 -60 12 -96zM464 1023l-146 -160
h-112l-146 160h115l87 -77l87 77h115z" />
    <glyph glyph-name="ccaron" unicode="&#x10d;" horiz-adv-x="425" 
d="M414 451h-138c0 38 -2 63 -8 74s-15 17 -29 17c-22 0 -36 -16 -42 -49c-6 -32 -9 -91 -9 -176c0 -97 4 -159 10 -185c7 -27 21 -40 43 -40c14 0 24 4 31 12c6 9 11 26 13 53h116c0 -55 -15 -97 -44 -123c-29 -27 -72 -40 -130 -40c-65 0 -115 27 -149 81
c-34 55 -51 135 -51 242s18 187 53 241c35 55 88 82 159 82c56 0 99 -16 129 -47c31 -31 46 -79 46 -142zM443 824l-146 -160h-112l-146 160h115l87 -77l87 77h115z" />
    <glyph glyph-name="dmacron" unicode="&#x111;" horiz-adv-x="488" 
d="M447 0h-129l-13 25c-17 -13 -33 -21 -47 -25c-15 -3 -33 -5 -56 -5c-44 0 -80 15 -108 44c-29 29 -46 69 -52 120c-3 25 -5 53 -7 83s-3 60 -3 89c0 33 2 66 5 100c4 33 8 58 13 76c12 42 30 74 57 97c26 24 58 36 96 36c22 0 40 -2 53 -6c13 -3 25 -9 35 -18v208h156
v-824zM291 100v430c-7 3 -14 5 -20 7c-7 2 -13 3 -18 3c-17 0 -30 -5 -38 -14c-9 -9 -14 -25 -16 -47c-2 -25 -4 -54 -5 -85s-2 -53 -2 -65c0 -35 1 -71 2 -105c2 -35 3 -63 5 -82c2 -20 8 -34 15 -42s18 -12 33 -12c12 0 21 1 27 2c6 2 12 5 17 10zM484 686h-255v84h255
v-84z" />
    <glyph glyph-name="Amacron" unicode="&#x100;" horiz-adv-x="576" 
d="M520 0h-166v443h-132v-443h-166v608c0 73 20 129 59 167c40 39 98 58 173 58c81 0 140 -18 177 -54s55 -93 55 -171v-608zM354 552v90c0 34 -5 59 -15 73s-26 21 -50 21c-26 0 -43 -7 -53 -21c-9 -14 -14 -38 -14 -73v-90h132zM455 862h-321v119h321v-119z" />
    <glyph glyph-name="amacron" unicode="&#x101;" horiz-adv-x="483" 
d="M442 0h-128l-15 26c-10 -10 -25 -18 -44 -24c-18 -5 -40 -8 -67 -8c-48 0 -87 21 -118 62c-30 42 -46 99 -46 172c0 80 15 140 44 177c30 38 76 57 138 57c19 0 36 -3 51 -9c14 -7 25 -15 33 -24v45c0 22 -7 39 -19 52s-30 20 -53 20c-25 0 -47 -3 -67 -8
c-19 -5 -39 -14 -61 -26v95c25 12 52 20 81 25s59 8 91 8c56 0 100 -16 132 -48c32 -31 48 -75 48 -132v-460zM290 102v233c-4 11 -9 19 -18 25c-8 6 -18 9 -31 9c-21 0 -37 -11 -46 -33c-10 -21 -15 -58 -15 -111c0 -61 4 -100 12 -118c8 -17 22 -26 42 -26c11 0 22 2 33 6
c10 5 18 10 23 15zM417 674h-321v119h321v-119z" />
    <glyph glyph-name="Abreve" unicode="&#x102;" horiz-adv-x="576" 
d="M520 0h-166v443h-132v-443h-166v608c0 73 20 129 59 167c40 39 98 58 173 58c81 0 140 -18 177 -54s55 -93 55 -171v-608zM354 552v90c0 34 -5 59 -15 73s-26 21 -50 21c-26 0 -43 -7 -53 -21c-9 -14 -14 -38 -14 -73v-90h132zM475 1018c0 -22 -5 -43 -15 -62
c-9 -19 -23 -37 -43 -53c-18 -15 -37 -27 -58 -34c-21 -8 -44 -12 -68 -12c-53 0 -97 15 -131 46c-34 30 -52 69 -52 115h90c1 -11 4 -20 9 -28c4 -7 11 -14 20 -19c7 -4 17 -7 28 -9s23 -3 36 -3c14 0 27 1 37 3c11 2 20 5 28 9c9 5 16 12 20 19c5 8 8 17 9 28h90z" />
    <glyph glyph-name="abreve" unicode="&#x103;" horiz-adv-x="483" 
d="M442 0h-128l-15 26c-10 -10 -25 -18 -44 -24c-18 -5 -40 -8 -67 -8c-48 0 -87 21 -118 62c-30 42 -46 99 -46 172c0 80 15 140 44 177c30 38 76 57 138 57c19 0 36 -3 51 -9c14 -7 25 -15 33 -24v45c0 22 -7 39 -19 52s-30 20 -53 20c-25 0 -47 -3 -67 -8
c-19 -5 -39 -14 -61 -26v95c25 12 52 20 81 25s59 8 91 8c56 0 100 -16 132 -48c32 -31 48 -75 48 -132v-460zM290 102v233c-4 11 -9 19 -18 25c-8 6 -18 9 -31 9c-21 0 -37 -11 -46 -33c-10 -21 -15 -58 -15 -111c0 -61 4 -100 12 -118c8 -17 22 -26 42 -26c11 0 22 2 33 6
c10 5 18 10 23 15zM444 820c0 -22 -5 -43 -15 -62c-9 -19 -23 -37 -43 -53c-18 -15 -37 -27 -58 -34c-21 -8 -44 -12 -68 -12c-53 0 -97 15 -131 46c-34 30 -52 69 -52 115h90c1 -11 4 -20 9 -28c4 -7 11 -14 20 -19c7 -4 17 -7 28 -9s23 -3 36 -3c14 0 27 1 37 3
c11 2 20 5 28 9c9 5 16 12 20 19c5 8 8 17 9 28h90z" />
    <glyph glyph-name="Aogonek" unicode="&#x104;" horiz-adv-x="576" 
d="M520 0h-166v443h-132v-443h-166v608c0 73 20 129 59 167c40 39 98 58 173 58c81 0 140 -18 177 -54s55 -93 55 -171v-608zM354 552v90c0 34 -5 59 -15 73s-26 21 -50 21c-26 0 -43 -7 -53 -21c-9 -14 -14 -38 -14 -73v-90h132zM457 -209c-7 -3 -16 -5 -26 -6
c-10 -2 -18 -3 -26 -3c-46 0 -82 11 -106 34c-25 22 -37 52 -37 90c0 16 4 33 12 48c8 16 19 32 35 46c12 12 24 21 36 29s24 14 36 19l65 -48c-25 -11 -44 -24 -58 -40c-13 -16 -20 -30 -20 -44c0 -17 3 -29 11 -38c7 -8 17 -12 30 -12c9 0 18 1 26 2s16 3 22 6v-83z" />
    <glyph glyph-name="aogonek" unicode="&#x105;" horiz-adv-x="483" 
d="M442 0h-128l-15 26c-10 -10 -25 -18 -44 -24c-18 -5 -40 -8 -67 -8c-48 0 -87 21 -118 62c-30 42 -46 99 -46 172c0 80 15 140 44 177c30 38 76 57 138 57c19 0 36 -3 51 -9c14 -7 25 -15 33 -24v45c0 22 -7 39 -19 52s-30 20 -53 20c-25 0 -47 -3 -67 -8
c-19 -5 -39 -14 -61 -26v95c25 12 52 20 81 25s59 8 91 8c56 0 100 -16 132 -48c32 -31 48 -75 48 -132v-460zM290 102v233c-4 11 -9 19 -18 25c-8 6 -18 9 -31 9c-21 0 -37 -11 -46 -33c-10 -21 -15 -58 -15 -111c0 -61 4 -100 12 -118c8 -17 22 -26 42 -26c11 0 22 2 33 6
c10 5 18 10 23 15zM454 -209c-7 -3 -16 -5 -26 -6c-10 -2 -18 -3 -26 -3c-46 0 -82 11 -106 34c-25 22 -37 52 -37 90c0 16 4 33 12 48c8 16 19 32 35 46c12 12 24 21 36 29s24 14 36 19l65 -48c-25 -11 -44 -24 -58 -40c-13 -16 -20 -30 -20 -44c0 -17 3 -29 11 -38
c7 -8 17 -12 30 -12c9 0 18 1 26 2s16 3 22 6v-83z" />
    <glyph glyph-name="Dcaron" unicode="&#x10e;" horiz-adv-x="564" 
d="M527 416c0 -158 -20 -267 -60 -326c-41 -60 -111 -90 -213 -90h-193v824h165c120 0 200 -29 241 -88c40 -58 60 -165 60 -320zM356 408c0 124 -7 210 -22 256c-14 47 -40 70 -78 70h-29v-644h29c38 0 64 14 78 41c15 28 22 120 22 277zM465 1023l-146 -160h-112l-146 160
h115l87 -77l87 77h115z" />
    <glyph glyph-name="dcaron" unicode="&#x10f;" horiz-adv-x="643" 
d="M447 0h-129l-13 25c-17 -13 -33 -21 -47 -25c-15 -3 -33 -5 -56 -5c-44 0 -80 15 -108 44c-29 29 -46 69 -52 120c-3 25 -5 53 -7 83s-3 60 -3 89c0 33 2 66 5 100c4 33 8 58 13 76c12 42 30 74 57 97c26 24 58 36 96 36c22 0 40 -2 53 -6c13 -3 25 -9 35 -18v208h156
v-824zM291 100v430c-7 3 -14 5 -20 7c-7 2 -13 3 -18 3c-17 0 -30 -5 -38 -14c-9 -9 -14 -25 -16 -47c-2 -25 -4 -54 -5 -85s-2 -53 -2 -65c0 -35 1 -71 2 -105c2 -35 3 -63 5 -82c2 -20 8 -34 15 -42s18 -12 33 -12c12 0 21 1 27 2c6 2 12 5 17 10zM663 652l-103 -145h-72
l49 145h-41v172h167v-172z" />
    <glyph glyph-name="Dcroat" unicode="&#x110;" horiz-adv-x="564" 
d="M522 416c0 -158 -20 -267 -61 -326c-40 -60 -111 -90 -212 -90h-193v824h164c121 0 201 -29 241 -88c41 -58 61 -165 61 -320zM351 408c0 124 -8 210 -22 256c-14 47 -40 70 -78 70h-29v-644h29c37 0 63 14 78 41c14 28 22 120 22 277zM316 450h-317v103h317v-103z" />
    <glyph glyph-name="Emacron" unicode="&#x112;" horiz-adv-x="483" 
d="M462 0h-190c-70 0 -122 17 -158 52c-35 35 -53 88 -53 159v401c0 84 15 141 46 169c31 29 88 43 171 43h163v-93h-119c-36 0 -61 -8 -75 -23c-13 -16 -20 -44 -20 -84v-71h197v-111h-197v-212c0 -49 8 -84 25 -105c17 -22 45 -32 86 -32h124v-93zM440 862h-321v119h321
v-119z" />
    <glyph glyph-name="emacron" unicode="&#x113;" horiz-adv-x="444" 
d="M416 308h-228c0 -93 4 -152 11 -178c7 -25 22 -38 45 -38c15 0 27 5 34 15c8 9 12 26 12 50h111c0 -56 -14 -97 -43 -123c-28 -27 -72 -40 -131 -40c-65 0 -115 27 -149 81c-34 55 -51 135 -51 242s18 187 53 241c35 55 88 82 159 82c61 0 105 -22 134 -66
c29 -43 43 -108 43 -195v-71zM287 398c0 55 -3 93 -9 113c-6 21 -19 31 -40 31c-20 0 -34 -9 -40 -27s-9 -57 -9 -117h98zM393 670h-321v119h321v-119z" />
    <glyph glyph-name="Edotaccent" unicode="&#x116;" horiz-adv-x="483" 
d="M462 0h-190c-70 0 -122 17 -158 52c-35 35 -53 88 -53 159v401c0 84 15 141 46 169c31 29 88 43 171 43h163v-93h-119c-36 0 -61 -8 -75 -23c-13 -16 -20 -44 -20 -84v-71h197v-111h-197v-212c0 -49 8 -84 25 -105c17 -22 45 -32 86 -32h124v-93zM367 863h-156v154h156
v-154z" />
    <glyph glyph-name="edotaccent" unicode="&#x117;" horiz-adv-x="444" 
d="M416 308h-228c0 -93 4 -152 11 -178c7 -25 22 -38 45 -38c15 0 27 5 34 15c8 9 12 26 12 50h111c0 -56 -14 -97 -43 -123c-28 -27 -72 -40 -131 -40c-65 0 -115 27 -149 81c-34 55 -51 135 -51 242s18 187 53 241c35 55 88 82 159 82c61 0 105 -22 134 -66
c29 -43 43 -108 43 -195v-71zM287 398c0 55 -3 93 -9 113c-6 21 -19 31 -40 31c-20 0 -34 -9 -40 -27s-9 -57 -9 -117h98zM310 663h-156v154h156v-154z" />
    <glyph glyph-name="Eogonek" unicode="&#x118;" horiz-adv-x="483" 
d="M462 0h-190c-70 0 -122 17 -158 52c-35 35 -53 88 -53 159v401c0 84 15 141 46 169c31 29 88 43 171 43h163v-93h-119c-36 0 -61 -8 -75 -23c-13 -16 -20 -44 -20 -84v-71h197v-111h-197v-212c0 -49 8 -84 25 -105c17 -22 45 -32 86 -32h124v-93zM393 -209
c-7 -3 -16 -5 -26 -6c-10 -2 -18 -3 -26 -3c-46 0 -82 11 -106 34c-25 22 -37 52 -37 90c0 16 4 33 12 48c8 16 19 32 35 46c12 12 24 21 36 29s24 14 36 19l65 -48c-25 -11 -44 -24 -58 -40c-13 -16 -20 -30 -20 -44c0 -17 3 -29 11 -38c7 -8 17 -12 30 -12c9 0 18 1 26 2
s16 3 22 6v-83z" />
    <glyph glyph-name="eogonek" unicode="&#x119;" horiz-adv-x="444" 
d="M416 308h-228c0 -93 4 -152 11 -178c7 -25 22 -38 45 -38c15 0 27 5 34 15c8 9 12 26 12 50h111c0 -56 -14 -97 -43 -123c-28 -27 -72 -40 -131 -40c-65 0 -115 27 -149 81c-34 55 -51 135 -51 242s18 187 53 241c35 55 88 82 159 82c61 0 105 -22 134 -66
c29 -43 43 -108 43 -195v-71zM287 398c0 55 -3 93 -9 113c-6 21 -19 31 -40 31c-20 0 -34 -9 -40 -27s-9 -57 -9 -117h98zM334 -196c-7 -3 -16 -5 -26 -6c-10 -2 -18 -3 -26 -3c-46 0 -82 11 -106 34c-25 22 -37 52 -37 90c0 16 4 33 12 48c8 16 19 32 35 46
c12 12 24 21 36 29s24 14 36 19l65 -48c-25 -11 -44 -24 -58 -40c-13 -16 -20 -30 -20 -44c0 -17 3 -29 11 -38c7 -8 17 -12 30 -12c9 0 18 1 26 2s16 3 22 6v-83z" />
    <glyph glyph-name="Ecaron" unicode="&#x11a;" horiz-adv-x="483" 
d="M462 0h-190c-70 0 -122 17 -158 52c-35 35 -53 88 -53 159v401c0 84 15 141 46 169c31 29 88 43 171 43h163v-93h-119c-36 0 -61 -8 -75 -23c-13 -16 -20 -44 -20 -84v-71h197v-111h-197v-212c0 -49 8 -84 25 -105c17 -22 45 -32 86 -32h124v-93zM479 1023l-146 -160
h-112l-146 160h115l87 -77l87 77h115z" />
    <glyph glyph-name="ecaron" unicode="&#x11b;" horiz-adv-x="444" 
d="M416 308h-228c0 -93 4 -152 11 -178c7 -25 22 -38 45 -38c15 0 27 5 34 15c8 9 12 26 12 50h111c0 -56 -14 -97 -43 -123c-28 -27 -72 -40 -131 -40c-65 0 -115 27 -149 81c-34 55 -51 135 -51 242s18 187 53 241c35 55 88 82 159 82c61 0 105 -22 134 -66
c29 -43 43 -108 43 -195v-71zM287 398c0 55 -3 93 -9 113c-6 21 -19 31 -40 31c-20 0 -34 -9 -40 -27s-9 -57 -9 -117h98zM431 824l-146 -160h-112l-146 160h115l87 -77l87 77h115z" />
    <glyph glyph-name="Gcedilla" unicode="&#x122;" horiz-adv-x="522" 
d="M490 171c-14 -65 -38 -112 -72 -141c-33 -29 -81 -43 -144 -43c-87 0 -150 32 -187 96s-56 173 -56 328c0 148 19 255 56 322c37 66 98 100 182 100c67 0 118 -20 152 -58c35 -39 53 -94 53 -167h-160c0 47 -3 77 -11 90c-7 12 -19 19 -35 19c-28 0 -46 -22 -54 -65
s-12 -124 -12 -241c0 -127 5 -211 16 -253c10 -41 29 -62 57 -62c21 0 37 9 48 28c11 18 16 42 16 72v148h-72v115h223v-288zM416 -123c0 -37 -12 -65 -36 -85c-24 -19 -60 -29 -108 -29c-8 0 -17 1 -26 2c-8 2 -17 4 -25 7v83c5 -3 12 -5 22 -7c10 -3 19 -4 26 -4
c12 0 21 3 28 9s10 14 10 26s-4 21 -11 26c-8 5 -17 7 -28 7h-37v93h80v-30c20 -3 37 -7 52 -13c14 -6 25 -14 32 -23c7 -7 12 -16 16 -27c3 -10 5 -22 5 -35z" />
    <glyph glyph-name="gcedilla" unicode="&#x123;" 
d="M448 20c0 -62 -20 -109 -59 -143c-40 -34 -93 -51 -160 -51c-28 0 -57 3 -85 8c-29 5 -55 13 -79 24l19 86c16 -6 37 -12 62 -17c24 -5 47 -7 67 -7c32 0 55 8 69 26c15 17 23 42 23 75c0 4 0 8 -1 13c0 5 -1 11 -1 17c-7 -11 -20 -20 -39 -26c-20 -7 -43 -10 -69 -10
c-44 0 -78 12 -103 37c-25 26 -41 66 -50 122c-3 22 -6 46 -8 71c-1 26 -2 54 -2 85c0 32 2 66 5 100c4 34 8 59 13 77c12 42 30 74 57 97c26 24 58 36 96 36c18 0 34 -2 48 -6c14 -3 28 -9 42 -18v16h155v-612zM293 117v413c-5 3 -11 5 -19 7s-15 3 -21 3
c-17 0 -30 -5 -38 -13s-14 -24 -16 -48s-4 -50 -5 -77c-1 -28 -2 -53 -2 -74c0 -34 1 -66 2 -96c2 -30 3 -55 5 -75c2 -19 7 -33 15 -42c7 -8 18 -12 33 -12c10 0 19 1 26 3s13 6 20 11zM329 1000l-49 -145h40v-172h-167v172l104 145h72z" />
    <glyph glyph-name="Imacron" unicode="&#x12a;" horiz-adv-x="317" 
d="M242 0h-166v824h166v-824zM397 862h-321v119h321v-119z" />
    <glyph glyph-name="imacron" unicode="&#x12b;" horiz-adv-x="249" 
d="M205 0h-156v632h156v-632zM370 674h-321v119h321v-119z" />
    <glyph glyph-name="logonek" horiz-adv-x="317" 
d="M242 0h-166v824h166v-824zM271 -209c-7 -3 -16 -5 -26 -6c-10 -2 -18 -3 -26 -3c-46 0 -82 11 -106 34c-25 22 -37 52 -37 90c0 16 4 33 12 48c8 16 19 32 35 46c12 12 24 21 36 29s24 14 36 19l65 -48c-25 -11 -44 -24 -58 -40c-13 -16 -20 -30 -20 -44
c0 -17 3 -29 11 -38c7 -8 17 -12 30 -12c9 0 18 1 26 2s16 3 22 6v-83z" />
    <glyph glyph-name="iogonek" unicode="&#x12f;" horiz-adv-x="249" 
d="M205 0h-156v632h156v-632zM244 -209c-7 -3 -16 -5 -26 -6c-10 -2 -18 -3 -26 -3c-46 0 -82 11 -106 34c-25 22 -37 52 -37 90c0 16 4 33 12 48c8 16 19 32 35 46c12 12 24 21 36 29s24 14 36 19l65 -48c-25 -11 -44 -24 -58 -40c-13 -16 -20 -30 -20 -44
c0 -17 3 -29 11 -38c7 -8 17 -12 30 -12c9 0 18 1 26 2s16 3 22 6v-83z" />
    <glyph glyph-name="IJ" unicode="&#x132;" horiz-adv-x="707" 
d="M242 0h-166v824h166v-824zM651 174c0 -58 -18 -104 -54 -137c-36 -34 -87 -50 -152 -50c-59 0 -104 12 -135 35c-30 23 -50 62 -60 115l106 33c6 -26 14 -45 24 -55s24 -15 44 -15c21 0 37 6 47 19s15 32 15 57v648h165v-650z" />
    <glyph glyph-name="ij" unicode="&#x133;" horiz-adv-x="524" 
d="M205 680h-156v144h156v-144zM205 0h-156v632h156v-632zM476 680h-156v144h156v-144zM476 -18c0 -49 -16 -87 -47 -115c-32 -27 -77 -41 -135 -41c-26 0 -49 2 -70 5s-38 8 -51 14l16 83c9 -3 20 -5 33 -6s27 -2 43 -2c20 0 35 5 43 17c8 11 12 30 12 59v636h156v-650z
" />
    <glyph glyph-name="Inodot" horiz-adv-x="317" 
d="M242 0h-166v824h166v-824z" />
    <glyph glyph-name="idot" horiz-adv-x="249" 
d="M205 680h-156v144h156v-144zM205 0h-156v632h156v-632z" />
    <glyph glyph-name="Kcedilla" unicode="&#x136;" horiz-adv-x="581" 
d="M585 0h-90c-40 0 -75 12 -106 35c-30 23 -46 52 -46 86v165c0 37 -6 63 -18 77s-35 21 -68 21h-30v-384h-166v824h166v-349l42 -1c14 0 25 4 34 13c9 8 14 31 16 69l12 268h155l-12 -244c-2 -40 -11 -69 -28 -86c-16 -17 -40 -29 -73 -36c42 -6 74 -21 96 -44
c22 -24 33 -55 33 -94v-122c0 -49 6 -79 18 -90c12 -10 33 -15 65 -15v-93zM316 -36c0 -37 -12 -65 -36 -85c-24 -19 -60 -29 -108 -29c-8 0 -17 1 -26 2c-8 2 -17 4 -25 7v83c5 -3 12 -5 22 -7c10 -3 19 -4 26 -4c12 0 21 3 28 9s10 14 10 26s-4 21 -11 26
c-8 5 -17 7 -28 7h-37v93h80v-30c20 -3 37 -7 52 -13c14 -6 25 -14 32 -23c7 -7 12 -16 16 -27c3 -10 5 -22 5 -35z" />
    <glyph glyph-name="kcedilla" unicode="&#x137;" 
d="M492 0h-77c-40 0 -71 11 -92 34s-31 58 -31 104v126c0 19 -6 33 -16 42c-10 10 -24 15 -40 15h-39v-321h-155v824h155v-419h34c10 0 18 2 23 6c6 4 10 12 13 23l51 198h130l-54 -191c-8 -30 -15 -49 -22 -56c-6 -7 -16 -12 -27 -15c32 0 56 -8 73 -26
c18 -17 26 -41 26 -72v-152c0 -14 4 -23 10 -28s19 -7 38 -7v-85zM271 -36c0 -37 -12 -65 -36 -85c-24 -19 -60 -29 -108 -29c-8 0 -17 1 -26 2c-8 2 -17 4 -25 7v83c5 -3 12 -5 22 -7c10 -3 19 -4 26 -4c12 0 21 3 28 9s10 14 10 26s-4 21 -11 26c-8 5 -17 7 -28 7h-37v93
h80v-30c20 -3 37 -7 52 -13c14 -6 25 -14 32 -23c7 -7 12 -16 16 -27c3 -10 5 -22 5 -35z" />
    <glyph glyph-name="Lacute" unicode="&#x139;" horiz-adv-x="469" 
d="M466 0h-208c-64 0 -113 17 -146 52c-34 34 -51 83 -51 146v626h166v-620c0 -45 8 -75 24 -89c17 -15 40 -22 69 -22h146v-93zM360 1023l-146 -160h-125l124 160h147z" />
    <glyph glyph-name="lacute" unicode="&#x13a;" horiz-adv-x="278" 
d="M266 0h-98c-38 0 -67 11 -87 32s-30 53 -30 95v697h156v-690c0 -18 4 -30 12 -38c8 -7 24 -11 47 -11v-85zM341 1023l-146 -160h-125l124 160h147z" />
    <glyph glyph-name="Lcedilla" unicode="&#x13b;" horiz-adv-x="469" 
d="M466 0h-208c-64 0 -113 17 -146 52c-34 34 -51 83 -51 146v626h166v-620c0 -45 8 -75 24 -89c17 -15 40 -22 69 -22h146v-93zM428 -112c0 -37 -12 -65 -36 -85c-24 -19 -60 -29 -108 -29c-8 0 -17 1 -26 2c-8 2 -17 4 -25 7v83c5 -3 12 -5 22 -7c10 -3 19 -4 26 -4
c12 0 21 3 28 9s10 14 10 26s-4 21 -11 26c-8 5 -17 7 -28 7h-37v93h80v-30c20 -3 37 -7 52 -13c14 -6 25 -14 32 -23c7 -7 12 -16 16 -27c3 -10 5 -22 5 -35z" />
    <glyph glyph-name="lcedilla" unicode="&#x13c;" horiz-adv-x="278" 
d="M266 0h-98c-38 0 -67 11 -87 32s-30 53 -30 95v697h156v-690c0 -18 4 -30 12 -38c8 -7 24 -11 47 -11v-85zM310 -115c0 -37 -12 -65 -36 -85c-24 -19 -60 -29 -108 -29c-8 0 -17 1 -26 2c-8 2 -17 4 -25 7v83c5 -3 12 -5 22 -7c10 -3 19 -4 26 -4c12 0 21 3 28 9
s10 14 10 26s-4 21 -11 26c-8 5 -17 7 -28 7h-37v93h80v-30c20 -3 37 -7 52 -13c14 -6 25 -14 32 -23c7 -7 12 -16 16 -27c3 -10 5 -22 5 -35z" />
    <glyph glyph-name="Lcaron" unicode="&#x13d;" horiz-adv-x="469" 
d="M466 0h-208c-64 0 -113 17 -146 52c-34 34 -51 83 -51 146v626h166v-620c0 -45 8 -75 24 -89c17 -15 40 -22 69 -22h146v-93zM465 652l-103 -145h-72l49 145h-41v172h167v-172z" />
    <glyph glyph-name="lcaron" unicode="&#x13e;" horiz-adv-x="442" 
d="M266 0h-98c-38 0 -67 11 -87 32s-30 53 -30 95v697h156v-690c0 -18 4 -30 12 -38c8 -7 24 -11 47 -11v-85zM428 652l-103 -145h-72l49 145h-41v172h167v-172z" />
    <glyph glyph-name="Ldotaccent" unicode="&#x13f;" horiz-adv-x="469" 
d="M466 0h-208c-64 0 -113 17 -146 52c-34 34 -51 83 -51 146v626h166v-620c0 -45 8 -75 24 -89c17 -15 40 -22 69 -22h146v-93zM450 302h-171v172h171v-172z" />
    <glyph glyph-name="ldotaccent" unicode="&#x140;" horiz-adv-x="447" 
d="M266 0h-98c-38 0 -67 11 -87 32s-30 53 -30 95v697h156v-690c0 -18 4 -30 12 -38c8 -7 24 -11 47 -11v-85zM439 302h-171v172h171v-172z" />
    <glyph glyph-name="Nacute" unicode="&#x143;" horiz-adv-x="549" 
d="M504 0h-166v652c0 25 -7 43 -20 56c-13 12 -33 18 -61 18h-30v-726h-166v824h132l18 -36c15 12 33 22 55 27c22 6 45 9 71 9c52 0 93 -14 123 -44c29 -29 44 -70 44 -121v-659zM467 1023l-146 -160h-125l124 160h147z" />
    <glyph glyph-name="nacute" unicode="&#x144;" 
d="M457 0h-157v482c0 18 -5 32 -14 41c-10 9 -23 13 -40 13c-8 0 -16 -1 -26 -2c-9 -2 -17 -4 -23 -6v-528h-155v632h127l10 -28c22 13 42 22 61 28c19 5 41 8 66 8c47 0 84 -13 111 -40c26 -26 40 -63 40 -112v-488zM431 824l-146 -160h-125l124 160h147z" />
    <glyph glyph-name="Ncedilla" unicode="&#x145;" horiz-adv-x="549" 
d="M504 0h-166v652c0 25 -7 43 -20 56c-13 12 -33 18 -61 18h-30v-726h-166v824h132l18 -36c15 12 33 22 55 27c22 6 45 9 71 9c52 0 93 -14 123 -44c29 -29 44 -70 44 -121v-659zM293 -35c0 -37 -12 -65 -36 -85c-24 -19 -60 -29 -108 -29c-8 0 -17 1 -26 2
c-8 2 -17 4 -25 7v83c5 -3 12 -5 22 -7c10 -3 19 -4 26 -4c12 0 21 3 28 9s10 14 10 26s-4 21 -11 26c-8 5 -17 7 -28 7h-37v93h80v-30c20 -3 37 -7 52 -13c14 -6 25 -14 32 -23c7 -7 12 -16 16 -27c3 -10 5 -22 5 -35z" />
    <glyph glyph-name="ncedilla" unicode="&#x146;" 
d="M457 0h-157v482c0 18 -5 32 -14 41c-10 9 -23 13 -40 13c-8 0 -16 -1 -26 -2c-9 -2 -17 -4 -23 -6v-528h-155v632h127l10 -28c22 13 42 22 61 28c19 5 41 8 66 8c47 0 84 -13 111 -40c26 -26 40 -63 40 -112v-488zM269 -35c0 -37 -12 -65 -36 -85
c-24 -19 -60 -29 -108 -29c-8 0 -17 1 -26 2c-8 2 -17 4 -25 7v83c5 -3 12 -5 22 -7c10 -3 19 -4 26 -4c12 0 21 3 28 9s10 14 10 26s-4 21 -11 26c-8 5 -17 7 -28 7h-37v93h80v-30c20 -3 37 -7 52 -13c14 -6 25 -14 32 -23c7 -7 12 -16 16 -27c3 -10 5 -22 5 -35z" />
    <glyph glyph-name="Ncaron" unicode="&#x147;" horiz-adv-x="549" 
d="M504 0h-166v652c0 25 -7 43 -20 56c-13 12 -33 18 -61 18h-30v-726h-166v824h132l18 -36c15 12 33 22 55 27c22 6 45 9 71 9c52 0 93 -14 123 -44c29 -29 44 -70 44 -121v-659zM486 1023l-146 -160h-112l-146 160h115l87 -77l87 77h115z" />
    <glyph glyph-name="ncaron" unicode="&#x148;" 
d="M457 0h-157v482c0 18 -5 32 -14 41c-10 9 -23 13 -40 13c-8 0 -16 -1 -26 -2c-9 -2 -17 -4 -23 -6v-528h-155v632h127l10 -28c22 13 42 22 61 28c19 5 41 8 66 8c47 0 84 -13 111 -40c26 -26 40 -63 40 -112v-488zM450 824l-146 -160h-112l-146 160h115l87 -77l87 77h115
z" />
    <glyph glyph-name="napostrophe" unicode="&#x149;" horiz-adv-x="681" 
d="M640 0h-157v482c0 18 -4 32 -14 41s-23 13 -40 13c-8 0 -16 -1 -25 -2c-10 -2 -17 -4 -24 -6v-528h-155v632h128l9 -28c22 13 42 22 61 28c19 5 41 8 66 8c47 0 84 -13 111 -40c26 -26 40 -63 40 -112v-488zM190 653l-103 -145h-72l49 145h-41v172h167v-172z" />
    <glyph glyph-name="Omacron" unicode="&#x14c;" horiz-adv-x="549" 
d="M519 411c0 -168 -21 -280 -61 -338c-41 -57 -102 -86 -183 -86s-142 29 -183 86c-41 58 -61 171 -61 338c0 169 20 281 61 338c41 56 102 84 183 84c82 0 143 -26 183 -77c41 -51 61 -166 61 -345zM347 411c0 99 -3 175 -10 228s-27 79 -62 79c-34 0 -55 -27 -62 -80
c-7 -54 -11 -129 -11 -227c0 -111 4 -190 12 -238c7 -48 28 -71 61 -71c36 0 56 26 63 79c6 54 9 130 9 230zM436 862h-321v119h321v-119z" />
    <glyph glyph-name="omacron" unicode="&#x14d;" horiz-adv-x="469" 
d="M443 317c0 -112 -17 -194 -52 -246c-34 -51 -86 -77 -157 -77c-68 0 -120 27 -155 81c-34 55 -52 135 -52 242c0 111 17 192 51 244c34 53 86 79 156 79c75 0 128 -27 161 -79c32 -53 48 -134 48 -244zM280 317c0 101 -2 164 -7 189c-5 24 -18 36 -39 36
c-20 0 -33 -12 -38 -38c-5 -25 -8 -88 -8 -189c0 -98 3 -160 9 -185c5 -25 18 -38 37 -38s31 14 37 40c6 27 9 89 9 185zM394 669h-321v119h321v-119z" />
    <glyph glyph-name="Ohungarumlaut" unicode="&#x150;" horiz-adv-x="549" 
d="M519 411c0 -168 -21 -280 -61 -338c-41 -57 -102 -86 -183 -86s-142 29 -183 86c-41 58 -61 171 -61 338c0 169 20 281 61 338c41 56 102 84 183 84c82 0 143 -26 183 -77c41 -51 61 -166 61 -345zM347 411c0 99 -3 175 -10 228s-27 79 -62 79c-34 0 -55 -27 -62 -80
c-7 -54 -11 -129 -11 -227c0 -111 4 -190 12 -238c7 -48 28 -71 61 -71c36 0 56 26 63 79c6 54 9 130 9 230zM545 1023l-136 -160h-111l104 160h143zM347 1023l-137 -160h-110l104 160h143z" />
    <glyph glyph-name="ohungarumlaut" unicode="&#x151;" horiz-adv-x="469" 
d="M443 317c0 -112 -17 -194 -52 -246c-34 -51 -86 -77 -157 -77c-68 0 -120 27 -155 81c-34 55 -52 135 -52 242c0 111 17 192 51 244c34 53 86 79 156 79c75 0 128 -27 161 -79c32 -53 48 -134 48 -244zM280 317c0 101 -2 164 -7 189c-5 24 -18 36 -39 36
c-20 0 -33 -12 -38 -38c-5 -25 -8 -88 -8 -189c0 -98 3 -160 9 -185c5 -25 18 -38 37 -38s31 14 37 40c6 27 9 89 9 185zM493 824l-136 -160h-111l104 160h143zM295 824l-137 -160h-110l104 160h143z" />
    <glyph glyph-name="Racute" unicode="&#x154;" horiz-adv-x="581" 
d="M575 0h-38c-63 0 -109 14 -136 41s-40 72 -40 133v143c0 22 -6 37 -17 48s-27 16 -48 16h-69v-381h-166v824h253c69 0 120 -16 152 -47c32 -32 48 -81 48 -146c0 -50 -10 -90 -30 -120c-19 -30 -48 -52 -88 -63c40 -5 70 -19 92 -44s33 -55 33 -91v-171
c0 -19 4 -32 11 -39c7 -8 21 -11 43 -11v-92zM347 603c0 51 -6 85 -17 103s-30 27 -59 27h-44v-254h48c25 0 44 9 55 27c11 19 17 51 17 97zM455 1023l-146 -160h-125l124 160h147z" />
    <glyph glyph-name="racute" unicode="&#x155;" horiz-adv-x="352" 
d="M346 495c-13 5 -25 8 -37 11s-25 4 -39 4c-15 0 -29 -1 -43 -3s-24 -5 -30 -10v-497h-155v632h127l10 -29c14 13 31 22 50 28s40 9 63 9c10 0 19 -1 28 -4c9 -2 18 -5 26 -9v-132zM365 824l-146 -160h-125l124 160h147z" />
    <glyph glyph-name="Rcedilla" unicode="&#x156;" horiz-adv-x="581" 
d="M575 0h-38c-63 0 -109 14 -136 41s-40 72 -40 133v143c0 22 -6 37 -17 48s-27 16 -48 16h-69v-381h-166v824h253c69 0 120 -16 152 -47c32 -32 48 -81 48 -146c0 -50 -10 -90 -30 -120c-19 -30 -48 -52 -88 -63c40 -5 70 -19 92 -44s33 -55 33 -91v-171
c0 -19 4 -32 11 -39c7 -8 21 -11 43 -11v-92zM347 603c0 51 -6 85 -17 103s-30 27 -59 27h-44v-254h48c25 0 44 9 55 27c11 19 17 51 17 97zM319 -35c0 -37 -12 -65 -36 -85c-24 -19 -60 -29 -108 -29c-8 0 -17 1 -26 2c-8 2 -17 4 -25 7v83c5 -3 12 -5 22 -7
c10 -3 19 -4 26 -4c12 0 21 3 28 9s10 14 10 26s-4 21 -11 26c-8 5 -17 7 -28 7h-37v93h80v-30c20 -3 37 -7 52 -13c14 -6 25 -14 32 -23c7 -7 12 -16 16 -27c3 -10 5 -22 5 -35z" />
    <glyph glyph-name="rcedilla" unicode="&#x157;" horiz-adv-x="352" 
d="M346 495c-13 5 -25 8 -37 11s-25 4 -39 4c-15 0 -29 -1 -43 -3s-24 -5 -30 -10v-497h-155v632h127l10 -29c14 13 31 22 50 28s40 9 63 9c10 0 19 -1 28 -4c9 -2 18 -5 26 -9v-132zM285 -36c0 -37 -12 -65 -36 -85c-24 -19 -60 -29 -108 -29c-8 0 -17 1 -26 2
c-8 2 -17 4 -25 7v83c5 -3 12 -5 22 -7c10 -3 19 -4 26 -4c12 0 21 3 28 9s10 14 10 26s-4 21 -11 26c-8 5 -17 7 -28 7h-37v93h80v-30c20 -3 37 -7 52 -13c14 -6 25 -14 32 -23c7 -7 12 -16 16 -27c3 -10 5 -22 5 -35z" />
    <glyph glyph-name="Rcircumflex" horiz-adv-x="581" 
d="M575 0h-38c-63 0 -109 14 -136 41s-40 72 -40 133v143c0 22 -6 37 -17 48s-27 16 -48 16h-69v-381h-166v824h253c69 0 120 -16 152 -47c32 -32 48 -81 48 -146c0 -50 -10 -90 -30 -120c-19 -30 -48 -52 -88 -63c40 -5 70 -19 92 -44s33 -55 33 -91v-171
c0 -19 4 -32 11 -39c7 -8 21 -11 43 -11v-92zM347 603c0 51 -6 85 -17 103s-30 27 -59 27h-44v-254h48c25 0 44 9 55 27c11 19 17 51 17 97zM475 863h-115l-87 77l-87 -77h-115l146 160h112z" />
    <glyph glyph-name="rcircumflex" horiz-adv-x="352" 
d="M346 495c-13 5 -25 8 -37 11s-25 4 -39 4c-15 0 -29 -1 -43 -3s-24 -5 -30 -10v-497h-155v632h127l10 -29c14 13 31 22 50 28s40 9 63 9c10 0 19 -1 28 -4c9 -2 18 -5 26 -9v-132zM446 664h-115l-87 77l-87 -77h-115l146 160h112z" />
    <glyph glyph-name="Sacute" unicode="&#x15a;" horiz-adv-x="466" 
d="M459 220c0 -77 -20 -135 -59 -174s-96 -59 -172 -59c-68 0 -121 18 -159 53c-39 35 -58 86 -58 152h155c0 -27 5 -48 16 -63s28 -22 50 -22s40 7 52 20c13 13 19 31 19 55s-5 46 -14 66c-10 19 -25 39 -44 60c-11 11 -35 33 -73 67c-39 35 -61 55 -68 61
c-30 29 -52 60 -66 91s-21 65 -21 101c0 62 20 112 59 149c40 37 91 56 154 56s113 -18 149 -54s55 -86 55 -149h-156c0 27 -5 48 -14 62c-10 14 -25 21 -45 21c-17 0 -30 -5 -39 -16s-13 -27 -13 -46c0 -15 4 -30 12 -45c9 -14 25 -32 49 -54c3 -3 25 -21 64 -55
c40 -34 69 -60 85 -78c30 -31 51 -62 63 -94c13 -31 19 -66 19 -105zM400 1023l-146 -160h-125l124 160h147z" />
    <glyph glyph-name="sacute" unicode="&#x15b;" horiz-adv-x="396" 
d="M381 164c0 -53 -16 -95 -48 -125c-31 -29 -75 -44 -130 -44c-60 0 -105 14 -135 41c-30 28 -45 70 -45 126h126c0 -23 4 -40 12 -50c9 -11 21 -16 37 -16s28 4 35 12c8 9 12 21 12 37c0 15 -8 31 -25 49c-16 17 -43 42 -80 75c-48 41 -78 76 -91 106
c-12 31 -19 68 -19 113c0 46 16 83 48 110c32 28 75 42 127 42c56 0 99 -15 128 -43c30 -28 45 -68 45 -120h-124c0 18 -4 34 -13 45c-8 12 -20 18 -35 18c-13 0 -23 -4 -31 -11c-9 -8 -13 -19 -13 -33c0 -18 5 -34 15 -50c9 -17 39 -46 88 -90c44 -38 74 -71 91 -98
c16 -28 25 -59 25 -94zM393 824l-146 -160h-125l124 160h147z" />
    <glyph glyph-name="Tcedilla" unicode="&#x162;" horiz-adv-x="483" 
d="M479 731h-156v-731h-166v731h-155v93h477v-93zM411 -35c0 -37 -12 -65 -36 -85c-24 -19 -60 -29 -108 -29c-8 0 -17 1 -26 2c-8 2 -17 4 -25 7v83c5 -3 12 -5 22 -7c10 -3 19 -4 26 -4c12 0 21 3 28 9s10 14 10 26s-4 21 -11 26c-8 5 -17 7 -28 7h-37v93h80v-30
c20 -3 37 -7 52 -13c14 -6 25 -14 32 -23c7 -7 12 -16 16 -27c3 -10 5 -22 5 -35z" />
    <glyph glyph-name="tcedilla" unicode="&#x163;" horiz-adv-x="332" 
d="M318 552h-96v-394c0 -29 5 -48 17 -58s34 -15 66 -15v-85h-89c-50 0 -88 12 -113 37c-26 25 -39 63 -39 115v401h-60v79h60v192h158v-192h96v-80zM319 -110c0 -37 -12 -65 -36 -85c-24 -19 -60 -29 -108 -29c-8 0 -17 1 -26 2c-8 2 -17 4 -25 7v83c5 -3 12 -5 22 -7
c10 -3 19 -4 26 -4c12 0 21 3 28 9s10 14 10 26s-4 21 -11 26c-8 5 -17 7 -28 7h-37v93h80v-30c20 -3 37 -7 52 -13c14 -6 25 -14 32 -23c7 -7 12 -16 16 -27c3 -10 5 -22 5 -35z" />
    <glyph glyph-name="Tcaron" unicode="&#x164;" horiz-adv-x="483" 
d="M479 731h-156v-731h-166v731h-155v93h477v-93zM441 1023l-146 -160h-112l-146 160h115l87 -77l87 77h115z" />
    <glyph glyph-name="tcaron" unicode="&#x165;" horiz-adv-x="332" 
d="M316 552h-96v-394c0 -29 6 -48 18 -58c11 -10 33 -15 66 -15v-85h-89c-50 0 -88 12 -114 37s-38 63 -38 115v401h-60v79h59v192h158v-192h96v-80zM352 1023l-146 -160h-112l-146 160h115l87 -77l87 77h115z" />
    <glyph glyph-name="Umacron" unicode="&#x16a;" horiz-adv-x="566" 
d="M511 227c0 -81 -18 -142 -56 -181c-37 -39 -94 -59 -171 -59c-74 0 -130 20 -169 61s-59 100 -59 179v597h166v-593c0 -45 4 -77 13 -95c9 -19 25 -28 49 -28c23 0 39 9 48 26c9 18 13 50 13 97v593h166v-597zM447 862h-321v119h321v-119z" />
    <glyph glyph-name="umacron" unicode="&#x16b;" 
d="M457 0h-128l-12 29c-11 -11 -29 -20 -52 -27c-23 -6 -47 -10 -71 -10c-53 0 -91 14 -116 41c-24 27 -36 70 -36 127v472h156v-480c0 -19 4 -34 13 -43s21 -13 38 -13c9 0 18 0 28 2c9 1 17 4 24 7v527h156v-632zM414 674h-321v119h321v-119z" />
    <glyph glyph-name="Uring" unicode="&#x16e;" horiz-adv-x="566" 
d="M511 227c0 -81 -18 -142 -56 -181c-37 -39 -94 -59 -171 -59c-74 0 -130 20 -169 61s-59 100 -59 179v597h166v-593c0 -45 4 -77 13 -95c9 -19 25 -28 49 -28c23 0 39 9 48 26c9 18 13 50 13 97v593h166v-597zM417 961c0 -33 -13 -61 -38 -84c-26 -24 -57 -36 -94 -36
s-68 12 -94 35c-25 24 -38 52 -38 85c0 34 13 62 38 85c26 24 57 36 94 36s68 -12 94 -36c25 -23 38 -51 38 -85zM329 961c0 13 -4 23 -13 31c-8 8 -18 12 -31 12c-12 0 -23 -4 -31 -12c-9 -9 -13 -19 -13 -31s4 -22 13 -30c8 -8 18 -13 31 -13c12 0 23 5 31 13
c9 9 13 19 13 30z" />
    <glyph glyph-name="uring" unicode="&#x16f;" 
d="M457 0h-128l-12 29c-11 -11 -29 -20 -52 -27c-23 -6 -47 -10 -71 -10c-53 0 -91 14 -116 41c-24 27 -36 70 -36 127v472h156v-480c0 -19 4 -34 13 -43s21 -13 38 -13c9 0 18 0 28 2c9 1 17 4 24 7v527h156v-632zM388 779c0 -33 -13 -61 -38 -84c-26 -24 -57 -36 -94 -36
s-68 12 -94 35c-25 24 -38 52 -38 85c0 34 13 62 38 85c26 24 57 36 94 36s68 -12 94 -36c25 -23 38 -51 38 -85zM300 779c0 13 -4 23 -13 31c-8 8 -18 12 -31 12c-12 0 -23 -4 -31 -12c-9 -9 -13 -19 -13 -31s4 -22 13 -30c8 -8 18 -13 31 -13c12 0 23 5 31 13
c9 9 13 19 13 30z" />
    <glyph glyph-name="Uhungarumlaut" unicode="&#x170;" horiz-adv-x="566" 
d="M511 227c0 -81 -18 -142 -56 -181c-37 -39 -94 -59 -171 -59c-74 0 -130 20 -169 61s-59 100 -59 179v597h166v-593c0 -45 4 -77 13 -95c9 -19 25 -28 49 -28c23 0 39 9 48 26c9 18 13 50 13 97v593h166v-597zM566 1023l-136 -160h-111l104 160h143zM368 1023l-137 -160
h-110l104 160h143z" />
    <glyph glyph-name="uhungarumlaut" unicode="&#x171;" 
d="M457 0h-128l-12 29c-11 -11 -29 -20 -52 -27c-23 -6 -47 -10 -71 -10c-53 0 -91 14 -116 41c-24 27 -36 70 -36 127v472h156v-480c0 -19 4 -34 13 -43s21 -13 38 -13c9 0 18 0 28 2c9 1 17 4 24 7v527h156v-632zM529 824l-136 -160h-111l104 160h143zM331 824l-137 -160
h-110l104 160h143z" />
    <glyph glyph-name="Ucedilla" horiz-adv-x="566" 
d="M511 227c0 -81 -18 -142 -56 -181c-37 -39 -94 -59 -171 -59c-74 0 -130 20 -169 61s-59 100 -59 179v597h166v-593c0 -45 4 -77 13 -95c9 -19 25 -28 49 -28c23 0 39 9 48 26c9 18 13 50 13 97v593h166v-597zM426 -127c0 -37 -12 -65 -36 -85c-24 -19 -60 -29 -108 -29
c-8 0 -17 1 -26 2c-8 2 -17 4 -25 7v83c5 -3 12 -5 22 -7c10 -3 19 -4 26 -4c12 0 21 3 28 9s10 14 10 26s-4 21 -11 26c-8 5 -17 7 -28 7h-37v93h80v-30c20 -3 37 -7 52 -13c14 -6 25 -14 32 -23c7 -7 12 -16 16 -27c3 -10 5 -22 5 -35z" />
    <glyph glyph-name="ucedilla" 
d="M457 0h-128l-12 29c-11 -11 -29 -20 -52 -27c-23 -6 -47 -10 -71 -10c-53 0 -91 14 -116 41c-24 27 -36 70 -36 127v472h156v-480c0 -19 4 -34 13 -43s21 -13 38 -13c9 0 18 0 28 2c9 1 17 4 24 7v527h156v-632zM514 -113c0 -37 -12 -65 -36 -85
c-24 -19 -60 -29 -108 -29c-8 0 -17 1 -26 2c-8 2 -17 4 -25 7v83c5 -3 12 -5 22 -7c10 -3 19 -4 26 -4c12 0 21 3 28 9s10 14 10 26s-4 21 -11 26c-8 5 -17 7 -28 7h-37v93h80v-30c20 -3 37 -7 52 -13c14 -6 25 -14 32 -23c7 -7 12 -16 16 -27c3 -10 5 -22 5 -35z" />
    <glyph glyph-name="Zacute" unicode="&#x179;" horiz-adv-x="474" 
d="M465 779c0 -12 -3 -29 -9 -48c-7 -20 -16 -43 -28 -70l-241 -569h152v88h116v-180h-377c-23 0 -39 4 -49 13c-10 8 -15 21 -15 38c0 9 1 17 3 25s6 22 14 41l255 614h-131v-85h-109v178h366c17 0 30 -4 39 -12c10 -8 14 -19 14 -33zM415 1023l-146 -160h-125l124 160h147
z" />
    <glyph glyph-name="zacute" unicode="&#x17a;" horiz-adv-x="396" 
d="M379 588c0 -14 -2 -26 -5 -36s-8 -22 -15 -36l-196 -415v-9h123v78h91v-170h-323c-13 0 -25 4 -35 11c-11 8 -16 19 -16 32c0 15 2 27 5 37s8 22 14 36l197 415v9h-109v-78h-90v170h308c13 0 25 -4 35 -12c11 -7 16 -18 16 -32zM380 824l-146 -160h-125l124 160h147z" />
    <glyph glyph-name="Zdotaccent" unicode="&#x17b;" horiz-adv-x="474" 
d="M465 779c0 -12 -3 -29 -9 -48c-7 -20 -16 -43 -28 -70l-241 -569h152v88h116v-180h-377c-23 0 -39 4 -49 13c-10 8 -15 21 -15 38c0 9 1 17 3 25s6 22 14 41l255 614h-131v-85h-109v178h366c17 0 30 -4 39 -12c10 -8 14 -19 14 -33zM333 863h-156v154h156v-154z" />
    <glyph glyph-name="zdotaccent" unicode="&#x17c;" horiz-adv-x="396" 
d="M379 588c0 -14 -2 -26 -5 -36s-8 -22 -15 -36l-196 -415v-9h123v78h91v-170h-323c-13 0 -25 4 -35 11c-11 8 -16 19 -16 32c0 15 2 27 5 37s8 22 14 36l197 415v9h-109v-78h-90v170h308c13 0 25 -4 35 -12c11 -7 16 -18 16 -32zM272 663h-156v154h156v-154z" />
    <glyph glyph-name="coloncur" horiz-adv-x="488" 
d="M369 784v148h-82v-148h82zM237 784v148h-82v-148h82zM477 600h-171c0 41 -3 71 -8 89c-6 18 -19 27 -39 27c-21 0 -35 -20 -44 -59c-9 -40 -13 -120 -13 -240s5 -203 15 -248s29 -67 56 -67c15 0 26 3 33 10c8 7 13 27 17 59h150c-4 -19 -8 -35 -13 -50s-10 -28 -16 -39
c-15 -32 -37 -56 -63 -72c-26 -15 -63 -23 -111 -23c-54 0 -97 13 -130 39c-34 26 -59 66 -77 121c-11 33 -19 72 -24 117c-6 45 -8 97 -8 154c0 75 5 140 15 194s25 98 45 130c19 30 44 53 73 68c30 15 65 23 106 23c36 0 68 -5 94 -16c27 -11 49 -28 66 -49
c16 -20 28 -44 35 -72c8 -28 12 -60 12 -96zM369 -86v148h-82v-148h82zM237 -86v148h-82v-148h82z" />
    <glyph glyph-name="cruzeiro" unicode="&#x20a2;" horiz-adv-x="605" 
d="M477 600h-171c0 41 -3 71 -8 89c-6 18 -19 27 -39 27c-21 0 -35 -20 -44 -59c-9 -40 -13 -120 -13 -240s5 -203 15 -248s29 -67 56 -67c15 0 26 3 33 10c8 7 13 27 17 59h150c-4 -19 -8 -35 -13 -50s-10 -28 -16 -39c-15 -32 -37 -56 -63 -72c-26 -15 -63 -23 -111 -23
c-54 0 -97 13 -130 39c-34 26 -59 66 -77 121c-11 33 -19 72 -24 117c-6 45 -8 97 -8 154c0 75 5 140 15 194s25 98 45 130c19 30 44 53 73 68c30 15 65 23 106 23c36 0 68 -5 94 -16c27 -11 49 -28 66 -49c16 -20 28 -44 35 -72c8 -28 12 -60 12 -96zM603 438
c-12 8 -28 14 -48 18c-20 5 -37 7 -50 7c-11 0 -21 -1 -29 -3c-9 -2 -18 -4 -28 -7v-267h-141v395h95l20 -62c8 23 22 40 41 52c19 11 41 17 65 17c11 0 25 -1 40 -3c14 -1 26 -6 35 -13v-134z" />
    <glyph glyph-name="pesetas" horiz-adv-x="1191" 
d="M520 602c0 -75 -17 -131 -52 -168s-88 -55 -159 -55h-82v-379h-166v824h260c70 0 121 -17 152 -52c31 -34 47 -91 47 -170zM354 602c0 44 -7 77 -22 98s-38 31 -69 31h-36v-259h36c31 0 54 10 69 29c15 20 22 53 22 101zM828 552h-96v-394c0 -29 6 -48 17 -58
c12 -10 34 -15 66 -15v-85h-88c-51 0 -88 12 -114 37s-39 63 -39 115v401h-59v79h59v192h158v-192h96v-80zM1177 164c0 -53 -16 -95 -48 -125c-32 -29 -75 -44 -130 -44c-60 0 -105 14 -135 41c-30 28 -45 70 -45 126h126c0 -23 4 -40 12 -50c9 -11 21 -16 37 -16
s27 4 35 12c8 9 12 21 12 37c0 15 -8 31 -25 49c-16 17 -43 42 -80 75c-48 41 -78 76 -91 106c-12 31 -19 68 -19 113c0 46 16 83 48 110c32 28 75 42 127 42c56 0 99 -15 128 -43c30 -28 45 -68 45 -120h-124c0 18 -4 34 -13 45c-8 12 -20 18 -35 18c-13 0 -23 -4 -32 -11
c-8 -8 -12 -19 -12 -33c0 -18 5 -34 14 -50c10 -17 40 -46 89 -90c44 -38 74 -71 91 -98c16 -28 25 -59 25 -94z" />
    <glyph glyph-name="rupees" horiz-adv-x="957" 
d="M575 0h-38c-63 0 -109 14 -136 41s-40 72 -40 133v143c0 22 -6 37 -17 48s-27 16 -48 16h-69v-381h-166v824h253c69 0 120 -16 152 -47c32 -32 48 -81 48 -146c0 -50 -10 -90 -30 -120c-19 -30 -48 -52 -88 -63c40 -5 70 -19 92 -44s33 -55 33 -91v-171
c0 -19 4 -32 11 -39c7 -8 21 -11 43 -11v-92zM347 603c0 51 -6 85 -17 103s-30 27 -59 27h-44v-254h48c25 0 44 9 55 27c11 19 17 51 17 97zM933 164c0 -53 -16 -95 -48 -125c-31 -29 -75 -44 -130 -44c-60 0 -105 14 -135 41c-30 28 -45 70 -45 126h126c0 -23 4 -40 12 -50
c9 -11 21 -16 37 -16s28 4 35 12c8 9 12 21 12 37c0 15 -8 31 -25 49c-16 17 -43 42 -80 75c-48 41 -78 76 -91 106c-12 31 -19 68 -19 113c0 46 16 83 48 110c32 28 75 42 127 42c56 0 99 -15 128 -43c30 -28 45 -68 45 -120h-124c0 18 -4 34 -13 45c-8 12 -20 18 -35 18
c-13 0 -23 -4 -31 -11c-9 -8 -13 -19 -13 -33c0 -18 5 -34 15 -50c9 -17 39 -46 88 -90c44 -38 74 -71 91 -98c16 -28 25 -59 25 -94z" />
    <glyph glyph-name="pesoph" horiz-adv-x="552" 
d="M520 602c0 -75 -17 -131 -52 -168s-88 -55 -159 -55h-82v-379h-166v824h260c70 0 121 -17 152 -52c31 -34 47 -91 47 -170zM354 602c0 44 -7 77 -22 98s-38 31 -69 31h-36v-259h36c31 0 54 10 69 29c15 20 22 53 22 101zM414 181h-416v122h416v-122z" />
    <glyph glyph-name="rupiah" unicode="&#xf6dd;" horiz-adv-x="1011" 
d="M575 0h-38c-63 0 -109 14 -136 41s-40 72 -40 133v143c0 22 -6 37 -17 48s-27 16 -48 16h-69v-381h-166v824h253c69 0 120 -16 152 -47c32 -32 48 -81 48 -146c0 -50 -10 -90 -30 -120c-19 -30 -48 -52 -88 -63c40 -5 70 -19 92 -44s33 -55 33 -91v-171
c0 -19 4 -32 11 -39c7 -8 21 -11 43 -11v-92zM347 603c0 51 -6 85 -17 103s-30 27 -59 27h-44v-254h48c25 0 44 9 55 27c11 19 17 51 17 97zM985 325c0 -32 -1 -62 -2 -88s-3 -54 -6 -84c-5 -48 -21 -87 -50 -116s-66 -43 -112 -43c-24 0 -43 1 -59 4c-15 3 -26 6 -32 11
v-182h-155v798h128l9 -29c18 14 37 24 58 30c21 5 44 8 69 8c41 0 74 -13 98 -38c24 -26 39 -62 46 -108c2 -18 4 -41 6 -71c1 -30 2 -60 2 -92zM823 323c0 34 0 63 -1 87s-3 45 -5 63c-3 19 -9 33 -17 42c-8 10 -20 15 -36 15c-3 0 -3 0 0 1s-10 -2 -40 -8v-430
c6 -4 12 -7 19 -9c7 -1 16 -2 28 -2c13 0 24 5 33 15c9 9 13 23 14 41c0 12 2 39 3 81c2 41 2 76 2 104z" />
    <glyph glyph-name="blank" unicode="&#x2423;" horiz-adv-x="669" 
d="M614 -196h-558v196h141v-84h275v84h142v-196z" />
    <glyph glyph-name="pageup" unicode="&#x21de;" horiz-adv-x="566" 
d="M546 575h-192v-125h163v-106h-163v-143h163v-108h-163v-201h-141v201h-163v108h163v143h-163v106h163v125h-192l262 263z" />
    <glyph glyph-name="capslock" unicode="&#x21ea;" horiz-adv-x="951" 
d="M932 333h-250v-137h-412v137h-250l456 500zM749 407l-273 308l-276 -308h152v-129h246v129h151zM682 -167h-412v289h412v-289zM598 -83v121h-246v-121h246z" />
    <glyph glyph-name="leftarrow" horiz-adv-x="654" 
d="M615 305h-329v-193l-263 263l263 263v-193h329v-140z" />
    <glyph glyph-name="rightarrow" horiz-adv-x="654" 
d="M40 305h329v-193l262 263l-262 263v-193h-329v-140z" />
    <glyph glyph-name="glyph344" horiz-adv-x="800" 
d="M779 483h-759v151h759v-151zM732 150l-104 -104l-229 229l-229 -229l-104 104l333 333z" />
    <glyph glyph-name="arrowupleft" unicode="&#x2196;" horiz-adv-x="604" 
d="M590 186l-99 -99l-316 315l-135 -135v371h371l-136 -136z" />
    <glyph glyph-name="help" horiz-adv-x="809" 
d="M779 368c0 -104 -36 -192 -110 -265c-73 -74 -161 -110 -265 -110c-103 0 -192 36 -265 110c-73 73 -110 161 -110 265c0 103 37 192 110 265s162 110 265 110c104 0 192 -37 265 -110c74 -73 110 -162 110 -265zM696 368c0 80 -29 149 -86 206s-125 85 -206 85
c-80 0 -149 -28 -206 -85s-85 -126 -85 -206c0 -81 28 -149 85 -206s126 -86 206 -86c81 0 149 29 206 86s86 125 86 206zM535 471c0 -30 -10 -56 -30 -81c-20 -24 -50 -49 -88 -74v-26h-76v60c33 15 58 32 74 50s23 40 23 66c0 13 -5 23 -17 29c-12 7 -24 10 -36 10
c-10 0 -22 -1 -35 -4s-27 -8 -42 -17v80c9 5 20 10 35 16c14 6 33 8 57 8c46 0 80 -11 102 -34c22 -22 33 -50 33 -83zM433 162h-102v97h102v-97z" />
    <glyph glyph-name="uparrow" horiz-adv-x="654" 
d="M590 432h-193v-432h-140v432h-193l263 262z" />
    <glyph glyph-name="arrowdownright" unicode="&#x2198;" horiz-adv-x="604" 
d="M558 109h-371l136 136l-316 316l99 99l316 -316l136 136v-371z" />
    <glyph glyph-name="downarrow" horiz-adv-x="654" 
d="M590 239h-193v432h-140v-432h-193l263 -262z" />
    <glyph glyph-name="glyph357" horiz-adv-x="945" 
d="M943 750l-276 -520h-381v-200l-263 262l263 263v-201h288l146 273h-183v123h406z" />
    <glyph glyph-name="glyph358" horiz-adv-x="945" 
d="M2 750l276 -520h381v-200l263 262l-263 263v-201h-288l-146 273h183v123h-406z" />
    <glyph glyph-name="glyph360" horiz-adv-x="811" 
d="M775 0h-720v824h485l235 -237v-587zM650 587l-145 147v-147h145zM685 90v420h-270v223h-270v-643h540zM615 333l-200 -198l-200 198h111v92h179v-92h110z" />
    <glyph glyph-name="pagedown" unicode="&#x21df;" horiz-adv-x="566" 
d="M546 140h-192v125h163v107h-163v142h163v109h-163v201h-141v-201h-163v-109h163v-142h-163v-107h163v-125h-192l262 -263z" />
    <glyph glyph-name="glyph363" horiz-adv-x="1001" 
d="M539 617h-500v133h500v-133zM955 201h-417v-195l-262 262l262 261v-195h280v283h-167v133h304v-549zM237 201h-198v133h198v-133z" />
    <glyph glyph-name="glyph364" horiz-adv-x="1001" 
d="M462 617h500v133h-500v-133zM46 201h417v-195l262 262l-262 261v-195h-280v283h167v133h-304v-549zM764 201h198v133h-198v-133z" />
    <glyph glyph-name="glyph365" horiz-adv-x="583" 
d="M583 -104h-83v-96h-416v96h-84v104h167v-99h249v99h167v-104z" />
    <glyph glyph-name="appleopen" horiz-adv-x="901" 
d="M662 912c0 -33 -4 -61 -11 -85s-19 -46 -36 -67s-39 -38 -65 -52c-27 -14 -54 -21 -80 -21c1 26 4 52 11 76c6 25 19 48 36 69c16 19 35 35 58 48s52 24 87 32zM876 234c-22 -64 -56 -122 -101 -174c-46 -51 -86 -77 -122 -77c-19 0 -46 7 -80 20s-61 19 -82 19
c-10 0 -36 -6 -79 -19c-42 -13 -70 -20 -83 -20c-58 0 -115 49 -170 148c-56 98 -83 195 -83 288c0 80 22 147 68 200c46 54 107 80 185 80c25 0 54 -7 86 -20c32 -14 54 -20 67 -20c15 0 39 6 71 19c33 14 68 20 106 20c37 0 73 -7 106 -23c33 -15 62 -38 86 -69
c-39 -28 -66 -57 -81 -85c-16 -29 -24 -60 -24 -93c0 -40 11 -77 32 -111s54 -62 98 -83zM782 204c-30 18 -56 48 -78 89c-22 40 -33 85 -33 135c0 41 7 76 21 106c14 29 29 53 44 72c-13 8 -26 12 -38 14c-13 2 -26 4 -40 4c-15 0 -42 -7 -82 -21c-39 -13 -70 -20 -95 -20
c-23 0 -50 7 -78 20c-29 14 -53 21 -73 21c-60 0 -105 -20 -135 -60c-30 -39 -45 -87 -45 -144c0 -93 26 -176 76 -251c51 -74 85 -111 103 -111c9 0 32 6 70 20c37 13 68 20 92 20c36 0 68 -7 97 -20c28 -14 51 -20 66 -20c17 0 40 20 70 60s50 69 58 86z" />
    <glyph glyph-name="glyph373" horiz-adv-x="667" 
d="M628 -16l-632 424l632 424v-848zM511 206v405l-312 -203z" />
    <glyph glyph-name="foursuperior" unicode="&#x2074;" horiz-adv-x="359" 
d="M354 450h-55v-108h-121v108h-178v93l177 281h122v-293h55v-81zM178 528v179l-110 -179h110z" />
    <glyph glyph-name="glyph375" horiz-adv-x="392" 
d="M392 483l-379 -242v98l379 242v-98z" />
    <glyph glyph-name="glyph376" horiz-adv-x="322" 
d="M322 444l-294 -191v98l294 191v-98z" />
    <glyph glyph-name="glyph377" horiz-adv-x="346" 
d="M346 317h-317v103h317v-103z" />
    <glyph glyph-name="glyph378" horiz-adv-x="593" 
d="M613 405c-14 9 -31 15 -53 20c-21 4 -39 6 -54 6c-12 0 -23 -1 -32 -3c-9 -1 -18 -4 -29 -7v-283h-154v418h103l22 -65c9 24 24 42 45 54c21 13 44 19 70 19c12 0 27 -1 43 -3s29 -7 39 -14v-142z" />
    <glyph glyph-name="contextmenu" horiz-adv-x="863" 
d="M483 639h-104v194h104v-194zM759 678l-137 -136l-66 65l138 138zM306 607l-66 -65l-136 136l64 67zM849 369h-195v93h195v-93zM208 369h-193v93h193v-93zM704 243l-110 -41l85 -168l-129 -52l-80 169l-99 -59v463zM306 226l-138 -138l-64 65l136 137z" />
    <glyph glyph-name="power" horiz-adv-x="833" 
d="M779 368c0 -104 -37 -192 -110 -265c-73 -74 -162 -110 -265 -110c-104 0 -192 36 -265 110c-74 73 -110 161 -110 265c0 103 36 192 110 265c73 73 161 110 265 110c103 0 192 -37 265 -110s110 -162 110 -265zM695 368c0 80 -28 149 -85 206s-126 85 -206 85
c-81 0 -149 -28 -206 -85s-86 -126 -86 -206c0 -81 29 -149 86 -206s125 -86 206 -86c80 0 149 29 206 86s85 125 85 206zM458 167h-109v397h109v-397z" />
    <glyph glyph-name="glyph381" horiz-adv-x="582" 
d="M556 859l-463 -924l-80 37l459 921z" />
    <glyph glyph-name="glyph382" 
d="M519 693l-391 -764l-66 35l390 764z" />
    <glyph glyph-name="glyph383" 
d="M535 676h-254v84h254v-84z" />
    <glyph glyph-name="glyph384" horiz-adv-x="488" 
d="M369 784h-82v148h82v-148zM237 784h-82v148h82v-148z" />
    <glyph glyph-name="glyph385" horiz-adv-x="0" 
d="M12 1000v-1200v200h500h-1000z" />
    <glyph glyph-name="Ccircumflex" unicode="&#x108;" horiz-adv-x="488" 
d="M477 600h-171c0 41 -3 71 -8 89c-6 18 -19 27 -39 27c-21 0 -35 -20 -44 -59c-9 -40 -13 -120 -13 -240s5 -203 15 -248s29 -67 56 -67c15 0 26 3 33 10c8 7 13 27 17 59h150c-4 -19 -8 -35 -13 -50s-10 -28 -16 -39c-15 -32 -37 -56 -63 -72c-26 -15 -63 -23 -111 -23
c-54 0 -97 13 -130 39c-34 26 -59 66 -77 121c-11 33 -19 72 -24 117c-6 45 -8 97 -8 154c0 75 5 140 15 194s25 98 45 130c19 30 44 53 73 68c30 15 65 23 106 23c36 0 68 -5 94 -16c27 -11 49 -28 66 -49c16 -20 28 -44 35 -72c8 -28 12 -60 12 -96zM456 883h-115l-87 77
l-87 -77h-115l146 160h112z" />
    <glyph glyph-name="ccircumflex" unicode="&#x109;" horiz-adv-x="425" 
d="M414 451h-138c0 38 -2 63 -8 74s-15 17 -29 17c-22 0 -36 -16 -42 -49c-6 -32 -9 -91 -9 -176c0 -97 4 -159 10 -185c7 -27 21 -40 43 -40c14 0 24 4 31 12c6 9 11 26 13 53h116c0 -55 -15 -97 -44 -123c-29 -27 -72 -40 -130 -40c-65 0 -115 27 -149 81
c-34 55 -51 135 -51 242s18 187 53 241c35 55 88 82 159 82c56 0 99 -16 129 -47c31 -31 46 -79 46 -142zM431 689h-115l-87 77l-87 -77h-115l146 160h112z" />
    <glyph glyph-name="Cdotaccent" unicode="&#x10a;" horiz-adv-x="488" 
d="M477 600h-171c0 41 -3 71 -8 89c-6 18 -19 27 -39 27c-21 0 -35 -20 -44 -59c-9 -40 -13 -120 -13 -240s5 -203 15 -248s29 -67 56 -67c15 0 26 3 33 10c8 7 13 27 17 59h150c-4 -19 -8 -35 -13 -50s-10 -28 -16 -39c-15 -32 -37 -56 -63 -72c-26 -15 -63 -23 -111 -23
c-54 0 -97 13 -130 39c-34 26 -59 66 -77 121c-11 33 -19 72 -24 117c-6 45 -8 97 -8 154c0 75 5 140 15 194s25 98 45 130c19 30 44 53 73 68c30 15 65 23 106 23c36 0 68 -5 94 -16c27 -11 49 -28 66 -49c16 -20 28 -44 35 -72c8 -28 12 -60 12 -96zM332 883h-156v154h156
v-154z" />
    <glyph glyph-name="cdotaccent" unicode="&#x10b;" horiz-adv-x="425" 
d="M414 451h-138c0 38 -2 63 -8 74s-15 17 -29 17c-22 0 -36 -16 -42 -49c-6 -32 -9 -91 -9 -176c0 -97 4 -159 10 -185c7 -27 21 -40 43 -40c14 0 24 4 31 12c6 9 11 26 13 53h116c0 -55 -15 -97 -44 -123c-29 -27 -72 -40 -130 -40c-65 0 -115 27 -149 81
c-34 55 -51 135 -51 242s18 187 53 241c35 55 88 82 159 82c56 0 99 -16 129 -47c31 -31 46 -79 46 -142zM298 689h-156v154h156v-154z" />
    <glyph glyph-name="Ebreve" unicode="&#x114;" horiz-adv-x="483" 
d="M462 0h-190c-70 0 -122 17 -158 52c-35 35 -53 88 -53 159v401c0 84 15 141 46 169c31 29 88 43 171 43h163v-93h-119c-36 0 -61 -8 -75 -23c-13 -16 -20 -44 -20 -84v-71h197v-111h-197v-212c0 -49 8 -84 25 -105c17 -22 45 -32 86 -32h124v-93zM446 1035
c0 -22 -5 -43 -15 -62c-9 -19 -23 -37 -43 -53c-18 -15 -37 -27 -58 -34c-21 -8 -44 -12 -68 -12c-53 0 -97 15 -131 46c-34 30 -52 69 -52 115h90c1 -11 4 -20 9 -28c4 -7 11 -14 20 -19c7 -4 17 -7 28 -9s23 -3 36 -3c14 0 27 1 37 3c11 2 20 5 28 9c9 5 16 12 20 19
c5 8 8 17 9 28h90z" />
    <glyph glyph-name="ebreve" unicode="&#x115;" horiz-adv-x="444" 
d="M416 308h-228c0 -93 4 -152 11 -178c7 -25 22 -38 45 -38c15 0 27 5 34 15c8 9 12 26 12 50h111c0 -56 -14 -97 -43 -123c-28 -27 -72 -40 -131 -40c-65 0 -115 27 -149 81c-34 55 -51 135 -51 242s18 187 53 241c35 55 88 82 159 82c61 0 105 -22 134 -66
c29 -43 43 -108 43 -195v-71zM287 398c0 55 -3 93 -9 113c-6 21 -19 31 -40 31c-20 0 -34 -9 -40 -27s-9 -57 -9 -117h98zM405 850c0 -22 -5 -43 -15 -62c-9 -19 -23 -37 -43 -53c-18 -15 -37 -27 -58 -34c-21 -8 -44 -12 -68 -12c-53 0 -97 15 -131 46
c-34 30 -52 69 -52 115h90c1 -11 4 -20 9 -28c4 -7 11 -14 20 -19c7 -4 17 -7 28 -9s23 -3 36 -3c14 0 27 1 37 3c11 2 20 5 28 9c9 5 16 12 20 19c5 8 8 17 9 28h90z" />
    <glyph glyph-name="Gcircumflex" unicode="&#x11c;" horiz-adv-x="522" 
d="M490 171c-14 -65 -38 -112 -72 -141c-33 -29 -81 -43 -144 -43c-87 0 -150 32 -187 96s-56 173 -56 328c0 148 19 255 56 322c37 66 98 100 182 100c67 0 118 -20 152 -58c35 -39 53 -94 53 -167h-160c0 47 -3 77 -11 90c-7 12 -19 19 -35 19c-28 0 -46 -22 -54 -65
s-12 -124 -12 -241c0 -127 5 -211 16 -253c10 -41 29 -62 57 -62c21 0 37 9 48 28c11 18 16 42 16 72v148h-72v115h223v-288zM462 882h-115l-87 77l-87 -77h-115l146 160h112z" />
    <glyph glyph-name="gcircumflex" unicode="&#x11d;" 
d="M448 20c0 -62 -20 -109 -59 -143c-40 -34 -93 -51 -160 -51c-28 0 -57 3 -85 8c-29 5 -55 13 -79 24l19 86c16 -6 37 -12 62 -17c24 -5 47 -7 67 -7c32 0 55 8 69 26c15 17 23 42 23 75c0 4 0 8 -1 13c0 5 -1 11 -1 17c-7 -11 -20 -20 -39 -26c-20 -7 -43 -10 -69 -10
c-44 0 -78 12 -103 37c-25 26 -41 66 -50 122c-3 22 -6 46 -8 71c-1 26 -2 54 -2 85c0 32 2 66 5 100c4 34 8 59 13 77c12 42 30 74 57 97c26 24 58 36 96 36c18 0 34 -2 48 -6c14 -3 28 -9 42 -18v16h155v-612zM293 117v413c-5 3 -11 5 -19 7s-15 3 -21 3
c-17 0 -30 -5 -38 -13s-14 -24 -16 -48s-4 -50 -5 -77c-1 -28 -2 -53 -2 -74c0 -34 1 -66 2 -96c2 -30 3 -55 5 -75c2 -19 7 -33 15 -42c7 -8 18 -12 33 -12c10 0 19 1 26 3s13 6 20 11zM441 689h-115l-87 77l-87 -77h-115l146 160h112z" />
    <glyph glyph-name="Gdotaccent" unicode="&#x120;" horiz-adv-x="522" 
d="M490 171c-14 -65 -38 -112 -72 -141c-33 -29 -81 -43 -144 -43c-87 0 -150 32 -187 96s-56 173 -56 328c0 148 19 255 56 322c37 66 98 100 182 100c67 0 118 -20 152 -58c35 -39 53 -94 53 -167h-160c0 47 -3 77 -11 90c-7 12 -19 19 -35 19c-28 0 -46 -22 -54 -65
s-12 -124 -12 -241c0 -127 5 -211 16 -253c10 -41 29 -62 57 -62c21 0 37 9 48 28c11 18 16 42 16 72v148h-72v115h223v-288zM338 882h-156v154h156v-154z" />
    <glyph glyph-name="gdotaccent" unicode="&#x121;" 
d="M448 20c0 -62 -20 -109 -59 -143c-40 -34 -93 -51 -160 -51c-28 0 -57 3 -85 8c-29 5 -55 13 -79 24l19 86c16 -6 37 -12 62 -17c24 -5 47 -7 67 -7c32 0 55 8 69 26c15 17 23 42 23 75c0 4 0 8 -1 13c0 5 -1 11 -1 17c-7 -11 -20 -20 -39 -26c-20 -7 -43 -10 -69 -10
c-44 0 -78 12 -103 37c-25 26 -41 66 -50 122c-3 22 -6 46 -8 71c-1 26 -2 54 -2 85c0 32 2 66 5 100c4 34 8 59 13 77c12 42 30 74 57 97c26 24 58 36 96 36c18 0 34 -2 48 -6c14 -3 28 -9 42 -18v16h155v-612zM293 117v413c-5 3 -11 5 -19 7s-15 3 -21 3
c-17 0 -30 -5 -38 -13s-14 -24 -16 -48s-4 -50 -5 -77c-1 -28 -2 -53 -2 -74c0 -34 1 -66 2 -96c2 -30 3 -55 5 -75c2 -19 7 -33 15 -42c7 -8 18 -12 33 -12c10 0 19 1 26 3s13 6 20 11zM317 689h-156v154h156v-154z" />
    <glyph glyph-name="gacute" unicode="&#x1f5;" 
d="M448 20c0 -62 -20 -109 -59 -143c-40 -34 -93 -51 -160 -51c-28 0 -57 3 -85 8c-29 5 -55 13 -79 24l19 86c16 -6 37 -12 62 -17c24 -5 47 -7 67 -7c32 0 55 8 69 26c15 17 23 42 23 75c0 4 0 8 -1 13c0 5 -1 11 -1 17c-7 -11 -20 -20 -39 -26c-20 -7 -43 -10 -69 -10
c-44 0 -78 12 -103 37c-25 26 -41 66 -50 122c-3 22 -6 46 -8 71c-1 26 -2 54 -2 85c0 32 2 66 5 100c4 34 8 59 13 77c12 42 30 74 57 97c26 24 58 36 96 36c18 0 34 -2 48 -6c14 -3 28 -9 42 -18v16h155v-612zM293 117v413c-5 3 -11 5 -19 7s-15 3 -21 3
c-17 0 -30 -5 -38 -13s-14 -24 -16 -48s-4 -50 -5 -77c-1 -28 -2 -53 -2 -74c0 -34 1 -66 2 -96c2 -30 3 -55 5 -75c2 -19 7 -33 15 -42c7 -8 18 -12 33 -12c10 0 19 1 26 3s13 6 20 11zM411 849l-146 -160h-125l124 160h147z" />
    <glyph glyph-name="Hcircumflex" unicode="&#x124;" horiz-adv-x="580" 
d="M520 0h-166v440h-127v-440h-166v824h166v-269h127v269h166v-824zM492 874h-115l-87 77l-87 -77h-115l146 160h112z" />
    <glyph glyph-name="hcircumflex" unicode="&#x125;" 
d="M457 0h-157v482c0 19 -4 33 -13 41c-9 9 -22 13 -39 13c-8 0 -17 -1 -26 -2c-10 -2 -18 -4 -25 -6v-528h-155v824h155v-212c13 10 29 17 46 21c18 4 38 7 60 7c49 0 86 -13 113 -40c27 -26 41 -63 41 -112v-488zM449 874h-115l-87 77l-87 -77h-115l146 160h112z" />
    <glyph glyph-name="Hbar" unicode="&#x126;" horiz-adv-x="580" 
d="M520 0h-166v440h-127v-440h-166v824h166v-269h127v269h166v-824zM561 272h-500v118h500v-118z" />
    <glyph glyph-name="hbar" unicode="&#x127;" 
d="M457 0h-157v482c0 19 -4 33 -13 41c-9 9 -22 13 -39 13c-8 0 -17 -1 -26 -2c-10 -2 -18 -4 -25 -6v-528h-155v824h155v-212c13 10 29 17 46 21c18 4 38 7 60 7c49 0 86 -13 113 -40c27 -26 41 -63 41 -112v-488zM363 658h-321v119h321v-119z" />
    <glyph glyph-name="Itilde" unicode="&#x128;" horiz-adv-x="317" 
d="M242 0h-166v824h166v-824zM465 971c-7 -27 -23 -50 -48 -69c-26 -19 -53 -28 -83 -28c-19 0 -35 2 -49 6c-13 4 -27 11 -40 21s-25 17 -36 21c-10 3 -22 5 -36 5c-7 0 -14 -1 -20 -3s-11 -5 -16 -9c-3 -2 -6 -5 -8 -9c-3 -4 -6 -8 -9 -13l-44 28c7 28 23 51 49 69
c25 19 52 28 82 28c19 0 35 -2 49 -6s27 -11 40 -21c13 -9 25 -16 36 -20c10 -4 23 -6 36 -6c8 0 15 1 21 3c6 1 12 4 16 8c4 3 7 6 10 10s5 8 6 13z" />
    <glyph glyph-name="itilde" unicode="&#x129;" horiz-adv-x="254" 
d="M205 0h-156v632h156v-632zM438 778c-7 -27 -23 -50 -48 -69c-26 -19 -53 -28 -83 -28c-19 0 -35 2 -49 6c-13 4 -27 11 -40 21s-25 17 -36 21c-10 3 -22 5 -36 5c-7 0 -14 -1 -20 -3s-11 -5 -16 -9c-3 -2 -6 -5 -8 -9c-3 -4 -6 -8 -9 -13l-44 28c7 28 23 51 49 69
c25 19 52 28 82 28c19 0 35 -2 49 -6s27 -11 40 -21c13 -9 25 -16 36 -20c10 -4 23 -6 36 -6c8 0 15 1 21 3c6 1 12 4 16 8c4 3 7 6 10 10s5 8 6 13z" />
    <glyph glyph-name="Iogonek" unicode="&#x12e;" horiz-adv-x="317" 
d="M242 0h-166v824h166v-824zM271 -201c-7 -3 -16 -5 -26 -6c-10 -2 -18 -3 -26 -3c-46 0 -82 11 -106 34c-25 22 -37 52 -37 90c0 16 4 33 12 48c8 16 19 32 35 46c12 12 24 21 36 29s24 14 36 19l65 -48c-25 -11 -44 -24 -58 -40c-13 -16 -20 -30 -20 -44
c0 -17 3 -29 11 -38c7 -8 17 -12 30 -12c9 0 18 1 26 2s16 3 22 6v-83z" />
    <glyph glyph-name="Jcircumflex" unicode="&#x134;" horiz-adv-x="464" 
d="M402 174c0 -58 -18 -104 -54 -137c-36 -34 -87 -50 -152 -50c-59 0 -104 12 -135 35c-30 23 -50 62 -60 115l106 33c6 -26 14 -45 24 -55s24 -15 44 -15c21 0 37 6 47 19s15 32 15 57v648h165v-650zM515 874h-115l-87 77l-87 -77h-115l146 160h112z" />
    <glyph glyph-name="jcircumflex" unicode="&#x135;" horiz-adv-x="259" 
d="M218 680h-156v144h156v-144zM218 -18c0 -49 -16 -87 -47 -115c-32 -27 -77 -41 -135 -41c-26 0 -49 2 -70 5s-38 8 -51 14l16 83c9 -3 20 -5 33 -6s27 -2 43 -2c20 0 35 5 43 17c8 11 12 30 12 59v636h156v-650zM350 650h-115l-87 77l-87 -77h-115l146 160h112z" />
    <glyph glyph-name="ncommaaccent" unicode="&#x14e;" 
d="M457 0h-157v482c0 18 -5 32 -14 41c-10 9 -23 13 -40 13c-8 0 -16 -1 -26 -2c-9 -2 -17 -4 -23 -6v-528h-155v632h127l10 -28c22 13 42 22 61 28c19 5 41 8 66 8c47 0 84 -13 111 -40c26 -26 40 -63 40 -112v-488zM246 834l-132 -145h-72l78 145h-41v172h167v-172z" />
    <glyph glyph-name="Obreve" unicode="&#x14f;" horiz-adv-x="549" 
d="M519 411c0 -168 -21 -280 -61 -338c-41 -57 -102 -86 -183 -86s-142 29 -183 86c-41 58 -61 171 -61 338c0 169 20 281 61 338c41 56 102 84 183 84c82 0 143 -26 183 -77c41 -51 61 -166 61 -345zM347 411c0 99 -3 175 -10 228s-27 79 -62 79c-34 0 -55 -27 -62 -80
c-7 -54 -11 -129 -11 -227c0 -111 4 -190 12 -238c7 -48 28 -71 61 -71c36 0 56 26 63 79c6 54 9 130 9 230zM459 1044c0 -22 -5 -43 -15 -62c-9 -19 -23 -37 -43 -53c-18 -15 -37 -27 -58 -34c-21 -8 -44 -12 -68 -12c-53 0 -97 15 -131 46c-34 30 -52 69 -52 115h90
c1 -11 4 -20 9 -28c4 -7 11 -14 20 -19c7 -4 17 -7 28 -9s23 -3 36 -3c14 0 27 1 37 3c11 2 20 5 28 9c9 5 16 12 20 19c5 8 8 17 9 28h90z" />
    <glyph glyph-name="obreve" unicode="&#x158;" horiz-adv-x="469" 
d="M443 317c0 -112 -17 -194 -52 -246c-34 -51 -86 -77 -157 -77c-68 0 -120 27 -155 81c-34 55 -52 135 -52 242c0 111 17 192 51 244c34 53 86 79 156 79c75 0 128 -27 161 -79c32 -53 48 -134 48 -244zM280 317c0 101 -2 164 -7 189c-5 24 -18 36 -39 36
c-20 0 -33 -12 -38 -38c-5 -25 -8 -88 -8 -189c0 -98 3 -160 9 -185c5 -25 18 -38 37 -38s31 14 37 40c6 27 9 89 9 185zM418 850c0 -22 -5 -43 -15 -62c-9 -19 -23 -37 -43 -53c-18 -15 -37 -27 -58 -34c-21 -8 -44 -12 -68 -12c-53 0 -97 15 -131 46
c-34 30 -52 69 -52 115h90c1 -11 4 -20 9 -28c4 -7 11 -14 20 -19c7 -4 17 -7 28 -9s23 -3 36 -3c14 0 27 1 37 3c11 2 20 5 28 9c9 5 16 12 20 19c5 8 8 17 9 28h90z" />
    <glyph glyph-name="Rcaron" unicode="&#x159;" horiz-adv-x="581" 
d="M575 0h-38c-63 0 -109 14 -136 41s-40 72 -40 133v143c0 22 -6 37 -17 48s-27 16 -48 16h-69v-381h-166v824h253c69 0 120 -16 152 -47c32 -32 48 -81 48 -146c0 -50 -10 -90 -30 -120c-19 -30 -48 -52 -88 -63c40 -5 70 -19 92 -44s33 -55 33 -91v-171
c0 -19 4 -32 11 -39c7 -8 21 -11 43 -11v-92zM347 603c0 51 -6 85 -17 103s-30 27 -59 27h-44v-254h48c25 0 44 9 55 27c11 19 17 51 17 97zM492 1034l-146 -160h-112l-146 160h115l87 -77l87 77h115z" />
    <glyph glyph-name="rcaron" unicode="&#x15c;" horiz-adv-x="352" 
d="M346 495c-13 5 -25 8 -37 11s-25 4 -39 4c-15 0 -29 -1 -43 -3s-24 -5 -30 -10v-497h-155v632h127l10 -29c14 13 31 22 50 28s40 9 63 9c10 0 19 -1 28 -4c9 -2 18 -5 26 -9v-132zM446 849l-146 -160h-112l-146 160h115l87 -77l87 77h115z" />
    <glyph glyph-name="Scircumflex" unicode="&#x15d;" horiz-adv-x="466" 
d="M459 220c0 -77 -20 -135 -59 -174s-96 -59 -172 -59c-68 0 -121 18 -159 53c-39 35 -58 86 -58 152h155c0 -27 5 -48 16 -63s28 -22 50 -22s40 7 52 20c13 13 19 31 19 55s-5 46 -14 66c-10 19 -25 39 -44 60c-11 11 -35 33 -73 67c-39 35 -61 55 -68 61
c-30 29 -52 60 -66 91s-21 65 -21 101c0 62 20 112 59 149c40 37 91 56 154 56s113 -18 149 -54s55 -86 55 -149h-156c0 27 -5 48 -14 62c-10 14 -25 21 -45 21c-17 0 -30 -5 -39 -16s-13 -27 -13 -46c0 -15 4 -30 12 -45c9 -14 25 -32 49 -54c3 -3 25 -21 64 -55
c40 -34 69 -60 85 -78c30 -31 51 -62 63 -94c13 -31 19 -66 19 -105zM436 883h-115l-87 77l-87 -77h-115l146 160h112z" />
    <glyph glyph-name="scircumflex" unicode="&#x166;" horiz-adv-x="396" 
d="M381 164c0 -53 -16 -95 -48 -125c-31 -29 -75 -44 -130 -44c-60 0 -105 14 -135 41c-30 28 -45 70 -45 126h126c0 -23 4 -40 12 -50c9 -11 21 -16 37 -16s28 4 35 12c8 9 12 21 12 37c0 15 -8 31 -25 49c-16 17 -43 42 -80 75c-48 41 -78 76 -91 106
c-12 31 -19 68 -19 113c0 46 16 83 48 110c32 28 75 42 127 42c56 0 99 -15 128 -43c30 -28 45 -68 45 -120h-124c0 18 -4 34 -13 45c-8 12 -20 18 -35 18c-13 0 -23 -4 -31 -11c-9 -8 -13 -19 -13 -33c0 -18 5 -34 15 -50c9 -17 39 -46 88 -90c44 -38 74 -71 91 -98
c16 -28 25 -59 25 -94zM427 689h-115l-87 77l-87 -77h-115l146 160h112z" />
    <glyph glyph-name="Tbar" unicode="&#x167;" horiz-adv-x="483" 
d="M479 731h-156v-731h-166v731h-155v93h477v-93zM401 353h-321v119h321v-119z" />
    <glyph glyph-name="tbar" unicode="&#x168;" horiz-adv-x="332" 
d="M318 552h-96v-394c0 -29 5 -48 17 -58s34 -15 66 -15v-85h-89c-50 0 -88 12 -113 37c-26 25 -39 63 -39 115v401h-60v79h60v192h158v-192h96v-80zM325 353h-321v119h321v-119z" />
    <glyph glyph-name="Utilde" unicode="&#x169;" horiz-adv-x="566" 
d="M511 227c0 -81 -18 -142 -56 -181c-37 -39 -94 -59 -171 -59c-74 0 -130 20 -169 61s-59 100 -59 179v597h166v-593c0 -45 4 -77 13 -95c9 -19 25 -28 49 -28c23 0 39 9 48 26c9 18 13 50 13 97v593h166v-597zM478 971c-7 -27 -23 -50 -48 -69c-26 -19 -53 -28 -83 -28
c-19 0 -35 2 -49 6c-13 4 -27 11 -40 21s-25 17 -36 21c-10 3 -22 5 -36 5c-7 0 -14 -1 -20 -3s-11 -5 -16 -9c-3 -2 -6 -5 -8 -9c-3 -4 -6 -8 -9 -13l-44 28c7 28 23 51 49 69c25 19 52 28 82 28c19 0 35 -2 49 -6s27 -11 40 -21c13 -9 25 -16 36 -20c10 -4 23 -6 36 -6
c8 0 15 1 21 3c6 1 12 4 16 8c4 3 7 6 10 10s5 8 6 13z" />
    <glyph glyph-name="utilde" unicode="&#x16c;" 
d="M457 0h-128l-12 29c-11 -11 -29 -20 -52 -27c-23 -6 -47 -10 -71 -10c-53 0 -91 14 -116 41c-24 27 -36 70 -36 127v472h156v-480c0 -19 4 -34 13 -43s21 -13 38 -13c9 0 18 0 28 2c9 1 17 4 24 7v527h156v-632zM444 778c-7 -27 -23 -50 -48 -69c-26 -19 -53 -28 -83 -28
c-19 0 -35 2 -49 6c-13 4 -27 11 -40 21s-25 17 -36 21c-10 3 -22 5 -36 5c-7 0 -14 -1 -20 -3s-11 -5 -16 -9c-3 -2 -6 -5 -8 -9c-3 -4 -6 -8 -9 -13l-44 28c7 28 23 51 49 69c25 19 52 28 82 28c19 0 35 -2 49 -6s27 -11 40 -21c13 -9 25 -16 36 -20c10 -4 23 -6 36 -6
c8 0 15 1 21 3c6 1 12 4 16 8c4 3 7 6 10 10s5 8 6 13z" />
    <glyph glyph-name="Ubreve" unicode="&#x16d;" horiz-adv-x="566" 
d="M511 227c0 -81 -18 -142 -56 -181c-37 -39 -94 -59 -171 -59c-74 0 -130 20 -169 61s-59 100 -59 179v597h166v-593c0 -45 4 -77 13 -95c9 -19 25 -28 49 -28c23 0 39 9 48 26c9 18 13 50 13 97v593h166v-597zM467 1035c0 -22 -5 -43 -15 -62c-9 -19 -23 -37 -43 -53
c-18 -15 -37 -27 -58 -34c-21 -8 -44 -12 -68 -12c-53 0 -97 15 -131 46c-34 30 -52 69 -52 115h90c1 -11 4 -20 9 -28c4 -7 11 -14 20 -19c7 -4 17 -7 28 -9s23 -3 36 -3c14 0 27 1 37 3c11 2 20 5 28 9c9 5 16 12 20 19c5 8 8 17 9 28h90z" />
    <glyph glyph-name="ubreve" unicode="&#x172;" 
d="M457 0h-128l-12 29c-11 -11 -29 -20 -52 -27c-23 -6 -47 -10 -71 -10c-53 0 -91 14 -116 41c-24 27 -36 70 -36 127v472h156v-480c0 -19 4 -34 13 -43s21 -13 38 -13c9 0 18 0 28 2c9 1 17 4 24 7v527h156v-632zM433 843c0 -22 -5 -43 -15 -62c-9 -19 -23 -37 -43 -53
c-18 -15 -37 -27 -58 -34c-21 -8 -44 -12 -68 -12c-53 0 -97 15 -131 46c-34 30 -52 69 -52 115h90c1 -11 4 -20 9 -28c4 -7 11 -14 20 -19c7 -4 17 -7 28 -9s23 -3 36 -3c14 0 27 1 37 3c11 2 20 5 28 9c9 5 16 12 20 19c5 8 8 17 9 28h90z" />
    <glyph glyph-name="Uogonek" unicode="&#x173;" horiz-adv-x="566" 
d="M511 227c0 -81 -18 -142 -56 -181c-37 -39 -94 -59 -171 -59c-74 0 -130 20 -169 61s-59 100 -59 179v597h166v-593c0 -45 4 -77 13 -95c9 -19 25 -28 49 -28c23 0 39 9 48 26c9 18 13 50 13 97v593h166v-597zM381 -202c-7 -3 -16 -5 -26 -6c-10 -2 -18 -3 -26 -3
c-46 0 -82 11 -106 34c-25 22 -37 52 -37 90c0 16 4 33 12 48c8 16 19 32 35 46c12 12 24 21 36 29s24 14 36 19l65 -48c-25 -11 -44 -24 -58 -40c-13 -16 -20 -30 -20 -44c0 -17 3 -29 11 -38c7 -8 17 -12 30 -12c9 0 18 1 26 2s16 3 22 6v-83z" />
    <glyph glyph-name="uogonek" unicode="&#x174;" 
d="M457 0h-128l-12 29c-11 -11 -29 -20 -52 -27c-23 -6 -47 -10 -71 -10c-53 0 -91 14 -116 41c-24 27 -36 70 -36 127v472h156v-480c0 -19 4 -34 13 -43s21 -13 38 -13c9 0 18 0 28 2c9 1 17 4 24 7v527h156v-632zM457 -200c-7 -3 -16 -5 -26 -6c-10 -2 -18 -3 -26 -3
c-46 0 -82 11 -106 34c-25 22 -37 52 -37 90c0 16 4 33 12 48c8 16 19 32 35 46c12 12 24 21 36 29s24 14 36 19l65 -48c-25 -11 -44 -24 -58 -40c-13 -16 -20 -30 -20 -44c0 -17 3 -29 11 -38c7 -8 17 -12 30 -12c9 0 18 1 26 2s16 3 22 6v-83z" />
    <glyph glyph-name="Wcircumflex" unicode="&#x175;" horiz-adv-x="804" 
d="M756 278c0 -29 -4 -56 -14 -81c-10 -26 -24 -50 -44 -72c-19 -23 -38 -44 -57 -65c-19 -20 -39 -40 -59 -60h-113l-70 90l-86 -90h-112l-153 195v629h161v-630l67 -87l41 41v676h166v-630l66 -87l41 41v676h166v-546zM604 874h-115l-87 77l-87 -77h-115l146 160h112z" />
    <glyph glyph-name="wcircumflex" unicode="&#x176;" horiz-adv-x="757" 
d="M714 276c0 -25 -2 -45 -7 -61c-6 -16 -14 -31 -26 -46l-137 -169h-75l-93 111l-89 -111h-76l-169 200v432h156v-442l69 -85l34 47l-1 480h156v-442l69 -85l33 47v480h156v-356zM580 682h-115l-87 77l-87 -77h-115l146 160h112z" />
    <glyph glyph-name="Ycircumflex" unicode="&#x177;" horiz-adv-x="544" 
d="M512 581c0 -32 -13 -67 -38 -103c-26 -36 -65 -76 -118 -119v-359h-166v322l-156 208v294h166v-268l88 -131l58 60v339h166v-243zM475 874h-115l-87 77l-87 -77h-115l146 160h112z" />
    <glyph glyph-name="ycircumflex" unicode="&#x218;" horiz-adv-x="493" 
d="M450 20c0 -63 -20 -112 -59 -145c-39 -32 -96 -49 -170 -49c-28 0 -57 3 -85 8c-29 5 -55 13 -78 24l16 73c24 -7 47 -12 68 -15c20 -3 40 -5 61 -5c33 0 58 9 74 27s24 45 24 82c0 4 -1 10 -2 18s-1 13 -1 16l-18 -23h-103l-142 169v432h155v-442l70 -85l33 47v480h157
v-612zM444 682h-115l-87 77l-87 -77h-115l146 160h112z" />
    <glyph glyph-name="Scommaaccent" unicode="&#x219;" horiz-adv-x="466" 
d="M459 220c0 -77 -20 -135 -59 -174s-96 -59 -172 -59c-68 0 -121 18 -159 53c-39 35 -58 86 -58 152h155c0 -27 5 -48 16 -63s28 -22 50 -22s40 7 52 20c13 13 19 31 19 55s-5 46 -14 66c-10 19 -25 39 -44 60c-11 11 -35 33 -73 67c-39 35 -61 55 -68 61
c-30 29 -52 60 -66 91s-21 65 -21 101c0 62 20 112 59 149c40 37 91 56 154 56s113 -18 149 -54s55 -86 55 -149h-156c0 27 -5 48 -14 62c-10 14 -25 21 -45 21c-17 0 -30 -5 -39 -16s-13 -27 -13 -46c0 -15 4 -30 12 -45c9 -14 25 -32 49 -54c3 -3 25 -21 64 -55
c40 -34 69 -60 85 -78c30 -31 51 -62 63 -94c13 -31 19 -66 19 -105zM337 -234l-132 -145h-72l78 145h-41v172h167v-172z" />
    <glyph glyph-name="scommaaccent" unicode="&#xf6c3;" horiz-adv-x="396" 
d="M381 164c0 -53 -16 -95 -48 -125c-31 -29 -75 -44 -130 -44c-60 0 -105 14 -135 41c-30 28 -45 70 -45 126h126c0 -23 4 -40 12 -50c9 -11 21 -16 37 -16s28 4 35 12c8 9 12 21 12 37c0 15 -8 31 -25 49c-16 17 -43 42 -80 75c-48 41 -78 76 -91 106
c-12 31 -19 68 -19 113c0 46 16 83 48 110c32 28 75 42 127 42c56 0 99 -15 128 -43c30 -28 45 -68 45 -120h-124c0 18 -4 34 -13 45c-8 12 -20 18 -35 18c-13 0 -23 -4 -31 -11c-9 -8 -13 -19 -13 -33c0 -18 5 -34 15 -50c9 -17 39 -46 88 -90c44 -38 74 -71 91 -98
c16 -28 25 -59 25 -94zM304 -227l-132 -145h-72l78 145h-41v172h167v-172z" />
    <glyph glyph-name="Tcommaaccent" unicode="&#x300;" horiz-adv-x="483" 
d="M479 731h-156v-731h-166v731h-155v93h477v-93zM322 -222l-132 -145h-72l78 145h-41v172h167v-172z" />
    <glyph glyph-name="tcommaaccent" unicode="&#x301;" horiz-adv-x="332" 
d="M318 552h-96v-394c0 -29 5 -48 17 -58s34 -15 66 -15v-85h-89c-50 0 -88 12 -113 37c-26 25 -39 63 -39 115v401h-60v79h60v192h158v-192h96v-80zM263 -222l-132 -145h-72l78 145h-41v172h167v-172z" />
    <glyph glyph-name="Gcommaaccent" unicode="&#x302;" horiz-adv-x="522" 
d="M490 171c-14 -65 -38 -112 -72 -141c-33 -29 -81 -43 -144 -43c-87 0 -150 32 -187 96s-56 173 -56 328c0 148 19 255 56 322c37 66 98 100 182 100c67 0 118 -20 152 -58c35 -39 53 -94 53 -167h-160c0 47 -3 77 -11 90c-7 12 -19 19 -35 19c-28 0 -46 -22 -54 -65
s-12 -124 -12 -241c0 -127 5 -211 16 -253c10 -41 29 -62 57 -62c21 0 37 9 48 28c11 18 16 42 16 72v148h-72v115h223v-288zM362 -235l-132 -145h-72l78 145h-41v172h167v-172z" />
    <glyph glyph-name="gcommaaccent" unicode="&#x303;" 
d="M448 20c0 -62 -20 -109 -59 -143c-40 -34 -93 -51 -160 -51c-28 0 -57 3 -85 8c-29 5 -55 13 -79 24l19 86c16 -6 37 -12 62 -17c24 -5 47 -7 67 -7c32 0 55 8 69 26c15 17 23 42 23 75c0 4 0 8 -1 13c0 5 -1 11 -1 17c-7 -11 -20 -20 -39 -26c-20 -7 -43 -10 -69 -10
c-44 0 -78 12 -103 37c-25 26 -41 66 -50 122c-3 22 -6 46 -8 71c-1 26 -2 54 -2 85c0 32 2 66 5 100c4 34 8 59 13 77c12 42 30 74 57 97c26 24 58 36 96 36c18 0 34 -2 48 -6c14 -3 28 -9 42 -18v16h155v-612zM293 117v413c-5 3 -11 5 -19 7s-15 3 -21 3
c-17 0 -30 -5 -38 -13s-14 -24 -16 -48s-4 -50 -5 -77c-1 -28 -2 -53 -2 -74c0 -34 1 -66 2 -96c2 -30 3 -55 5 -75c2 -19 7 -33 15 -42c7 -8 18 -12 33 -12c10 0 19 1 26 3s13 6 20 11zM328 1006l-49 -145h40v-172h-167v172l104 145h72z" />
    <glyph glyph-name="Lcommaaccent" unicode="&#x304;" horiz-adv-x="469" 
d="M466 0h-208c-64 0 -113 17 -146 52c-34 34 -51 83 -51 146v626h166v-620c0 -45 8 -75 24 -89c17 -15 40 -22 69 -22h146v-93zM366 -222l-132 -145h-72l78 145h-41v172h167v-172z" />
    <glyph glyph-name="lcommaaccent" unicode="&#x306;" horiz-adv-x="278" 
d="M266 0h-98c-38 0 -67 11 -87 32s-30 53 -30 95v697h156v-690c0 -18 4 -30 12 -38c8 -7 24 -11 47 -11v-85zM255 -222l-132 -145h-72l78 145h-41v172h167v-172z" />
    <glyph glyph-name="Kcommaaccent" unicode="&#x307;" horiz-adv-x="576" 
d="M585 0h-90c-40 0 -75 12 -106 35c-30 23 -46 52 -46 86v165c0 37 -6 63 -18 77s-35 21 -68 21h-30v-384h-166v824h166v-349l42 -1c14 0 25 4 34 13c9 8 14 31 16 69l12 268h155l-12 -244c-2 -40 -11 -69 -28 -86c-16 -17 -40 -29 -73 -36c42 -6 74 -21 96 -44
c22 -24 33 -55 33 -94v-122c0 -49 6 -79 18 -90c12 -10 33 -15 65 -15v-93zM400 -222l-132 -145h-72l78 145h-41v172h167v-172z" />
    <glyph glyph-name="kcommaaccent" unicode="&#x308;" horiz-adv-x="493" 
d="M492 0h-77c-40 0 -71 11 -92 34s-31 58 -31 104v126c0 19 -6 33 -16 42c-10 10 -24 15 -40 15h-39v-321h-155v824h155v-419h34c10 0 18 2 23 6c6 4 10 12 13 23l51 198h130l-54 -191c-8 -30 -15 -49 -22 -56c-6 -7 -16 -12 -27 -15c32 0 56 -8 73 -26
c18 -17 26 -41 26 -72v-152c0 -14 4 -23 10 -28s19 -7 38 -7v-85zM369 -222l-132 -145h-72l78 145h-41v172h167v-172z" />
    <glyph glyph-name="Ncommaaccent" unicode="&#x30a;" horiz-adv-x="549" 
d="M504 0h-166v652c0 25 -7 43 -20 56c-13 12 -33 18 -61 18h-30v-726h-166v824h132l18 -36c15 12 33 22 55 27c22 6 45 9 71 9c52 0 93 -14 123 -44c29 -29 44 -70 44 -121v-659zM384 -222l-132 -145h-72l78 145h-41v172h167v-172z" />
    <glyph glyph-name="Rcommaaccent" unicode="&#x30b;" horiz-adv-x="581" 
d="M575 0h-38c-63 0 -109 14 -136 41s-40 72 -40 133v143c0 22 -6 37 -17 48s-27 16 -48 16h-69v-381h-166v824h253c69 0 120 -16 152 -47c32 -32 48 -81 48 -146c0 -50 -10 -90 -30 -120c-19 -30 -48 -52 -88 -63c40 -5 70 -19 92 -44s33 -55 33 -91v-171
c0 -19 4 -32 11 -39c7 -8 21 -11 43 -11v-92zM347 603c0 51 -6 85 -17 103s-30 27 -59 27h-44v-254h48c25 0 44 9 55 27c11 19 17 51 17 97zM387 -222l-132 -145h-72l78 145h-41v172h167v-172z" />
    <glyph glyph-name="rcommaaccent" unicode="&#x30c;" horiz-adv-x="352" 
d="M346 495c-13 5 -25 8 -37 11s-25 4 -39 4c-15 0 -29 -1 -43 -3s-24 -5 -30 -10v-497h-155v632h127l10 -29c14 13 31 22 50 28s40 9 63 9c10 0 19 -1 28 -4c9 -2 18 -5 26 -9v-132zM246 -222l-132 -145h-72l78 145h-41v172h167v-172z" />
    <glyph glyph-name="commaaccent" unicode="&#x327;" horiz-adv-x="254" 
d="M209 0l-132 -145h-72l78 145h-41v172h167v-172z" />
    <glyph glyph-name="gravecmb" unicode="&#x328;" horiz-adv-x="500" 
d="M375 664h-125l-146 160h147z" />
    <glyph glyph-name="acutecmb" unicode="&#x338;" horiz-adv-x="500" 
d="M395 824l-146 -160h-125l124 160h147z" />
    <glyph glyph-name="circumflexcmb" horiz-adv-x="500" 
d="M452 664h-115l-87 77l-87 -77h-115l146 160h112z" />
    <glyph glyph-name="tildecmb" horiz-adv-x="500" 
d="M443 756c-7 -27 -23 -50 -48 -69c-26 -19 -53 -28 -83 -28c-19 0 -35 2 -49 6c-13 4 -27 11 -40 21s-25 17 -36 21c-10 3 -22 5 -36 5c-7 0 -14 -1 -20 -3s-11 -5 -16 -9c-3 -2 -6 -5 -8 -9c-3 -4 -6 -8 -9 -13l-44 28c7 28 23 51 49 69c25 19 52 28 82 28
c19 0 35 -2 49 -6s27 -11 40 -21c13 -9 25 -16 36 -20c10 -4 23 -6 36 -6c8 0 15 1 21 3c6 1 12 4 16 8c4 3 7 6 10 10s5 8 6 13z" />
    <glyph glyph-name="macroncmb" horiz-adv-x="500" 
d="M411 674h-321v119h321v-119z" />
    <glyph glyph-name="brevecmb" horiz-adv-x="500" 
d="M434 824c0 -22 -5 -43 -15 -62c-9 -19 -23 -37 -43 -53c-18 -15 -37 -27 -58 -34c-21 -8 -44 -12 -68 -12c-53 0 -97 15 -131 46c-34 30 -52 69 -52 115h90c1 -11 4 -20 9 -28c4 -7 11 -14 20 -19c7 -4 17 -7 28 -9s23 -3 36 -3c14 0 27 1 37 3c11 2 20 5 28 9
c9 5 16 12 20 19c5 8 8 17 9 28h90z" />
    <glyph glyph-name="dotaccentcmb" horiz-adv-x="500" 
d="M328 664h-156v154h156v-154z" />
    <glyph glyph-name="dieresiscmb" horiz-adv-x="500" 
d="M447 664h-141v141h141v-141zM192 664h-142v141h142v-141z" />
    <glyph glyph-name="ringcmb" horiz-adv-x="500" 
d="M382 772c0 -33 -13 -61 -38 -84c-26 -24 -57 -36 -94 -36s-68 12 -94 35c-25 24 -38 52 -38 85c0 34 13 62 38 85c26 24 57 36 94 36s68 -12 94 -36c25 -23 38 -51 38 -85zM294 772c0 13 -4 23 -13 31c-8 8 -18 12 -31 12c-12 0 -23 -4 -31 -12c-9 -9 -13 -19 -13 -31
s4 -22 13 -30c8 -8 18 -13 31 -13c12 0 23 5 31 13c9 9 13 19 13 30z" />
    <glyph glyph-name="hungarumlautcmb" horiz-adv-x="500" 
d="M508 824l-136 -160h-111l104 160h143zM310 824l-137 -160h-110l104 160h143z" />
    <glyph glyph-name="caroncmb" horiz-adv-x="500" 
d="M452 824l-146 -160h-112l-146 160h115l87 -77l87 77h115z" />
    <glyph glyph-name="cedillacmb" horiz-adv-x="500" 
d="M375 -104c0 -37 -12 -65 -36 -85c-24 -19 -60 -29 -108 -29c-8 0 -17 1 -26 2c-8 2 -17 4 -25 7v83c5 -3 12 -5 22 -7c10 -3 19 -4 26 -4c12 0 21 3 28 9s10 14 10 26s-4 21 -11 26c-8 5 -17 7 -28 7h-37v93h80v-30c20 -3 37 -7 52 -13c14 -6 25 -14 32 -23
c7 -7 12 -16 16 -27c3 -10 5 -22 5 -35z" />
    <glyph glyph-name="ogonekcmb" horiz-adv-x="500" 
d="M315 -209c-7 -3 -16 -5 -26 -6c-10 -2 -18 -3 -26 -3c-46 0 -82 11 -106 34c-25 22 -37 52 -37 90c0 16 4 33 12 48c8 16 19 32 35 46c12 12 24 21 36 29s24 14 36 19l65 -48c-25 -11 -44 -24 -58 -40c-13 -16 -20 -30 -20 -44c0 -17 3 -29 11 -38c7 -8 17 -12 30 -12
c9 0 18 1 26 2s16 3 22 6v-83z" />
    <glyph glyph-name="soliduslongoverlaycmb" horiz-adv-x="231" 
 />
    <glyph glyph-name="Omegagreek" horiz-adv-x="231" 
 />
  </font>
</defs>
</svg>
